<svg width="255" height="54" viewBox="0 0 255 54" fill="none" xmlns="http://www.w3.org/2000/svg">
<path d="M142.657 41.5891C141.864 41.5891 140.675 42.2599 140.279 42.394C139.354 42.5282 138.164 42.1257 137.503 36.8936C137.107 33.8081 137.503 30.5883 137.636 27.3686C137.636 26.5637 129.443 27.7711 129.443 30.32C129.311 34.2105 128.782 38.2352 129.707 41.9915C129.707 42.1257 129.707 42.1257 129.839 42.2599C125.875 43.3331 121.91 41.1866 120.457 36.8936C120.06 35.6862 119.928 34.3447 119.928 33.0031C119.928 32.6007 120.06 30.0517 120.325 29.2468C125.875 28.1735 131.161 26.2954 136.05 23.6122C136.578 23.3439 137.9 22.6732 137.768 21.8682C136.314 10.465 125.082 12.6115 117.285 16.2337C115.303 17.1728 114.775 17.7094 114.907 19.051C115.039 20.2584 116.36 20.5267 117.418 20.2584C118.739 19.8559 119.4 18.3802 120.985 17.7094C126.139 15.2946 128.518 19.3193 129.443 23.8806C126.271 25.2221 117.418 26.832 114.378 27.3686C113.057 27.6369 112.792 28.576 112.528 29.3809C112.132 31.2591 111.867 33.1373 111.867 35.0155C111.735 37.2961 111.471 41.7232 109.489 41.9915C107.507 42.394 107.903 33.5397 107.903 31.6616C108.035 27.3686 108.432 23.3439 107.507 19.051C106.053 12.3432 98.5209 13.2823 93.1029 15.6971C90.1957 12.3432 84.5135 12.8798 79.3599 14.3555C78.0384 14.758 74.7348 15.5629 74.4705 17.3069C73.4134 27.6369 72.6205 38.7718 74.3384 49.1018C67.9955 46.687 62.5775 39.8451 61.1239 33.0031C66.674 32.1982 71.5634 30.0517 70.9026 23.2098C69.7133 11.4041 57.4239 10.3309 46.3237 15.2946C45.1344 15.8312 44.738 16.6362 44.3416 18.3802C42.7558 24.283 41.6987 35.4179 43.2844 44.6747C43.4166 45.3454 45.1344 46.2845 47.7773 46.2845C50.4202 46.2845 52.2703 45.6137 52.1381 44.6747C49.3631 33.6739 50.9488 21.1974 52.4024 16.502C63.899 15.4288 63.1061 27.6369 62.974 29.3809C62.7097 31.125 60.4632 31.3933 59.8025 29.5151C59.1418 27.7711 52.4024 29.1126 52.5345 32.7348C52.931 45.7479 65.3526 55.1388 77.642 53.2606C78.567 53.1265 83.8528 51.7849 83.5885 50.175C80.6813 39.7109 80.9456 28.4418 82.0028 17.7094C90.3279 13.9531 86.4957 38.6377 86.3636 44.943C86.3636 45.3454 87.5529 46.0162 90.5922 46.0162C93.3672 46.0162 94.5565 45.7479 94.5565 44.5405C94.6887 39.1743 94.8208 32.7348 94.8208 26.832C94.8208 25.088 94.9529 20.3925 93.8958 18.3802C100.503 15.1604 99.8423 27.6369 99.7102 30.0517C99.7102 34.3447 98.5208 41.3208 101.957 44.8088C104.599 47.4919 110.678 46.0162 113.982 42.9306C114.642 43.7356 115.567 44.5405 116.625 45.0771C120.589 47.3578 126.139 46.2845 130.896 44.4063C132.878 46.0162 136.182 45.8821 138.825 45.2113C140.146 44.943 142.525 44.138 143.318 42.6623C143.714 42.1257 143.45 41.5891 142.657 41.5891Z" fill="#FCFCFC"/>
<path d="M40.4937 39.5289C40.3608 38.3407 38.6336 38.3407 37.7035 38.4727C35.8434 38.7368 35.1791 40.849 32.7875 41.9052C31.326 42.5653 29.4659 42.6973 28.2701 42.3012C24.6828 41.1131 23.8856 38.2087 23.3541 35.0403C22.6898 30.4197 22.9555 24.3469 24.5499 19.8583C24.9485 18.6701 18.3053 17.0859 16.7109 20.9144C13.9207 27.9113 12.8578 39.0008 19.1024 44.2815C24.1513 48.506 31.9903 45.9977 37.5707 42.5653C38.6336 41.9052 40.6265 40.453 40.4937 39.5289Z" fill="#FCFCFC"/>
<path d="M7.6816 12.8564C10.8178 11.9133 11.2098 11.3743 11.2098 10.4312C11.2098 8.14064 11.4712 5.85013 12.6473 4.09856C14.2154 3.96382 16.4368 4.50277 18.2663 4.90698C20.3571 5.31118 21.7945 4.77224 23.1013 4.09856C23.2319 4.09856 26.4988 1.94278 25.1921 1.67331C15.7835 -1.29089 3.5 0.999629 3.5 12.7217C3.5 13.6648 4.67608 13.7996 7.6816 12.8564Z" fill="#FCFCFC"/>
<path d="M11.6002 17.2837C19.1586 15.5456 28.2809 14.3423 31.4085 22.3643C32.0601 23.9687 32.3207 25.7069 32.3207 27.445C32.3207 28.9157 31.9297 30.119 29.7143 29.7179C28.8021 29.5842 26.4564 28.3809 25.1532 29.1831C23.8501 29.9853 24.1107 33.1941 25.4139 33.0604C29.8447 32.793 39.7488 31.456 40.4004 25.4395C40.7913 21.5621 40.1398 18.0859 36.4909 15.1445C29.975 9.79652 12.2518 13.6738 1.82639 17.0163C0.653534 17.4174 0.132264 18.7544 0.783852 19.4229C1.56576 20.0914 3.52052 19.2892 3.3902 19.4229C2.47798 25.9743 2.47798 39.8791 3.12957 46.6978C3.12957 47.2326 4.04179 47.5 6.64814 47.5C9.25449 47.5 11.2093 46.8315 11.0789 45.7619C10.8183 37.2051 10.0364 26.108 11.6002 17.2837Z" fill="#FCFCFC"/>
<mask id="path-5-outside-1_206_421" maskUnits="userSpaceOnUse" x="151.5" y="13.5" width="104" height="33" fill="black">
<rect fill="white" x="151.5" y="13.5" width="104" height="33"/>
<path d="M158.182 24.0591C157.372 24.0591 156.64 23.8744 155.984 23.5052C155.329 23.124 154.805 22.582 154.412 21.8793C154.031 21.1646 153.84 20.295 153.84 19.2706C153.84 18.2462 154.031 17.3826 154.412 16.6798C154.793 15.9651 155.311 15.4232 155.967 15.0539C156.622 14.6846 157.36 14.5 158.182 14.5C159.076 14.5 159.874 14.7025 160.577 15.1075C161.292 15.5006 161.851 16.0604 162.256 16.787C162.662 17.5017 162.864 18.3296 162.864 19.2706C162.864 20.2235 162.662 21.0573 162.256 21.772C161.851 22.4867 161.292 23.0466 160.577 23.4516C159.874 23.8566 159.076 24.0591 158.182 24.0591ZM153.34 27.436V14.5893H154.555V17.4124L154.43 19.2885L154.609 21.1824V27.436H153.34ZM158.093 22.9334C158.76 22.9334 159.356 22.7845 159.88 22.4867C160.404 22.177 160.821 21.7482 161.131 21.2003C161.44 20.6404 161.595 19.9972 161.595 19.2706C161.595 18.544 161.44 17.9067 161.131 17.3588C160.821 16.8109 160.404 16.382 159.88 16.0723C159.356 15.7626 158.76 15.6078 158.093 15.6078C157.426 15.6078 156.824 15.7626 156.288 16.0723C155.764 16.382 155.347 16.8109 155.037 17.3588C154.74 17.9067 154.591 18.544 154.591 19.2706C154.591 19.9972 154.74 20.6404 155.037 21.2003C155.347 21.7482 155.764 22.177 156.288 22.4867C156.824 22.7845 157.426 22.9334 158.093 22.9334Z"/>
<path d="M169.61 24.0591C168.634 24.0591 167.776 23.8566 167.037 23.4516C166.299 23.0347 165.721 22.4689 165.304 21.7542C164.887 21.0276 164.679 20.1997 164.679 19.2706C164.679 18.3415 164.875 17.5196 165.268 16.8049C165.673 16.0902 166.221 15.5304 166.912 15.1254C167.615 14.7085 168.401 14.5 169.271 14.5C170.152 14.5 170.933 14.7025 171.612 15.1075C172.303 15.5006 172.845 16.0604 173.238 16.787C173.631 17.5017 173.828 18.3296 173.828 19.2706C173.828 19.3302 173.822 19.3957 173.81 19.4671C173.81 19.5267 173.81 19.5922 173.81 19.6637H165.644V18.7167H173.131L172.63 19.0919C172.63 18.413 172.481 17.8114 172.184 17.2873C171.898 16.7513 171.505 16.3344 171.004 16.0366C170.504 15.7388 169.926 15.5899 169.271 15.5899C168.628 15.5899 168.05 15.7388 167.538 16.0366C167.025 16.3344 166.626 16.7513 166.34 17.2873C166.055 17.8233 165.912 18.4368 165.912 19.1277V19.3242C165.912 20.0389 166.066 20.6702 166.376 21.2182C166.698 21.7542 167.139 22.177 167.698 22.4867C168.27 22.7845 168.92 22.9334 169.646 22.9334C170.218 22.9334 170.748 22.8322 171.237 22.6297C171.737 22.4272 172.166 22.1175 172.523 21.7006L173.238 22.5225C172.821 23.0228 172.297 23.4039 171.665 23.666C171.046 23.928 170.361 24.0591 169.61 24.0591Z"/>
<path d="M183.515 23.9697L179.656 19.3242L180.71 18.6988L185.016 23.9697H183.515ZM176.636 23.9697V14.5893H177.905V23.9697H176.636ZM177.511 19.7888V18.6988H180.531V19.7888H177.511ZM180.817 19.4135L179.638 19.2349L183.373 14.5893H184.748L180.817 19.4135Z"/>
<path d="M185.303 23.9519L185.393 22.862C185.476 22.8739 185.554 22.8917 185.625 22.9156C185.708 22.9275 185.78 22.9334 185.839 22.9334C186.221 22.9334 186.524 22.7905 186.751 22.5046C186.989 22.2187 187.168 21.8376 187.287 21.3611C187.406 20.8846 187.489 20.3486 187.537 19.753C187.585 19.1455 187.626 18.538 187.662 17.9305L187.823 14.5893H194.702V23.9697H193.434V15.3219L193.755 15.6971H188.645L188.949 15.304L188.806 18.0199C188.77 18.8299 188.704 19.6041 188.609 20.3427C188.526 21.0812 188.389 21.7304 188.198 22.2902C188.019 22.85 187.769 23.2908 187.448 23.6124C187.126 23.9221 186.715 24.0769 186.215 24.0769C186.072 24.0769 185.923 24.065 185.768 24.0412C185.625 24.0174 185.47 23.9876 185.303 23.9519Z"/>
<path d="M204.134 23.9697V21.8971L204.081 21.5576V18.0914C204.081 17.2933 203.854 16.6798 203.402 16.251C202.961 15.8222 202.3 15.6078 201.418 15.6078C200.811 15.6078 200.233 15.709 199.685 15.9115C199.137 16.114 198.672 16.382 198.291 16.7156L197.719 15.7686C198.196 15.3636 198.768 15.0539 199.435 14.8395C200.102 14.6132 200.805 14.5 201.543 14.5C202.759 14.5 203.694 14.8037 204.349 15.4112C205.016 16.0068 205.35 16.9181 205.35 18.145V23.9697H204.134ZM200.9 24.0591C200.197 24.0591 199.584 23.9459 199.06 23.7196C198.547 23.4814 198.154 23.1597 197.88 22.7548C197.606 22.3378 197.469 21.8614 197.469 21.3254C197.469 20.837 197.582 20.3963 197.809 20.0032C198.047 19.5982 198.428 19.2766 198.952 19.0383C199.488 18.7882 200.203 18.6631 201.097 18.6631H204.331V19.6101H201.132C200.227 19.6101 199.596 19.7709 199.238 20.0925C198.893 20.4141 198.72 20.8132 198.72 21.2896C198.72 21.8256 198.929 22.2545 199.346 22.5761C199.762 22.8977 200.346 23.0585 201.097 23.0585C201.811 23.0585 202.425 22.8977 202.937 22.5761C203.461 22.2426 203.843 21.7661 204.081 21.1467L204.367 22.0222C204.128 22.6416 203.712 23.1359 203.116 23.5052C202.532 23.8744 201.794 24.0591 200.9 24.0591Z"/>
<path d="M208.727 23.9697V14.5893H210.013L214.266 21.7899H213.73L218.055 14.5893H219.234V23.9697H218.072V16.0366L218.305 16.1438L214.266 22.8262H213.694L209.62 16.0723L209.888 16.0187V23.9697H208.727Z"/>
<path d="M222.844 23.9697V14.5893H224.113V18.7346H230.028V14.5893H231.296V23.9697H230.028V19.8245H224.113V23.9697H222.844Z"/>
<path d="M238.762 24.0591C237.857 24.0591 237.041 23.8566 236.314 23.4516C235.599 23.0347 235.033 22.4689 234.616 21.7542C234.199 21.0276 233.991 20.1997 233.991 19.2706C233.991 18.3296 234.199 17.5017 234.616 16.787C235.033 16.0723 235.599 15.5125 236.314 15.1075C237.029 14.7025 237.845 14.5 238.762 14.5C239.691 14.5 240.513 14.7025 241.228 15.1075C241.955 15.5125 242.52 16.0723 242.925 16.787C243.342 17.5017 243.551 18.3296 243.551 19.2706C243.551 20.1997 243.342 21.0276 242.925 21.7542C242.52 22.4689 241.955 23.0347 241.228 23.4516C240.501 23.8566 239.679 24.0591 238.762 24.0591ZM238.762 22.9334C239.441 22.9334 240.043 22.7845 240.567 22.4867C241.091 22.177 241.502 21.7482 241.8 21.2003C242.109 20.6404 242.264 19.9972 242.264 19.2706C242.264 18.5321 242.109 17.8889 241.8 17.3409C241.502 16.793 241.091 16.3701 240.567 16.0723C240.043 15.7626 239.447 15.6078 238.78 15.6078C238.113 15.6078 237.517 15.7626 236.993 16.0723C236.469 16.3701 236.052 16.793 235.742 17.3409C235.432 17.8889 235.278 18.5321 235.278 19.2706C235.278 19.9972 235.432 20.6404 235.742 21.2003C236.052 21.7482 236.469 22.177 236.993 22.4867C237.517 22.7845 238.107 22.9334 238.762 22.9334Z"/>
<path d="M250.283 24.0591C249.306 24.0591 248.448 23.8566 247.71 23.4516C246.971 23.0347 246.393 22.4689 245.976 21.7542C245.56 21.0276 245.351 20.1997 245.351 19.2706C245.351 18.3415 245.548 17.5196 245.941 16.8049C246.346 16.0902 246.894 15.5304 247.585 15.1254C248.288 14.7085 249.074 14.5 249.943 14.5C250.825 14.5 251.605 14.7025 252.284 15.1075C252.975 15.5006 253.517 16.0604 253.91 16.787C254.303 17.5017 254.5 18.3296 254.5 19.2706C254.5 19.3302 254.494 19.3957 254.482 19.4671C254.482 19.5267 254.482 19.5922 254.482 19.6637H246.316V18.7167H253.803L253.303 19.0919C253.303 18.413 253.154 17.8114 252.856 17.2873C252.57 16.7513 252.177 16.3344 251.677 16.0366C251.176 15.7388 250.599 15.5899 249.943 15.5899C249.3 15.5899 248.722 15.7388 248.21 16.0366C247.698 16.3344 247.299 16.7513 247.013 17.2873C246.727 17.8233 246.584 18.4368 246.584 19.1277V19.3242C246.584 20.0389 246.739 20.6702 247.049 21.2182C247.37 21.7542 247.811 22.177 248.371 22.4867C248.943 22.7845 249.592 22.9334 250.319 22.9334C250.89 22.9334 251.421 22.8322 251.909 22.6297C252.409 22.4272 252.838 22.1175 253.196 21.7006L253.91 22.5225C253.493 23.0228 252.969 23.4039 252.338 23.666C251.718 23.928 251.033 24.0591 250.283 24.0591Z"/>
<path d="M159.165 45.4107V43.338L159.112 42.9986V39.5323C159.112 38.7342 158.885 38.1207 158.433 37.6919C157.992 37.2631 157.331 37.0487 156.449 37.0487C155.842 37.0487 155.264 37.1499 154.716 37.3524C154.168 37.5549 153.703 37.823 153.322 38.1565L152.75 37.2095C153.227 36.8045 153.798 36.4948 154.466 36.2804C155.133 36.0541 155.836 35.9409 156.574 35.9409C157.789 35.9409 158.724 36.2447 159.38 36.8522C160.047 37.4477 160.38 38.359 160.38 39.5859V45.4107H159.165ZM155.931 45.5C155.228 45.5 154.615 45.3868 154.09 45.1605C153.578 44.9223 153.185 44.6007 152.911 44.1957C152.637 43.7788 152.5 43.3023 152.5 42.7663C152.5 42.2779 152.613 41.8372 152.84 41.4441C153.078 41.0391 153.459 40.7175 153.983 40.4792C154.519 40.2291 155.234 40.104 156.127 40.104H159.362V41.051H156.163C155.258 41.051 154.626 41.2118 154.269 41.5334C153.924 41.855 153.751 42.2541 153.751 42.7305C153.751 43.2666 153.959 43.6954 154.376 44.017C154.793 44.3386 155.377 44.4994 156.127 44.4994C156.842 44.4994 157.456 44.3386 157.968 44.017C158.492 43.6835 158.873 43.207 159.112 42.5876L159.397 43.4631C159.159 44.0825 158.742 44.5768 158.147 44.9461C157.563 45.3154 156.824 45.5 155.931 45.5Z"/>
<path d="M163.758 45.4107V36.0303H170.405V37.138H164.705L165.026 36.8164V45.4107H163.758Z"/>
<path d="M175.823 45.5C174.846 45.5 173.988 45.2975 173.25 44.8925C172.511 44.4756 171.933 43.9098 171.516 43.1951C171.099 42.4685 170.891 41.6406 170.891 40.7115C170.891 39.7824 171.087 38.9605 171.481 38.2458C171.886 37.5311 172.434 36.9713 173.125 36.5663C173.827 36.1494 174.614 35.9409 175.483 35.9409C176.365 35.9409 177.145 36.1434 177.824 36.5484C178.515 36.9415 179.057 37.5013 179.45 38.228C179.843 38.9426 180.04 39.7705 180.04 40.7115C180.04 40.7711 180.034 40.8366 180.022 40.9081C180.022 40.9676 180.022 41.0331 180.022 41.1046H171.856V40.1576H179.343L178.843 40.5329C178.843 39.8539 178.694 39.2524 178.396 38.7282C178.11 38.1922 177.717 37.7753 177.217 37.4775C176.716 37.1797 176.138 37.0308 175.483 37.0308C174.84 37.0308 174.262 37.1797 173.75 37.4775C173.238 37.7753 172.839 38.1922 172.553 38.7282C172.267 39.2643 172.124 39.8777 172.124 40.5686V40.7651C172.124 41.4798 172.279 42.1111 172.588 42.6591C172.91 43.1951 173.351 43.618 173.911 43.9277C174.483 44.2255 175.132 44.3743 175.858 44.3743C176.43 44.3743 176.96 44.2731 177.449 44.0706C177.949 43.8681 178.378 43.5584 178.735 43.1415L179.45 43.9634C179.033 44.4637 178.509 44.8449 177.878 45.1069C177.258 45.369 176.573 45.5 175.823 45.5Z"/>
<path d="M182.848 45.4107V36.0303H184.117V40.1755H190.032V36.0303H191.3V45.4107H190.032V41.2654H184.117V45.4107H182.848Z"/>
<path d="M196.693 45.4107V36.7986L197.015 37.138H193.137V36.0303H201.518V37.138H197.64L197.962 36.7986V45.4107H196.693Z"/>
<path d="M206.847 45.5C205.918 45.5 205.084 45.2975 204.345 44.8925C203.619 44.4756 203.047 43.9098 202.63 43.1951C202.213 42.4685 202.005 41.6406 202.005 40.7115C202.005 39.7705 202.213 38.9426 202.63 38.228C203.047 37.5133 203.619 36.9534 204.345 36.5484C205.084 36.1434 205.918 35.9409 206.847 35.9409C207.645 35.9409 208.366 36.0958 209.009 36.4055C209.653 36.7152 210.159 37.1797 210.528 37.7991L209.581 38.4424C209.259 37.9659 208.86 37.6145 208.384 37.3882C207.907 37.1619 207.389 37.0487 206.829 37.0487C206.162 37.0487 205.561 37.2036 205.025 37.5133C204.488 37.811 204.066 38.2339 203.756 38.7818C203.446 39.3298 203.291 39.973 203.291 40.7115C203.291 41.45 203.446 42.0933 203.756 42.6412C204.066 43.1891 204.488 43.618 205.025 43.9277C205.561 44.2255 206.162 44.3743 206.829 44.3743C207.389 44.3743 207.907 44.2612 208.384 44.0349C208.86 43.8085 209.259 43.4631 209.581 42.9986L210.528 43.6418C210.159 44.2493 209.653 44.7138 209.009 45.0354C208.366 45.3451 207.645 45.5 206.847 45.5Z"/>
<path d="M214.597 45.4107V36.7986L214.919 37.138H211.041V36.0303H219.422V37.138H215.544L215.866 36.7986V45.4107H214.597Z"/>
<path d="M221.256 45.4107V36.0303H225.402C226.462 36.0303 227.296 36.2328 227.903 36.6378C228.523 37.0427 228.833 37.6383 228.833 38.4245C228.833 39.1868 228.541 39.7765 227.957 40.1934C227.373 40.5984 226.605 40.8009 225.652 40.8009L225.902 40.4256C227.022 40.4256 227.844 40.6341 228.368 41.051C228.892 41.4679 229.154 42.0695 229.154 42.8556C229.154 43.6656 228.856 44.2969 228.261 44.7496C227.677 45.1903 226.766 45.4107 225.527 45.4107H221.256ZM222.489 44.4101H225.473C226.271 44.4101 226.873 44.285 227.278 44.0349C227.695 43.7728 227.903 43.3559 227.903 42.7841C227.903 42.2124 227.719 41.7955 227.35 41.5334C226.98 41.2714 226.397 41.1403 225.598 41.1403H222.489V44.4101ZM222.489 40.1934H225.312C226.039 40.1934 226.593 40.0564 226.974 39.7824C227.367 39.5085 227.564 39.1094 227.564 38.5853C227.564 38.0612 227.367 37.6681 226.974 37.4061C226.593 37.144 226.039 37.013 225.312 37.013H222.489V40.1934Z"/>
<path d="M235.987 45.5C235.082 45.5 234.266 45.2975 233.539 44.8925C232.825 44.4756 232.259 43.9098 231.842 43.1951C231.425 42.4685 231.216 41.6406 231.216 40.7115C231.216 39.7705 231.425 38.9426 231.842 38.228C232.259 37.5133 232.825 36.9534 233.539 36.5484C234.254 36.1434 235.07 35.9409 235.987 35.9409C236.917 35.9409 237.739 36.1434 238.453 36.5484C239.18 36.9534 239.746 37.5133 240.151 38.228C240.568 38.9426 240.776 39.7705 240.776 40.7115C240.776 41.6406 240.568 42.4685 240.151 43.1951C239.746 43.9098 239.18 44.4756 238.453 44.8925C237.727 45.2975 236.905 45.5 235.987 45.5ZM235.987 44.3743C236.666 44.3743 237.268 44.2255 237.792 43.9277C238.316 43.618 238.727 43.1891 239.025 42.6412C239.335 42.0814 239.49 41.4381 239.49 40.7115C239.49 39.973 239.335 39.3298 239.025 38.7818C238.727 38.2339 238.316 37.811 237.792 37.5133C237.268 37.2036 236.672 37.0487 236.005 37.0487C235.338 37.0487 234.743 37.2036 234.218 37.5133C233.694 37.811 233.277 38.2339 232.968 38.7818C232.658 39.3298 232.503 39.973 232.503 40.7115C232.503 41.4381 232.658 42.0814 232.968 42.6412C233.277 43.1891 233.694 43.618 234.218 43.9277C234.743 44.2255 235.332 44.3743 235.987 44.3743Z"/>
</mask>
<path d="M158.182 24.0591C157.372 24.0591 156.64 23.8744 155.984 23.5052C155.329 23.124 154.805 22.582 154.412 21.8793C154.031 21.1646 153.84 20.295 153.84 19.2706C153.84 18.2462 154.031 17.3826 154.412 16.6798C154.793 15.9651 155.311 15.4232 155.967 15.0539C156.622 14.6846 157.36 14.5 158.182 14.5C159.076 14.5 159.874 14.7025 160.577 15.1075C161.292 15.5006 161.851 16.0604 162.256 16.787C162.662 17.5017 162.864 18.3296 162.864 19.2706C162.864 20.2235 162.662 21.0573 162.256 21.772C161.851 22.4867 161.292 23.0466 160.577 23.4516C159.874 23.8566 159.076 24.0591 158.182 24.0591ZM153.34 27.436V14.5893H154.555V17.4124L154.43 19.2885L154.609 21.1824V27.436H153.34ZM158.093 22.9334C158.76 22.9334 159.356 22.7845 159.88 22.4867C160.404 22.177 160.821 21.7482 161.131 21.2003C161.44 20.6404 161.595 19.9972 161.595 19.2706C161.595 18.544 161.44 17.9067 161.131 17.3588C160.821 16.8109 160.404 16.382 159.88 16.0723C159.356 15.7626 158.76 15.6078 158.093 15.6078C157.426 15.6078 156.824 15.7626 156.288 16.0723C155.764 16.382 155.347 16.8109 155.037 17.3588C154.74 17.9067 154.591 18.544 154.591 19.2706C154.591 19.9972 154.74 20.6404 155.037 21.2003C155.347 21.7482 155.764 22.177 156.288 22.4867C156.824 22.7845 157.426 22.9334 158.093 22.9334Z" fill="#FCFCFC"/>
<path d="M169.61 24.0591C168.634 24.0591 167.776 23.8566 167.037 23.4516C166.299 23.0347 165.721 22.4689 165.304 21.7542C164.887 21.0276 164.679 20.1997 164.679 19.2706C164.679 18.3415 164.875 17.5196 165.268 16.8049C165.673 16.0902 166.221 15.5304 166.912 15.1254C167.615 14.7085 168.401 14.5 169.271 14.5C170.152 14.5 170.933 14.7025 171.612 15.1075C172.303 15.5006 172.845 16.0604 173.238 16.787C173.631 17.5017 173.828 18.3296 173.828 19.2706C173.828 19.3302 173.822 19.3957 173.81 19.4671C173.81 19.5267 173.81 19.5922 173.81 19.6637H165.644V18.7167H173.131L172.63 19.0919C172.63 18.413 172.481 17.8114 172.184 17.2873C171.898 16.7513 171.505 16.3344 171.004 16.0366C170.504 15.7388 169.926 15.5899 169.271 15.5899C168.628 15.5899 168.05 15.7388 167.538 16.0366C167.025 16.3344 166.626 16.7513 166.34 17.2873C166.055 17.8233 165.912 18.4368 165.912 19.1277V19.3242C165.912 20.0389 166.066 20.6702 166.376 21.2182C166.698 21.7542 167.139 22.177 167.698 22.4867C168.27 22.7845 168.92 22.9334 169.646 22.9334C170.218 22.9334 170.748 22.8322 171.237 22.6297C171.737 22.4272 172.166 22.1175 172.523 21.7006L173.238 22.5225C172.821 23.0228 172.297 23.4039 171.665 23.666C171.046 23.928 170.361 24.0591 169.61 24.0591Z" fill="#FCFCFC"/>
<path d="M183.515 23.9697L179.656 19.3242L180.71 18.6988L185.016 23.9697H183.515ZM176.636 23.9697V14.5893H177.905V23.9697H176.636ZM177.511 19.7888V18.6988H180.531V19.7888H177.511ZM180.817 19.4135L179.638 19.2349L183.373 14.5893H184.748L180.817 19.4135Z" fill="#FCFCFC"/>
<path d="M185.303 23.9519L185.393 22.862C185.476 22.8739 185.554 22.8917 185.625 22.9156C185.708 22.9275 185.78 22.9334 185.839 22.9334C186.221 22.9334 186.524 22.7905 186.751 22.5046C186.989 22.2187 187.168 21.8376 187.287 21.3611C187.406 20.8846 187.489 20.3486 187.537 19.753C187.585 19.1455 187.626 18.538 187.662 17.9305L187.823 14.5893H194.702V23.9697H193.434V15.3219L193.755 15.6971H188.645L188.949 15.304L188.806 18.0199C188.77 18.8299 188.704 19.6041 188.609 20.3427C188.526 21.0812 188.389 21.7304 188.198 22.2902C188.019 22.85 187.769 23.2908 187.448 23.6124C187.126 23.9221 186.715 24.0769 186.215 24.0769C186.072 24.0769 185.923 24.065 185.768 24.0412C185.625 24.0174 185.47 23.9876 185.303 23.9519Z" fill="#FCFCFC"/>
<path d="M204.134 23.9697V21.8971L204.081 21.5576V18.0914C204.081 17.2933 203.854 16.6798 203.402 16.251C202.961 15.8222 202.3 15.6078 201.418 15.6078C200.811 15.6078 200.233 15.709 199.685 15.9115C199.137 16.114 198.672 16.382 198.291 16.7156L197.719 15.7686C198.196 15.3636 198.768 15.0539 199.435 14.8395C200.102 14.6132 200.805 14.5 201.543 14.5C202.759 14.5 203.694 14.8037 204.349 15.4112C205.016 16.0068 205.35 16.9181 205.35 18.145V23.9697H204.134ZM200.9 24.0591C200.197 24.0591 199.584 23.9459 199.06 23.7196C198.547 23.4814 198.154 23.1597 197.88 22.7548C197.606 22.3378 197.469 21.8614 197.469 21.3254C197.469 20.837 197.582 20.3963 197.809 20.0032C198.047 19.5982 198.428 19.2766 198.952 19.0383C199.488 18.7882 200.203 18.6631 201.097 18.6631H204.331V19.6101H201.132C200.227 19.6101 199.596 19.7709 199.238 20.0925C198.893 20.4141 198.72 20.8132 198.72 21.2896C198.72 21.8256 198.929 22.2545 199.346 22.5761C199.762 22.8977 200.346 23.0585 201.097 23.0585C201.811 23.0585 202.425 22.8977 202.937 22.5761C203.461 22.2426 203.843 21.7661 204.081 21.1467L204.367 22.0222C204.128 22.6416 203.712 23.1359 203.116 23.5052C202.532 23.8744 201.794 24.0591 200.9 24.0591Z" fill="#FCFCFC"/>
<path d="M208.727 23.9697V14.5893H210.013L214.266 21.7899H213.73L218.055 14.5893H219.234V23.9697H218.072V16.0366L218.305 16.1438L214.266 22.8262H213.694L209.62 16.0723L209.888 16.0187V23.9697H208.727Z" fill="#FCFCFC"/>
<path d="M222.844 23.9697V14.5893H224.113V18.7346H230.028V14.5893H231.296V23.9697H230.028V19.8245H224.113V23.9697H222.844Z" fill="#FCFCFC"/>
<path d="M238.762 24.0591C237.857 24.0591 237.041 23.8566 236.314 23.4516C235.599 23.0347 235.033 22.4689 234.616 21.7542C234.199 21.0276 233.991 20.1997 233.991 19.2706C233.991 18.3296 234.199 17.5017 234.616 16.787C235.033 16.0723 235.599 15.5125 236.314 15.1075C237.029 14.7025 237.845 14.5 238.762 14.5C239.691 14.5 240.513 14.7025 241.228 15.1075C241.955 15.5125 242.52 16.0723 242.925 16.787C243.342 17.5017 243.551 18.3296 243.551 19.2706C243.551 20.1997 243.342 21.0276 242.925 21.7542C242.52 22.4689 241.955 23.0347 241.228 23.4516C240.501 23.8566 239.679 24.0591 238.762 24.0591ZM238.762 22.9334C239.441 22.9334 240.043 22.7845 240.567 22.4867C241.091 22.177 241.502 21.7482 241.8 21.2003C242.109 20.6404 242.264 19.9972 242.264 19.2706C242.264 18.5321 242.109 17.8889 241.8 17.3409C241.502 16.793 241.091 16.3701 240.567 16.0723C240.043 15.7626 239.447 15.6078 238.78 15.6078C238.113 15.6078 237.517 15.7626 236.993 16.0723C236.469 16.3701 236.052 16.793 235.742 17.3409C235.432 17.8889 235.278 18.5321 235.278 19.2706C235.278 19.9972 235.432 20.6404 235.742 21.2003C236.052 21.7482 236.469 22.177 236.993 22.4867C237.517 22.7845 238.107 22.9334 238.762 22.9334Z" fill="#FCFCFC"/>
<path d="M250.283 24.0591C249.306 24.0591 248.448 23.8566 247.71 23.4516C246.971 23.0347 246.393 22.4689 245.976 21.7542C245.56 21.0276 245.351 20.1997 245.351 19.2706C245.351 18.3415 245.548 17.5196 245.941 16.8049C246.346 16.0902 246.894 15.5304 247.585 15.1254C248.288 14.7085 249.074 14.5 249.943 14.5C250.825 14.5 251.605 14.7025 252.284 15.1075C252.975 15.5006 253.517 16.0604 253.91 16.787C254.303 17.5017 254.5 18.3296 254.5 19.2706C254.5 19.3302 254.494 19.3957 254.482 19.4671C254.482 19.5267 254.482 19.5922 254.482 19.6637H246.316V18.7167H253.803L253.303 19.0919C253.303 18.413 253.154 17.8114 252.856 17.2873C252.57 16.7513 252.177 16.3344 251.677 16.0366C251.176 15.7388 250.599 15.5899 249.943 15.5899C249.3 15.5899 248.722 15.7388 248.21 16.0366C247.698 16.3344 247.299 16.7513 247.013 17.2873C246.727 17.8233 246.584 18.4368 246.584 19.1277V19.3242C246.584 20.0389 246.739 20.6702 247.049 21.2182C247.37 21.7542 247.811 22.177 248.371 22.4867C248.943 22.7845 249.592 22.9334 250.319 22.9334C250.89 22.9334 251.421 22.8322 251.909 22.6297C252.409 22.4272 252.838 22.1175 253.196 21.7006L253.91 22.5225C253.493 23.0228 252.969 23.4039 252.338 23.666C251.718 23.928 251.033 24.0591 250.283 24.0591Z" fill="#FCFCFC"/>
<path d="M159.165 45.4107V43.338L159.112 42.9986V39.5323C159.112 38.7342 158.885 38.1207 158.433 37.6919C157.992 37.2631 157.331 37.0487 156.449 37.0487C155.842 37.0487 155.264 37.1499 154.716 37.3524C154.168 37.5549 153.703 37.823 153.322 38.1565L152.75 37.2095C153.227 36.8045 153.798 36.4948 154.466 36.2804C155.133 36.0541 155.836 35.9409 156.574 35.9409C157.789 35.9409 158.724 36.2447 159.38 36.8522C160.047 37.4477 160.38 38.359 160.38 39.5859V45.4107H159.165ZM155.931 45.5C155.228 45.5 154.615 45.3868 154.09 45.1605C153.578 44.9223 153.185 44.6007 152.911 44.1957C152.637 43.7788 152.5 43.3023 152.5 42.7663C152.5 42.2779 152.613 41.8372 152.84 41.4441C153.078 41.0391 153.459 40.7175 153.983 40.4792C154.519 40.2291 155.234 40.104 156.127 40.104H159.362V41.051H156.163C155.258 41.051 154.626 41.2118 154.269 41.5334C153.924 41.855 153.751 42.2541 153.751 42.7305C153.751 43.2666 153.959 43.6954 154.376 44.017C154.793 44.3386 155.377 44.4994 156.127 44.4994C156.842 44.4994 157.456 44.3386 157.968 44.017C158.492 43.6835 158.873 43.207 159.112 42.5876L159.397 43.4631C159.159 44.0825 158.742 44.5768 158.147 44.9461C157.563 45.3154 156.824 45.5 155.931 45.5Z" fill="#FCFCFC"/>
<path d="M163.758 45.4107V36.0303H170.405V37.138H164.705L165.026 36.8164V45.4107H163.758Z" fill="#FCFCFC"/>
<path d="M175.823 45.5C174.846 45.5 173.988 45.2975 173.25 44.8925C172.511 44.4756 171.933 43.9098 171.516 43.1951C171.099 42.4685 170.891 41.6406 170.891 40.7115C170.891 39.7824 171.087 38.9605 171.481 38.2458C171.886 37.5311 172.434 36.9713 173.125 36.5663C173.827 36.1494 174.614 35.9409 175.483 35.9409C176.365 35.9409 177.145 36.1434 177.824 36.5484C178.515 36.9415 179.057 37.5013 179.45 38.228C179.843 38.9426 180.04 39.7705 180.04 40.7115C180.04 40.7711 180.034 40.8366 180.022 40.9081C180.022 40.9676 180.022 41.0331 180.022 41.1046H171.856V40.1576H179.343L178.843 40.5329C178.843 39.8539 178.694 39.2524 178.396 38.7282C178.11 38.1922 177.717 37.7753 177.217 37.4775C176.716 37.1797 176.138 37.0308 175.483 37.0308C174.84 37.0308 174.262 37.1797 173.75 37.4775C173.238 37.7753 172.839 38.1922 172.553 38.7282C172.267 39.2643 172.124 39.8777 172.124 40.5686V40.7651C172.124 41.4798 172.279 42.1111 172.588 42.6591C172.91 43.1951 173.351 43.618 173.911 43.9277C174.483 44.2255 175.132 44.3743 175.858 44.3743C176.43 44.3743 176.96 44.2731 177.449 44.0706C177.949 43.8681 178.378 43.5584 178.735 43.1415L179.45 43.9634C179.033 44.4637 178.509 44.8449 177.878 45.1069C177.258 45.369 176.573 45.5 175.823 45.5Z" fill="#FCFCFC"/>
<path d="M182.848 45.4107V36.0303H184.117V40.1755H190.032V36.0303H191.3V45.4107H190.032V41.2654H184.117V45.4107H182.848Z" fill="#FCFCFC"/>
<path d="M196.693 45.4107V36.7986L197.015 37.138H193.137V36.0303H201.518V37.138H197.64L197.962 36.7986V45.4107H196.693Z" fill="#FCFCFC"/>
<path d="M206.847 45.5C205.918 45.5 205.084 45.2975 204.345 44.8925C203.619 44.4756 203.047 43.9098 202.63 43.1951C202.213 42.4685 202.005 41.6406 202.005 40.7115C202.005 39.7705 202.213 38.9426 202.63 38.228C203.047 37.5133 203.619 36.9534 204.345 36.5484C205.084 36.1434 205.918 35.9409 206.847 35.9409C207.645 35.9409 208.366 36.0958 209.009 36.4055C209.653 36.7152 210.159 37.1797 210.528 37.7991L209.581 38.4424C209.259 37.9659 208.86 37.6145 208.384 37.3882C207.907 37.1619 207.389 37.0487 206.829 37.0487C206.162 37.0487 205.561 37.2036 205.025 37.5133C204.488 37.811 204.066 38.2339 203.756 38.7818C203.446 39.3298 203.291 39.973 203.291 40.7115C203.291 41.45 203.446 42.0933 203.756 42.6412C204.066 43.1891 204.488 43.618 205.025 43.9277C205.561 44.2255 206.162 44.3743 206.829 44.3743C207.389 44.3743 207.907 44.2612 208.384 44.0349C208.86 43.8085 209.259 43.4631 209.581 42.9986L210.528 43.6418C210.159 44.2493 209.653 44.7138 209.009 45.0354C208.366 45.3451 207.645 45.5 206.847 45.5Z" fill="#FCFCFC"/>
<path d="M214.597 45.4107V36.7986L214.919 37.138H211.041V36.0303H219.422V37.138H215.544L215.866 36.7986V45.4107H214.597Z" fill="#FCFCFC"/>
<path d="M221.256 45.4107V36.0303H225.402C226.462 36.0303 227.296 36.2328 227.903 36.6378C228.523 37.0427 228.833 37.6383 228.833 38.4245C228.833 39.1868 228.541 39.7765 227.957 40.1934C227.373 40.5984 226.605 40.8009 225.652 40.8009L225.902 40.4256C227.022 40.4256 227.844 40.6341 228.368 41.051C228.892 41.4679 229.154 42.0695 229.154 42.8556C229.154 43.6656 228.856 44.2969 228.261 44.7496C227.677 45.1903 226.766 45.4107 225.527 45.4107H221.256ZM222.489 44.4101H225.473C226.271 44.4101 226.873 44.285 227.278 44.0349C227.695 43.7728 227.903 43.3559 227.903 42.7841C227.903 42.2124 227.719 41.7955 227.35 41.5334C226.98 41.2714 226.397 41.1403 225.598 41.1403H222.489V44.4101ZM222.489 40.1934H225.312C226.039 40.1934 226.593 40.0564 226.974 39.7824C227.367 39.5085 227.564 39.1094 227.564 38.5853C227.564 38.0612 227.367 37.6681 226.974 37.4061C226.593 37.144 226.039 37.013 225.312 37.013H222.489V40.1934Z" fill="#FCFCFC"/>
<path d="M235.987 45.5C235.082 45.5 234.266 45.2975 233.539 44.8925C232.825 44.4756 232.259 43.9098 231.842 43.1951C231.425 42.4685 231.216 41.6406 231.216 40.7115C231.216 39.7705 231.425 38.9426 231.842 38.228C232.259 37.5133 232.825 36.9534 233.539 36.5484C234.254 36.1434 235.07 35.9409 235.987 35.9409C236.917 35.9409 237.739 36.1434 238.453 36.5484C239.18 36.9534 239.746 37.5133 240.151 38.228C240.568 38.9426 240.776 39.7705 240.776 40.7115C240.776 41.6406 240.568 42.4685 240.151 43.1951C239.746 43.9098 239.18 44.4756 238.453 44.8925C237.727 45.2975 236.905 45.5 235.987 45.5ZM235.987 44.3743C236.666 44.3743 237.268 44.2255 237.792 43.9277C238.316 43.618 238.727 43.1891 239.025 42.6412C239.335 42.0814 239.49 41.4381 239.49 40.7115C239.49 39.973 239.335 39.3298 239.025 38.7818C238.727 38.2339 238.316 37.811 237.792 37.5133C237.268 37.2036 236.672 37.0487 236.005 37.0487C235.338 37.0487 234.743 37.2036 234.218 37.5133C233.694 37.811 233.277 38.2339 232.968 38.7818C232.658 39.3298 232.503 39.973 232.503 40.7115C232.503 41.4381 232.658 42.0814 232.968 42.6412C233.277 43.1891 233.694 43.618 234.218 43.9277C234.743 44.2255 235.332 44.3743 235.987 44.3743Z" fill="#FCFCFC"/>
<path d="M158.182 24.0591C157.372 24.0591 156.64 23.8744 155.984 23.5052C155.329 23.124 154.805 22.582 154.412 21.8793C154.031 21.1646 153.84 20.295 153.84 19.2706C153.84 18.2462 154.031 17.3826 154.412 16.6798C154.793 15.9651 155.311 15.4232 155.967 15.0539C156.622 14.6846 157.36 14.5 158.182 14.5C159.076 14.5 159.874 14.7025 160.577 15.1075C161.292 15.5006 161.851 16.0604 162.256 16.787C162.662 17.5017 162.864 18.3296 162.864 19.2706C162.864 20.2235 162.662 21.0573 162.256 21.772C161.851 22.4867 161.292 23.0466 160.577 23.4516C159.874 23.8566 159.076 24.0591 158.182 24.0591ZM153.34 27.436V14.5893H154.555V17.4124L154.43 19.2885L154.609 21.1824V27.436H153.34ZM158.093 22.9334C158.76 22.9334 159.356 22.7845 159.88 22.4867C160.404 22.177 160.821 21.7482 161.131 21.2003C161.44 20.6404 161.595 19.9972 161.595 19.2706C161.595 18.544 161.44 17.9067 161.131 17.3588C160.821 16.8109 160.404 16.382 159.88 16.0723C159.356 15.7626 158.76 15.6078 158.093 15.6078C157.426 15.6078 156.824 15.7626 156.288 16.0723C155.764 16.382 155.347 16.8109 155.037 17.3588C154.74 17.9067 154.591 18.544 154.591 19.2706C154.591 19.9972 154.74 20.6404 155.037 21.2003C155.347 21.7482 155.764 22.177 156.288 22.4867C156.824 22.7845 157.426 22.9334 158.093 22.9334Z" stroke="#FCFCFC" stroke-width="0.6" mask="url(#path-5-outside-1_206_421)"/>
<path d="M169.61 24.0591C168.634 24.0591 167.776 23.8566 167.037 23.4516C166.299 23.0347 165.721 22.4689 165.304 21.7542C164.887 21.0276 164.679 20.1997 164.679 19.2706C164.679 18.3415 164.875 17.5196 165.268 16.8049C165.673 16.0902 166.221 15.5304 166.912 15.1254C167.615 14.7085 168.401 14.5 169.271 14.5C170.152 14.5 170.933 14.7025 171.612 15.1075C172.303 15.5006 172.845 16.0604 173.238 16.787C173.631 17.5017 173.828 18.3296 173.828 19.2706C173.828 19.3302 173.822 19.3957 173.81 19.4671C173.81 19.5267 173.81 19.5922 173.81 19.6637H165.644V18.7167H173.131L172.63 19.0919C172.63 18.413 172.481 17.8114 172.184 17.2873C171.898 16.7513 171.505 16.3344 171.004 16.0366C170.504 15.7388 169.926 15.5899 169.271 15.5899C168.628 15.5899 168.05 15.7388 167.538 16.0366C167.025 16.3344 166.626 16.7513 166.34 17.2873C166.055 17.8233 165.912 18.4368 165.912 19.1277V19.3242C165.912 20.0389 166.066 20.6702 166.376 21.2182C166.698 21.7542 167.139 22.177 167.698 22.4867C168.27 22.7845 168.92 22.9334 169.646 22.9334C170.218 22.9334 170.748 22.8322 171.237 22.6297C171.737 22.4272 172.166 22.1175 172.523 21.7006L173.238 22.5225C172.821 23.0228 172.297 23.4039 171.665 23.666C171.046 23.928 170.361 24.0591 169.61 24.0591Z" stroke="#FCFCFC" stroke-width="0.6" mask="url(#path-5-outside-1_206_421)"/>
<path d="M183.515 23.9697L179.656 19.3242L180.71 18.6988L185.016 23.9697H183.515ZM176.636 23.9697V14.5893H177.905V23.9697H176.636ZM177.511 19.7888V18.6988H180.531V19.7888H177.511ZM180.817 19.4135L179.638 19.2349L183.373 14.5893H184.748L180.817 19.4135Z" stroke="#FCFCFC" stroke-width="0.6" mask="url(#path-5-outside-1_206_421)"/>
<path d="M185.303 23.9519L185.393 22.862C185.476 22.8739 185.554 22.8917 185.625 22.9156C185.708 22.9275 185.78 22.9334 185.839 22.9334C186.221 22.9334 186.524 22.7905 186.751 22.5046C186.989 22.2187 187.168 21.8376 187.287 21.3611C187.406 20.8846 187.489 20.3486 187.537 19.753C187.585 19.1455 187.626 18.538 187.662 17.9305L187.823 14.5893H194.702V23.9697H193.434V15.3219L193.755 15.6971H188.645L188.949 15.304L188.806 18.0199C188.77 18.8299 188.704 19.6041 188.609 20.3427C188.526 21.0812 188.389 21.7304 188.198 22.2902C188.019 22.85 187.769 23.2908 187.448 23.6124C187.126 23.9221 186.715 24.0769 186.215 24.0769C186.072 24.0769 185.923 24.065 185.768 24.0412C185.625 24.0174 185.47 23.9876 185.303 23.9519Z" stroke="#FCFCFC" stroke-width="0.6" mask="url(#path-5-outside-1_206_421)"/>
<path d="M204.134 23.9697V21.8971L204.081 21.5576V18.0914C204.081 17.2933 203.854 16.6798 203.402 16.251C202.961 15.8222 202.3 15.6078 201.418 15.6078C200.811 15.6078 200.233 15.709 199.685 15.9115C199.137 16.114 198.672 16.382 198.291 16.7156L197.719 15.7686C198.196 15.3636 198.768 15.0539 199.435 14.8395C200.102 14.6132 200.805 14.5 201.543 14.5C202.759 14.5 203.694 14.8037 204.349 15.4112C205.016 16.0068 205.35 16.9181 205.35 18.145V23.9697H204.134ZM200.9 24.0591C200.197 24.0591 199.584 23.9459 199.06 23.7196C198.547 23.4814 198.154 23.1597 197.88 22.7548C197.606 22.3378 197.469 21.8614 197.469 21.3254C197.469 20.837 197.582 20.3963 197.809 20.0032C198.047 19.5982 198.428 19.2766 198.952 19.0383C199.488 18.7882 200.203 18.6631 201.097 18.6631H204.331V19.6101H201.132C200.227 19.6101 199.596 19.7709 199.238 20.0925C198.893 20.4141 198.72 20.8132 198.72 21.2896C198.72 21.8256 198.929 22.2545 199.346 22.5761C199.762 22.8977 200.346 23.0585 201.097 23.0585C201.811 23.0585 202.425 22.8977 202.937 22.5761C203.461 22.2426 203.843 21.7661 204.081 21.1467L204.367 22.0222C204.128 22.6416 203.712 23.1359 203.116 23.5052C202.532 23.8744 201.794 24.0591 200.9 24.0591Z" stroke="#FCFCFC" stroke-width="0.6" mask="url(#path-5-outside-1_206_421)"/>
<path d="M208.727 23.9697V14.5893H210.013L214.266 21.7899H213.73L218.055 14.5893H219.234V23.9697H218.072V16.0366L218.305 16.1438L214.266 22.8262H213.694L209.62 16.0723L209.888 16.0187V23.9697H208.727Z" stroke="#FCFCFC" stroke-width="0.6" mask="url(#path-5-outside-1_206_421)"/>
<path d="M222.844 23.9697V14.5893H224.113V18.7346H230.028V14.5893H231.296V23.9697H230.028V19.8245H224.113V23.9697H222.844Z" stroke="#FCFCFC" stroke-width="0.6" mask="url(#path-5-outside-1_206_421)"/>
<path d="M238.762 24.0591C237.857 24.0591 237.041 23.8566 236.314 23.4516C235.599 23.0347 235.033 22.4689 234.616 21.7542C234.199 21.0276 233.991 20.1997 233.991 19.2706C233.991 18.3296 234.199 17.5017 234.616 16.787C235.033 16.0723 235.599 15.5125 236.314 15.1075C237.029 14.7025 237.845 14.5 238.762 14.5C239.691 14.5 240.513 14.7025 241.228 15.1075C241.955 15.5125 242.52 16.0723 242.925 16.787C243.342 17.5017 243.551 18.3296 243.551 19.2706C243.551 20.1997 243.342 21.0276 242.925 21.7542C242.52 22.4689 241.955 23.0347 241.228 23.4516C240.501 23.8566 239.679 24.0591 238.762 24.0591ZM238.762 22.9334C239.441 22.9334 240.043 22.7845 240.567 22.4867C241.091 22.177 241.502 21.7482 241.8 21.2003C242.109 20.6404 242.264 19.9972 242.264 19.2706C242.264 18.5321 242.109 17.8889 241.8 17.3409C241.502 16.793 241.091 16.3701 240.567 16.0723C240.043 15.7626 239.447 15.6078 238.78 15.6078C238.113 15.6078 237.517 15.7626 236.993 16.0723C236.469 16.3701 236.052 16.793 235.742 17.3409C235.432 17.8889 235.278 18.5321 235.278 19.2706C235.278 19.9972 235.432 20.6404 235.742 21.2003C236.052 21.7482 236.469 22.177 236.993 22.4867C237.517 22.7845 238.107 22.9334 238.762 22.9334Z" stroke="#FCFCFC" stroke-width="0.6" mask="url(#path-5-outside-1_206_421)"/>
<path d="M250.283 24.0591C249.306 24.0591 248.448 23.8566 247.71 23.4516C246.971 23.0347 246.393 22.4689 245.976 21.7542C245.56 21.0276 245.351 20.1997 245.351 19.2706C245.351 18.3415 245.548 17.5196 245.941 16.8049C246.346 16.0902 246.894 15.5304 247.585 15.1254C248.288 14.7085 249.074 14.5 249.943 14.5C250.825 14.5 251.605 14.7025 252.284 15.1075C252.975 15.5006 253.517 16.0604 253.91 16.787C254.303 17.5017 254.5 18.3296 254.5 19.2706C254.5 19.3302 254.494 19.3957 254.482 19.4671C254.482 19.5267 254.482 19.5922 254.482 19.6637H246.316V18.7167H253.803L253.303 19.0919C253.303 18.413 253.154 17.8114 252.856 17.2873C252.57 16.7513 252.177 16.3344 251.677 16.0366C251.176 15.7388 250.599 15.5899 249.943 15.5899C249.3 15.5899 248.722 15.7388 248.21 16.0366C247.698 16.3344 247.299 16.7513 247.013 17.2873C246.727 17.8233 246.584 18.4368 246.584 19.1277V19.3242C246.584 20.0389 246.739 20.6702 247.049 21.2182C247.37 21.7542 247.811 22.177 248.371 22.4867C248.943 22.7845 249.592 22.9334 250.319 22.9334C250.89 22.9334 251.421 22.8322 251.909 22.6297C252.409 22.4272 252.838 22.1175 253.196 21.7006L253.91 22.5225C253.493 23.0228 252.969 23.4039 252.338 23.666C251.718 23.928 251.033 24.0591 250.283 24.0591Z" stroke="#FCFCFC" stroke-width="0.6" mask="url(#path-5-outside-1_206_421)"/>
<path d="M159.165 45.4107V43.338L159.112 42.9986V39.5323C159.112 38.7342 158.885 38.1207 158.433 37.6919C157.992 37.2631 157.331 37.0487 156.449 37.0487C155.842 37.0487 155.264 37.1499 154.716 37.3524C154.168 37.5549 153.703 37.823 153.322 38.1565L152.75 37.2095C153.227 36.8045 153.798 36.4948 154.466 36.2804C155.133 36.0541 155.836 35.9409 156.574 35.9409C157.789 35.9409 158.724 36.2447 159.38 36.8522C160.047 37.4477 160.38 38.359 160.38 39.5859V45.4107H159.165ZM155.931 45.5C155.228 45.5 154.615 45.3868 154.09 45.1605C153.578 44.9223 153.185 44.6007 152.911 44.1957C152.637 43.7788 152.5 43.3023 152.5 42.7663C152.5 42.2779 152.613 41.8372 152.84 41.4441C153.078 41.0391 153.459 40.7175 153.983 40.4792C154.519 40.2291 155.234 40.104 156.127 40.104H159.362V41.051H156.163C155.258 41.051 154.626 41.2118 154.269 41.5334C153.924 41.855 153.751 42.2541 153.751 42.7305C153.751 43.2666 153.959 43.6954 154.376 44.017C154.793 44.3386 155.377 44.4994 156.127 44.4994C156.842 44.4994 157.456 44.3386 157.968 44.017C158.492 43.6835 158.873 43.207 159.112 42.5876L159.397 43.4631C159.159 44.0825 158.742 44.5768 158.147 44.9461C157.563 45.3154 156.824 45.5 155.931 45.5Z" stroke="#FCFCFC" stroke-width="0.6" mask="url(#path-5-outside-1_206_421)"/>
<path d="M163.758 45.4107V36.0303H170.405V37.138H164.705L165.026 36.8164V45.4107H163.758Z" stroke="#FCFCFC" stroke-width="0.6" mask="url(#path-5-outside-1_206_421)"/>
<path d="M175.823 45.5C174.846 45.5 173.988 45.2975 173.25 44.8925C172.511 44.4756 171.933 43.9098 171.516 43.1951C171.099 42.4685 170.891 41.6406 170.891 40.7115C170.891 39.7824 171.087 38.9605 171.481 38.2458C171.886 37.5311 172.434 36.9713 173.125 36.5663C173.827 36.1494 174.614 35.9409 175.483 35.9409C176.365 35.9409 177.145 36.1434 177.824 36.5484C178.515 36.9415 179.057 37.5013 179.45 38.228C179.843 38.9426 180.04 39.7705 180.04 40.7115C180.04 40.7711 180.034 40.8366 180.022 40.9081C180.022 40.9676 180.022 41.0331 180.022 41.1046H171.856V40.1576H179.343L178.843 40.5329C178.843 39.8539 178.694 39.2524 178.396 38.7282C178.11 38.1922 177.717 37.7753 177.217 37.4775C176.716 37.1797 176.138 37.0308 175.483 37.0308C174.84 37.0308 174.262 37.1797 173.75 37.4775C173.238 37.7753 172.839 38.1922 172.553 38.7282C172.267 39.2643 172.124 39.8777 172.124 40.5686V40.7651C172.124 41.4798 172.279 42.1111 172.588 42.6591C172.91 43.1951 173.351 43.618 173.911 43.9277C174.483 44.2255 175.132 44.3743 175.858 44.3743C176.43 44.3743 176.96 44.2731 177.449 44.0706C177.949 43.8681 178.378 43.5584 178.735 43.1415L179.45 43.9634C179.033 44.4637 178.509 44.8449 177.878 45.1069C177.258 45.369 176.573 45.5 175.823 45.5Z" stroke="#FCFCFC" stroke-width="0.6" mask="url(#path-5-outside-1_206_421)"/>
<path d="M182.848 45.4107V36.0303H184.117V40.1755H190.032V36.0303H191.3V45.4107H190.032V41.2654H184.117V45.4107H182.848Z" stroke="#FCFCFC" stroke-width="0.6" mask="url(#path-5-outside-1_206_421)"/>
<path d="M196.693 45.4107V36.7986L197.015 37.138H193.137V36.0303H201.518V37.138H197.64L197.962 36.7986V45.4107H196.693Z" stroke="#FCFCFC" stroke-width="0.6" mask="url(#path-5-outside-1_206_421)"/>
<path d="M206.847 45.5C205.918 45.5 205.084 45.2975 204.345 44.8925C203.619 44.4756 203.047 43.9098 202.63 43.1951C202.213 42.4685 202.005 41.6406 202.005 40.7115C202.005 39.7705 202.213 38.9426 202.63 38.228C203.047 37.5133 203.619 36.9534 204.345 36.5484C205.084 36.1434 205.918 35.9409 206.847 35.9409C207.645 35.9409 208.366 36.0958 209.009 36.4055C209.653 36.7152 210.159 37.1797 210.528 37.7991L209.581 38.4424C209.259 37.9659 208.86 37.6145 208.384 37.3882C207.907 37.1619 207.389 37.0487 206.829 37.0487C206.162 37.0487 205.561 37.2036 205.025 37.5133C204.488 37.811 204.066 38.2339 203.756 38.7818C203.446 39.3298 203.291 39.973 203.291 40.7115C203.291 41.45 203.446 42.0933 203.756 42.6412C204.066 43.1891 204.488 43.618 205.025 43.9277C205.561 44.2255 206.162 44.3743 206.829 44.3743C207.389 44.3743 207.907 44.2612 208.384 44.0349C208.86 43.8085 209.259 43.4631 209.581 42.9986L210.528 43.6418C210.159 44.2493 209.653 44.7138 209.009 45.0354C208.366 45.3451 207.645 45.5 206.847 45.5Z" stroke="#FCFCFC" stroke-width="0.6" mask="url(#path-5-outside-1_206_421)"/>
<path d="M214.597 45.4107V36.7986L214.919 37.138H211.041V36.0303H219.422V37.138H215.544L215.866 36.7986V45.4107H214.597Z" stroke="#FCFCFC" stroke-width="0.6" mask="url(#path-5-outside-1_206_421)"/>
<path d="M221.256 45.4107V36.0303H225.402C226.462 36.0303 227.296 36.2328 227.903 36.6378C228.523 37.0427 228.833 37.6383 228.833 38.4245C228.833 39.1868 228.541 39.7765 227.957 40.1934C227.373 40.5984 226.605 40.8009 225.652 40.8009L225.902 40.4256C227.022 40.4256 227.844 40.6341 228.368 41.051C228.892 41.4679 229.154 42.0695 229.154 42.8556C229.154 43.6656 228.856 44.2969 228.261 44.7496C227.677 45.1903 226.766 45.4107 225.527 45.4107H221.256ZM222.489 44.4101H225.473C226.271 44.4101 226.873 44.285 227.278 44.0349C227.695 43.7728 227.903 43.3559 227.903 42.7841C227.903 42.2124 227.719 41.7955 227.35 41.5334C226.98 41.2714 226.397 41.1403 225.598 41.1403H222.489V44.4101ZM222.489 40.1934H225.312C226.039 40.1934 226.593 40.0564 226.974 39.7824C227.367 39.5085 227.564 39.1094 227.564 38.5853C227.564 38.0612 227.367 37.6681 226.974 37.4061C226.593 37.144 226.039 37.013 225.312 37.013H222.489V40.1934Z" stroke="#FCFCFC" stroke-width="0.6" mask="url(#path-5-outside-1_206_421)"/>
<path d="M235.987 45.5C235.082 45.5 234.266 45.2975 233.539 44.8925C232.825 44.4756 232.259 43.9098 231.842 43.1951C231.425 42.4685 231.216 41.6406 231.216 40.7115C231.216 39.7705 231.425 38.9426 231.842 38.228C232.259 37.5133 232.825 36.9534 233.539 36.5484C234.254 36.1434 235.07 35.9409 235.987 35.9409C236.917 35.9409 237.739 36.1434 238.453 36.5484C239.18 36.9534 239.746 37.5133 240.151 38.228C240.568 38.9426 240.776 39.7705 240.776 40.7115C240.776 41.6406 240.568 42.4685 240.151 43.1951C239.746 43.9098 239.18 44.4756 238.453 44.8925C237.727 45.2975 236.905 45.5 235.987 45.5ZM235.987 44.3743C236.666 44.3743 237.268 44.2255 237.792 43.9277C238.316 43.618 238.727 43.1891 239.025 42.6412C239.335 42.0814 239.49 41.4381 239.49 40.7115C239.49 39.973 239.335 39.3298 239.025 38.7818C238.727 38.2339 238.316 37.811 237.792 37.5133C237.268 37.2036 236.672 37.0487 236.005 37.0487C235.338 37.0487 234.743 37.2036 234.218 37.5133C233.694 37.811 233.277 38.2339 232.968 38.7818C232.658 39.3298 232.503 39.973 232.503 40.7115C232.503 41.4381 232.658 42.0814 232.968 42.6412C233.277 43.1891 233.694 43.618 234.218 43.9277C234.743 44.2255 235.332 44.3743 235.987 44.3743Z" stroke="#FCFCFC" stroke-width="0.6" mask="url(#path-5-outside-1_206_421)"/>
</svg>
