<svg width="255" height="54" viewBox="0 0 255 54" fill="none" xmlns="http://www.w3.org/2000/svg">
<path d="M141.969 41.6814C141.179 41.6814 139.995 42.352 139.601 42.4861C138.68 42.6202 137.496 42.2179 136.838 36.9873C136.443 33.9026 136.838 30.6838 136.969 27.465C136.969 26.6603 128.813 27.8673 128.813 30.4155C128.682 34.3049 128.155 38.3285 129.076 42.0837C129.076 42.2179 129.076 42.2179 129.208 42.352C125.261 43.4249 121.315 41.279 119.868 36.9873C119.473 35.7802 119.341 34.4391 119.341 33.0979C119.341 32.6955 119.473 30.1473 119.736 29.3426C125.261 28.2697 130.523 26.392 135.391 23.7097C135.917 23.4414 137.233 22.7709 137.101 21.9661C135.654 10.5662 124.472 12.712 116.71 16.3332C114.737 17.272 114.211 17.8085 114.342 19.1497C114.474 20.3567 115.789 20.625 116.842 20.3567C118.157 19.9544 118.815 18.4791 120.394 17.8085C125.524 15.3944 127.892 19.4179 128.813 23.9779C125.656 25.3191 116.842 26.9285 113.816 27.465C112.501 27.7332 112.238 28.672 111.974 29.4767C111.58 31.3544 111.317 33.232 111.317 35.1096C111.185 37.3896 110.922 41.8155 108.949 42.0837C106.975 42.4861 107.37 33.6344 107.37 31.7567C107.502 27.465 107.896 23.4414 106.975 19.1497C105.528 12.4438 98.0298 13.3826 92.6361 15.7967C89.742 12.4438 84.0852 12.9803 78.9546 14.4556C77.6391 14.8579 74.3503 15.6626 74.0872 17.4062C73.0348 27.7332 72.2454 38.8649 73.9556 49.192C67.6411 46.7779 62.2474 39.9379 60.8003 33.0979C66.3256 32.2932 71.193 30.1473 70.5352 23.3073C69.3513 11.505 57.1168 10.4321 46.0664 15.3944C44.8824 15.9309 44.4878 16.7356 44.0931 18.4791C42.5145 24.3803 41.462 35.512 43.0407 44.7661C43.1722 45.4367 44.8824 46.3755 47.5135 46.3755C50.1445 46.3755 51.9863 45.7049 51.8547 44.7661C49.0921 33.7685 50.6707 21.2956 52.1178 16.6015C63.5629 15.5285 62.7736 27.7332 62.6421 29.4767C62.379 31.2202 60.1426 31.4885 59.4848 29.6108C58.827 27.8673 52.1178 29.2085 52.2494 32.8297C52.644 45.839 65.01 55.2272 77.2444 53.3496C78.1653 53.2155 83.4274 51.8743 83.1643 50.2649C80.2702 39.8038 80.5333 28.5379 81.5857 17.8085C89.8735 14.0532 86.0585 38.7308 85.9269 45.0343C85.9269 45.4367 87.1109 46.1073 90.1366 46.1073C92.8993 46.1073 94.0832 45.839 94.0832 44.632C94.2148 39.2673 94.3463 32.8296 94.3463 26.9285C94.3463 25.185 94.4779 20.4909 93.4255 18.4791C100.003 15.2603 99.3453 27.7332 99.2138 30.1473C99.2138 34.4391 98.0298 41.4132 101.45 44.9002C104.081 47.5826 110.133 46.1073 113.422 43.0226C114.079 43.8273 115 44.632 116.053 45.1684C119.999 47.4484 125.524 46.3755 130.26 44.4979C132.234 46.1073 135.522 45.9732 138.153 45.3026C139.469 45.0343 141.837 44.2296 142.626 42.7543C143.021 42.2179 142.758 41.6814 141.969 41.6814Z" fill="#0082CE"/>
<path d="M39.3581 39.8038C39.2266 38.5967 37.5164 38.5967 36.5955 38.7309C34.7538 38.9991 34.096 41.145 31.728 42.2179C30.281 42.8885 28.4392 43.0226 27.2552 42.6203C23.7033 41.4132 22.914 38.4626 22.3878 35.2438C21.73 30.5497 21.9931 24.3803 23.5718 19.8203C23.9664 18.6133 17.3888 17.0039 15.8101 20.8933C13.0475 28.0015 11.9951 39.2673 18.1781 44.632C23.1771 48.9238 30.9387 46.3756 36.464 42.8885C37.5164 42.2179 39.4897 40.7426 39.3581 39.8038Z" fill="#0082CE"/>
<path d="M7.5222 12.7098C10.6795 11.771 11.0741 11.2345 11.0741 10.2957C11.0741 8.01571 11.3372 5.73571 12.5212 3.99219C14.0998 3.85807 16.3362 4.39454 18.178 4.79689C20.2828 5.19924 21.7299 4.66278 23.0454 3.99219C23.177 3.99219 26.4658 1.84631 25.1503 1.57808C15.6785 -1.37251 3.3125 0.90749 3.3125 12.5757C3.3125 13.5145 4.49648 13.6486 7.5222 12.7098Z" fill="#0082CE"/>
<path d="M11.2054 17.0018C18.8355 15.2583 28.0442 14.0512 31.2015 22.0982C31.8592 23.7076 32.1224 25.4512 32.1224 27.1947C32.1224 28.67 31.7277 29.877 29.4913 29.4747C28.5704 29.3406 26.2025 28.1335 24.8869 28.9382C23.5714 29.7429 23.8345 32.9617 25.15 32.8276C29.6228 32.5594 39.6209 31.2182 40.2786 25.1829C40.6733 21.2935 40.0155 17.8065 36.332 14.8559C29.7544 9.49121 11.8632 13.3806 1.33897 16.7335C0.15499 17.1359 -0.371222 18.4771 0.286543 19.1477C1.07586 19.8182 3.04915 19.0135 2.9176 19.1477C1.99673 25.7194 1.99673 39.6676 2.6545 46.5076C2.6545 47.0441 3.57537 47.3123 6.20643 47.3123C8.83748 47.3123 10.8108 46.6417 10.6792 45.5688C10.4161 36.9853 9.6268 25.8535 11.2054 17.0018Z" fill="#0082CE"/>
<mask id="path-5-outside-1_56_4443" maskUnits="userSpaceOnUse" x="151.104" y="13.75" width="104" height="33" fill="black">
<rect fill="white" x="151.104" y="13.75" width="104" height="33"/>
<path d="M157.78 24.3003C156.971 24.3003 156.239 24.1159 155.584 23.7469C154.93 23.3661 154.406 22.8246 154.014 22.1225C153.633 21.4085 153.442 20.5397 153.442 19.5162C153.442 18.4928 153.633 17.63 154.014 16.9278C154.394 16.2138 154.912 15.6723 155.567 15.3034C156.221 14.9345 156.959 14.75 157.78 14.75C158.673 14.75 159.47 14.9523 160.172 15.3569C160.886 15.7497 161.446 16.309 161.85 17.0349C162.255 17.749 162.457 18.5761 162.457 19.5162C162.457 20.4683 162.255 21.3013 161.85 22.0154C161.446 22.7294 160.886 23.2888 160.172 23.6934C159.47 24.098 158.673 24.3003 157.78 24.3003ZM152.943 27.6742V14.8393H154.156V17.6597L154.031 19.5341L154.21 21.4263V27.6742H152.943ZM157.691 23.1757C158.357 23.1757 158.952 23.027 159.476 22.7294C160 22.42 160.416 21.9916 160.726 21.4442C161.035 20.8848 161.19 20.2422 161.19 19.5162C161.19 18.7903 161.035 18.1536 160.726 17.6062C160.416 17.0587 160 16.6303 159.476 16.3209C158.952 16.0115 158.357 15.8568 157.691 15.8568C157.024 15.8568 156.423 16.0115 155.888 16.3209C155.364 16.6303 154.948 17.0587 154.638 17.6062C154.341 18.1536 154.192 18.7903 154.192 19.5162C154.192 20.2422 154.341 20.8848 154.638 21.4442C154.948 21.9916 155.364 22.42 155.888 22.7294C156.423 23.027 157.024 23.1757 157.691 23.1757Z"/>
<path d="M169.197 24.3003C168.221 24.3003 167.364 24.098 166.626 23.6934C165.888 23.2769 165.311 22.7116 164.895 21.9975C164.478 21.2716 164.27 20.4445 164.27 19.5162C164.27 18.588 164.466 17.7668 164.859 17.0528C165.264 16.3387 165.811 15.7794 166.501 15.3748C167.203 14.9583 167.989 14.75 168.858 14.75C169.738 14.75 170.518 14.9523 171.196 15.3569C171.886 15.7497 172.428 16.309 172.821 17.0349C173.213 17.749 173.41 18.5761 173.41 19.5162C173.41 19.5757 173.404 19.6412 173.392 19.7126C173.392 19.7721 173.392 19.8376 173.392 19.909H165.234V18.9629H172.713L172.214 19.3377C172.214 18.6594 172.065 18.0584 171.767 17.5348C171.482 16.9992 171.089 16.5827 170.589 16.2852C170.089 15.9877 169.512 15.8389 168.858 15.8389C168.215 15.8389 167.638 15.9877 167.126 16.2852C166.614 16.5827 166.216 16.9992 165.93 17.5348C165.644 18.0703 165.502 18.6832 165.502 19.3734V19.5698C165.502 20.2838 165.656 20.9146 165.966 21.462C166.287 21.9975 166.727 22.42 167.287 22.7294C167.858 23.027 168.507 23.1757 169.232 23.1757C169.804 23.1757 170.333 23.0746 170.821 22.8722C171.321 22.6699 171.749 22.3605 172.106 21.944L172.821 22.7651C172.404 23.265 171.88 23.6458 171.25 23.9076C170.631 24.1694 169.947 24.3003 169.197 24.3003Z"/>
<path d="M183.088 24.2111L179.232 19.5698L180.285 18.945L184.587 24.2111H183.088ZM176.215 24.2111V14.8393H177.483V24.2111H176.215ZM177.09 20.0339V18.945H180.107V20.0339H177.09ZM180.392 19.659L179.214 19.4805L182.945 14.8393H184.32L180.392 19.659Z"/>
<path d="M184.874 24.1932L184.963 23.1043C185.046 23.1162 185.124 23.1341 185.195 23.1579C185.279 23.1698 185.35 23.1757 185.409 23.1757C185.79 23.1757 186.094 23.0329 186.32 22.7473C186.558 22.4617 186.736 22.0808 186.855 21.6048C186.974 21.1288 187.058 20.5933 187.105 19.9982C187.153 19.3913 187.195 18.7843 187.23 18.1774L187.391 14.8393H194.264V24.2111H192.996V15.5711L193.317 15.946H188.212L188.516 15.5533L188.373 18.2667C188.337 19.0759 188.272 19.8495 188.176 20.5873C188.093 21.3251 187.956 21.9737 187.766 22.5331C187.587 23.0924 187.337 23.5327 187.016 23.854C186.695 24.1635 186.284 24.3182 185.784 24.3182C185.642 24.3182 185.493 24.3063 185.338 24.2825C185.195 24.2587 185.041 24.2289 184.874 24.1932Z"/>
<path d="M203.686 24.2111V22.1403L203.632 21.8012V18.3381C203.632 17.5407 203.406 16.9278 202.954 16.4994C202.514 16.071 201.853 15.8568 200.973 15.8568C200.366 15.8568 199.789 15.9579 199.241 16.1602C198.694 16.3625 198.23 16.6303 197.849 16.9635L197.277 16.0174C197.754 15.6128 198.325 15.3034 198.991 15.0892C199.658 14.8631 200.36 14.75 201.098 14.75C202.311 14.75 203.246 15.0535 203.9 15.6604C204.567 16.2554 204.9 17.1658 204.9 18.3916V24.2111H203.686ZM200.455 24.3003C199.753 24.3003 199.14 24.1873 198.616 23.9612C198.105 23.7231 197.712 23.4018 197.438 22.9972C197.164 22.5807 197.028 22.1046 197.028 21.5691C197.028 21.0812 197.141 20.6409 197.367 20.2481C197.605 19.8435 197.986 19.5222 198.509 19.2842C199.045 19.0343 199.759 18.9093 200.651 18.9093H203.882V19.8554H200.687C199.783 19.8554 199.152 20.0161 198.795 20.3374C198.45 20.6587 198.277 21.0574 198.277 21.5334C198.277 22.0689 198.485 22.4974 198.902 22.8187C199.318 23.14 199.902 23.3007 200.651 23.3007C201.365 23.3007 201.978 23.14 202.49 22.8187C203.014 22.4855 203.394 22.0094 203.632 21.3906L203.918 22.2653C203.68 22.8841 203.264 23.378 202.669 23.7469C202.085 24.1159 201.348 24.3003 200.455 24.3003Z"/>
<path d="M208.274 24.2111V14.8393H209.559L213.808 22.0332H213.272L217.592 14.8393H218.77V24.2111H217.61V16.2852L217.842 16.3923L213.808 23.0686H213.236L209.166 16.3209L209.434 16.2673V24.2111H208.274Z"/>
<path d="M222.377 24.2111V14.8393H223.644V18.9807H229.553V14.8393H230.82V24.2111H229.553V20.0696H223.644V24.2111H222.377Z"/>
<path d="M238.279 24.3003C237.374 24.3003 236.559 24.098 235.833 23.6934C235.119 23.2769 234.554 22.7116 234.137 21.9975C233.721 21.2716 233.513 20.4445 233.513 19.5162C233.513 18.5761 233.721 17.749 234.137 17.0349C234.554 16.3209 235.119 15.7616 235.833 15.3569C236.547 14.9523 237.362 14.75 238.279 14.75C239.207 14.75 240.028 14.9523 240.742 15.3569C241.468 15.7616 242.033 16.3209 242.438 17.0349C242.855 17.749 243.063 18.5761 243.063 19.5162C243.063 20.4445 242.855 21.2716 242.438 21.9975C242.033 22.7116 241.468 23.2769 240.742 23.6934C240.016 24.098 239.195 24.3003 238.279 24.3003ZM238.279 23.1757C238.957 23.1757 239.558 23.027 240.082 22.7294C240.605 22.42 241.016 21.9916 241.313 21.4442C241.623 20.8848 241.778 20.2422 241.778 19.5162C241.778 18.7784 241.623 18.1358 241.313 17.5883C241.016 17.0409 240.605 16.6184 240.082 16.3209C239.558 16.0115 238.963 15.8568 238.297 15.8568C237.63 15.8568 237.035 16.0115 236.511 16.3209C235.988 16.6184 235.571 17.0409 235.262 17.5883C234.953 18.1358 234.798 18.7784 234.798 19.5162C234.798 20.2422 234.953 20.8848 235.262 21.4442C235.571 21.9916 235.988 22.42 236.511 22.7294C237.035 23.027 237.624 23.1757 238.279 23.1757Z"/>
<path d="M249.788 24.3003C248.812 24.3003 247.955 24.098 247.218 23.6934C246.48 23.2769 245.903 22.7116 245.486 21.9975C245.069 21.2716 244.861 20.4445 244.861 19.5162C244.861 18.588 245.058 17.7668 245.45 17.0528C245.855 16.3387 246.402 15.7794 247.093 15.3748C247.795 14.9583 248.58 14.75 249.449 14.75C250.33 14.75 251.109 14.9523 251.787 15.3569C252.478 15.7497 253.019 16.309 253.412 17.0349C253.805 17.749 254.001 18.5761 254.001 19.5162C254.001 19.5757 253.995 19.6412 253.983 19.7126C253.983 19.7721 253.983 19.8376 253.983 19.909H245.825V18.9629H253.305L252.805 19.3377C252.805 18.6594 252.656 18.0584 252.359 17.5348C252.073 16.9992 251.68 16.5827 251.18 16.2852C250.681 15.9877 250.103 15.8389 249.449 15.8389C248.806 15.8389 248.229 15.9877 247.717 16.2852C247.206 16.5827 246.807 16.9992 246.521 17.5348C246.236 18.0703 246.093 18.6832 246.093 19.3734V19.5698C246.093 20.2838 246.248 20.9146 246.557 21.462C246.878 21.9975 247.319 22.42 247.878 22.7294C248.449 23.027 249.098 23.1757 249.824 23.1757C250.395 23.1757 250.925 23.0746 251.413 22.8722C251.912 22.6699 252.341 22.3605 252.698 21.944L253.412 22.7651C252.995 23.265 252.472 23.6458 251.841 23.9076C251.222 24.1694 250.538 24.3003 249.788 24.3003Z"/>
<path d="M158.762 45.6324V43.5616L158.708 43.2225V39.7594C158.708 38.962 158.482 38.3491 158.03 37.9207C157.59 37.4923 156.929 37.2781 156.049 37.2781C155.442 37.2781 154.864 37.3792 154.317 37.5815C153.77 37.7838 153.305 38.0516 152.925 38.3848L152.353 37.4387C152.829 37.0341 153.401 36.7247 154.067 36.5105C154.734 36.2843 155.436 36.1713 156.174 36.1713C157.387 36.1713 158.322 36.4748 158.976 37.0817C159.643 37.6767 159.976 38.5871 159.976 39.8129V45.6324H158.762ZM155.531 45.7216C154.829 45.7216 154.216 45.6086 153.692 45.3825C153.181 45.1444 152.788 44.8231 152.514 44.4185C152.24 44.002 152.104 43.5259 152.104 42.9904C152.104 42.5025 152.217 42.0621 152.443 41.6694C152.681 41.2648 153.062 40.9435 153.585 40.7055C154.121 40.4556 154.835 40.3306 155.727 40.3306H158.958V41.2767H155.763C154.859 41.2767 154.228 41.4374 153.871 41.7587C153.526 42.08 153.353 42.4787 153.353 42.9547C153.353 43.4902 153.561 43.9187 153.978 44.24C154.394 44.5613 154.978 44.722 155.727 44.722C156.441 44.722 157.054 44.5613 157.566 44.24C158.09 43.9068 158.47 43.4307 158.708 42.8119L158.994 43.6866C158.756 44.3054 158.339 44.7993 157.744 45.1682C157.161 45.5372 156.423 45.7216 155.531 45.7216Z"/>
<path d="M163.35 45.6324V36.2605H169.99V37.3673H164.296L164.617 37.046V45.6324H163.35Z"/>
<path d="M175.403 45.7216C174.427 45.7216 173.57 45.5193 172.832 45.1147C172.094 44.6982 171.517 44.1329 171.101 43.4188C170.684 42.6929 170.476 41.8658 170.476 40.9375C170.476 40.0093 170.672 39.1881 171.065 38.4741C171.47 37.76 172.017 37.2007 172.707 36.7961C173.409 36.3796 174.195 36.1713 175.064 36.1713C175.944 36.1713 176.724 36.3736 177.402 36.7782C178.092 37.171 178.634 37.7303 179.027 38.4562C179.419 39.1703 179.616 39.9974 179.616 40.9375C179.616 40.997 179.61 41.0625 179.598 41.1339C179.598 41.1934 179.598 41.2589 179.598 41.3303H171.44V40.3841H178.919L178.42 40.759C178.42 40.0807 178.271 39.4797 177.973 38.9561C177.688 38.4205 177.295 38.004 176.795 37.7065C176.295 37.409 175.718 37.2602 175.064 37.2602C174.421 37.2602 173.844 37.409 173.332 37.7065C172.82 38.004 172.422 38.4205 172.136 38.9561C171.85 39.4916 171.708 40.1045 171.708 40.7947V40.9911C171.708 41.7051 171.862 42.3359 172.172 42.8833C172.493 43.4188 172.933 43.8413 173.493 44.1507C174.064 44.4482 174.713 44.597 175.439 44.597C176.01 44.597 176.539 44.4958 177.027 44.2935C177.527 44.0912 177.956 43.7818 178.313 43.3653L179.027 44.1864C178.61 44.6863 178.086 45.0671 177.456 45.3289C176.837 45.5907 176.153 45.7216 175.403 45.7216Z"/>
<path d="M182.421 45.6324V36.2605H183.689V40.402H189.597V36.2605H190.865V45.6324H189.597V41.4909H183.689V45.6324H182.421Z"/>
<path d="M196.252 45.6324V37.0281L196.574 37.3673H192.7V36.2605H201.072V37.3673H197.198L197.52 37.0281V45.6324H196.252Z"/>
<path d="M206.396 45.7216C205.468 45.7216 204.635 45.5193 203.897 45.1147C203.171 44.6982 202.6 44.1329 202.183 43.4188C201.767 42.6929 201.558 41.8658 201.558 40.9375C201.558 39.9974 201.767 39.1703 202.183 38.4562C202.6 37.7422 203.171 37.1829 203.897 36.7782C204.635 36.3736 205.468 36.1713 206.396 36.1713C207.193 36.1713 207.913 36.326 208.556 36.6354C209.199 36.9448 209.704 37.409 210.073 38.0278L209.127 38.6704C208.806 38.1944 208.407 37.8433 207.931 37.6172C207.455 37.3911 206.938 37.2781 206.378 37.2781C205.712 37.2781 205.111 37.4328 204.575 37.7422C204.04 38.0397 203.617 38.4622 203.308 39.0096C202.998 39.557 202.844 40.1997 202.844 40.9375C202.844 41.6754 202.998 42.318 203.308 42.8654C203.617 43.4129 204.04 43.8413 204.575 44.1507C205.111 44.4482 205.712 44.597 206.378 44.597C206.938 44.597 207.455 44.4839 207.931 44.2578C208.407 44.0317 208.806 43.6866 209.127 43.2225L210.073 43.8651C209.704 44.472 209.199 44.9362 208.556 45.2575C207.913 45.5669 207.193 45.7216 206.396 45.7216Z"/>
<path d="M214.138 45.6324V37.0281L214.46 37.3673H210.586V36.2605H218.958V37.3673H215.084L215.406 37.0281V45.6324H214.138Z"/>
<path d="M220.791 45.6324V36.2605H224.932C225.991 36.2605 226.824 36.4629 227.431 36.8675C228.05 37.2721 228.359 37.8671 228.359 38.6526C228.359 39.4142 228.068 40.0033 227.485 40.4198C226.902 40.8245 226.134 41.0268 225.182 41.0268L225.432 40.6519C226.551 40.6519 227.372 40.8602 227.895 41.2767C228.419 41.6932 228.681 42.2942 228.681 43.0797C228.681 43.8889 228.383 44.5196 227.788 44.9719C227.205 45.4122 226.295 45.6324 225.057 45.6324H220.791ZM222.022 44.6327H225.003C225.801 44.6327 226.402 44.5077 226.806 44.2578C227.223 43.996 227.431 43.5795 227.431 43.0083C227.431 42.437 227.247 42.0205 226.878 41.7587C226.509 41.4969 225.926 41.366 225.128 41.366H222.022V44.6327ZM222.022 40.4198H224.843C225.569 40.4198 226.122 40.283 226.503 40.0093C226.896 39.7356 227.092 39.3369 227.092 38.8133C227.092 38.2896 226.896 37.8969 226.503 37.6351C226.122 37.3733 225.569 37.2424 224.843 37.2424H222.022V40.4198Z"/>
<path d="M235.507 45.7216C234.603 45.7216 233.787 45.5193 233.061 45.1147C232.347 44.6982 231.782 44.1329 231.366 43.4188C230.949 42.6929 230.741 41.8658 230.741 40.9375C230.741 39.9974 230.949 39.1703 231.366 38.4562C231.782 37.7422 232.347 37.1829 233.061 36.7782C233.775 36.3736 234.591 36.1713 235.507 36.1713C236.435 36.1713 237.256 36.3736 237.97 36.7782C238.696 37.1829 239.262 37.7422 239.666 38.4562C240.083 39.1703 240.291 39.9974 240.291 40.9375C240.291 41.8658 240.083 42.6929 239.666 43.4188C239.262 44.1329 238.696 44.6982 237.97 45.1147C237.244 45.5193 236.423 45.7216 235.507 45.7216ZM235.507 44.597C236.185 44.597 236.786 44.4482 237.31 44.1507C237.834 43.8413 238.244 43.4129 238.542 42.8654C238.851 42.3061 239.006 41.6635 239.006 40.9375C239.006 40.1997 238.851 39.557 238.542 39.0096C238.244 38.4622 237.834 38.0397 237.31 37.7422C236.786 37.4328 236.191 37.2781 235.525 37.2781C234.858 37.2781 234.263 37.4328 233.74 37.7422C233.216 38.0397 232.8 38.4622 232.49 39.0096C232.181 39.557 232.026 40.1997 232.026 40.9375C232.026 41.6635 232.181 42.3061 232.49 42.8654C232.8 43.4129 233.216 43.8413 233.74 44.1507C234.263 44.4482 234.852 44.597 235.507 44.597Z"/>
</mask>
<path d="M157.78 24.3003C156.971 24.3003 156.239 24.1159 155.584 23.7469C154.93 23.3661 154.406 22.8246 154.014 22.1225C153.633 21.4085 153.442 20.5397 153.442 19.5162C153.442 18.4928 153.633 17.63 154.014 16.9278C154.394 16.2138 154.912 15.6723 155.567 15.3034C156.221 14.9345 156.959 14.75 157.78 14.75C158.673 14.75 159.47 14.9523 160.172 15.3569C160.886 15.7497 161.446 16.309 161.85 17.0349C162.255 17.749 162.457 18.5761 162.457 19.5162C162.457 20.4683 162.255 21.3013 161.85 22.0154C161.446 22.7294 160.886 23.2888 160.172 23.6934C159.47 24.098 158.673 24.3003 157.78 24.3003ZM152.943 27.6742V14.8393H154.156V17.6597L154.031 19.5341L154.21 21.4263V27.6742H152.943ZM157.691 23.1757C158.357 23.1757 158.952 23.027 159.476 22.7294C160 22.42 160.416 21.9916 160.726 21.4442C161.035 20.8848 161.19 20.2422 161.19 19.5162C161.19 18.7903 161.035 18.1536 160.726 17.6062C160.416 17.0587 160 16.6303 159.476 16.3209C158.952 16.0115 158.357 15.8568 157.691 15.8568C157.024 15.8568 156.423 16.0115 155.888 16.3209C155.364 16.6303 154.948 17.0587 154.638 17.6062C154.341 18.1536 154.192 18.7903 154.192 19.5162C154.192 20.2422 154.341 20.8848 154.638 21.4442C154.948 21.9916 155.364 22.42 155.888 22.7294C156.423 23.027 157.024 23.1757 157.691 23.1757Z" fill="#0082CE"/>
<path d="M169.197 24.3003C168.221 24.3003 167.364 24.098 166.626 23.6934C165.888 23.2769 165.311 22.7116 164.895 21.9975C164.478 21.2716 164.27 20.4445 164.27 19.5162C164.27 18.588 164.466 17.7668 164.859 17.0528C165.264 16.3387 165.811 15.7794 166.501 15.3748C167.203 14.9583 167.989 14.75 168.858 14.75C169.738 14.75 170.518 14.9523 171.196 15.3569C171.886 15.7497 172.428 16.309 172.821 17.0349C173.213 17.749 173.41 18.5761 173.41 19.5162C173.41 19.5757 173.404 19.6412 173.392 19.7126C173.392 19.7721 173.392 19.8376 173.392 19.909H165.234V18.9629H172.713L172.214 19.3377C172.214 18.6594 172.065 18.0584 171.767 17.5348C171.482 16.9992 171.089 16.5827 170.589 16.2852C170.089 15.9877 169.512 15.8389 168.858 15.8389C168.215 15.8389 167.638 15.9877 167.126 16.2852C166.614 16.5827 166.216 16.9992 165.93 17.5348C165.644 18.0703 165.502 18.6832 165.502 19.3734V19.5698C165.502 20.2838 165.656 20.9146 165.966 21.462C166.287 21.9975 166.727 22.42 167.287 22.7294C167.858 23.027 168.507 23.1757 169.232 23.1757C169.804 23.1757 170.333 23.0746 170.821 22.8722C171.321 22.6699 171.749 22.3605 172.106 21.944L172.821 22.7651C172.404 23.265 171.88 23.6458 171.25 23.9076C170.631 24.1694 169.947 24.3003 169.197 24.3003Z" fill="#0082CE"/>
<path d="M183.088 24.2111L179.232 19.5698L180.285 18.945L184.587 24.2111H183.088ZM176.215 24.2111V14.8393H177.483V24.2111H176.215ZM177.09 20.0339V18.945H180.107V20.0339H177.09ZM180.392 19.659L179.214 19.4805L182.945 14.8393H184.32L180.392 19.659Z" fill="#0082CE"/>
<path d="M184.874 24.1932L184.963 23.1043C185.046 23.1162 185.124 23.1341 185.195 23.1579C185.279 23.1698 185.35 23.1757 185.409 23.1757C185.79 23.1757 186.094 23.0329 186.32 22.7473C186.558 22.4617 186.736 22.0808 186.855 21.6048C186.974 21.1288 187.058 20.5933 187.105 19.9982C187.153 19.3913 187.195 18.7843 187.23 18.1774L187.391 14.8393H194.264V24.2111H192.996V15.5711L193.317 15.946H188.212L188.516 15.5533L188.373 18.2667C188.337 19.0759 188.272 19.8495 188.176 20.5873C188.093 21.3251 187.956 21.9737 187.766 22.5331C187.587 23.0924 187.337 23.5327 187.016 23.854C186.695 24.1635 186.284 24.3182 185.784 24.3182C185.642 24.3182 185.493 24.3063 185.338 24.2825C185.195 24.2587 185.041 24.2289 184.874 24.1932Z" fill="#0082CE"/>
<path d="M203.686 24.2111V22.1403L203.632 21.8012V18.3381C203.632 17.5407 203.406 16.9278 202.954 16.4994C202.514 16.071 201.853 15.8568 200.973 15.8568C200.366 15.8568 199.789 15.9579 199.241 16.1602C198.694 16.3625 198.23 16.6303 197.849 16.9635L197.277 16.0174C197.754 15.6128 198.325 15.3034 198.991 15.0892C199.658 14.8631 200.36 14.75 201.098 14.75C202.311 14.75 203.246 15.0535 203.9 15.6604C204.567 16.2554 204.9 17.1658 204.9 18.3916V24.2111H203.686ZM200.455 24.3003C199.753 24.3003 199.14 24.1873 198.616 23.9612C198.105 23.7231 197.712 23.4018 197.438 22.9972C197.164 22.5807 197.028 22.1046 197.028 21.5691C197.028 21.0812 197.141 20.6409 197.367 20.2481C197.605 19.8435 197.986 19.5222 198.509 19.2842C199.045 19.0343 199.759 18.9093 200.651 18.9093H203.882V19.8554H200.687C199.783 19.8554 199.152 20.0161 198.795 20.3374C198.45 20.6587 198.277 21.0574 198.277 21.5334C198.277 22.0689 198.485 22.4974 198.902 22.8187C199.318 23.14 199.902 23.3007 200.651 23.3007C201.365 23.3007 201.978 23.14 202.49 22.8187C203.014 22.4855 203.394 22.0094 203.632 21.3906L203.918 22.2653C203.68 22.8841 203.264 23.378 202.669 23.7469C202.085 24.1159 201.348 24.3003 200.455 24.3003Z" fill="#0082CE"/>
<path d="M208.274 24.2111V14.8393H209.559L213.808 22.0332H213.272L217.592 14.8393H218.77V24.2111H217.61V16.2852L217.842 16.3923L213.808 23.0686H213.236L209.166 16.3209L209.434 16.2673V24.2111H208.274Z" fill="#0082CE"/>
<path d="M222.377 24.2111V14.8393H223.644V18.9807H229.553V14.8393H230.82V24.2111H229.553V20.0696H223.644V24.2111H222.377Z" fill="#0082CE"/>
<path d="M238.279 24.3003C237.374 24.3003 236.559 24.098 235.833 23.6934C235.119 23.2769 234.554 22.7116 234.137 21.9975C233.721 21.2716 233.513 20.4445 233.513 19.5162C233.513 18.5761 233.721 17.749 234.137 17.0349C234.554 16.3209 235.119 15.7616 235.833 15.3569C236.547 14.9523 237.362 14.75 238.279 14.75C239.207 14.75 240.028 14.9523 240.742 15.3569C241.468 15.7616 242.033 16.3209 242.438 17.0349C242.855 17.749 243.063 18.5761 243.063 19.5162C243.063 20.4445 242.855 21.2716 242.438 21.9975C242.033 22.7116 241.468 23.2769 240.742 23.6934C240.016 24.098 239.195 24.3003 238.279 24.3003ZM238.279 23.1757C238.957 23.1757 239.558 23.027 240.082 22.7294C240.605 22.42 241.016 21.9916 241.313 21.4442C241.623 20.8848 241.778 20.2422 241.778 19.5162C241.778 18.7784 241.623 18.1358 241.313 17.5883C241.016 17.0409 240.605 16.6184 240.082 16.3209C239.558 16.0115 238.963 15.8568 238.297 15.8568C237.63 15.8568 237.035 16.0115 236.511 16.3209C235.988 16.6184 235.571 17.0409 235.262 17.5883C234.953 18.1358 234.798 18.7784 234.798 19.5162C234.798 20.2422 234.953 20.8848 235.262 21.4442C235.571 21.9916 235.988 22.42 236.511 22.7294C237.035 23.027 237.624 23.1757 238.279 23.1757Z" fill="#0082CE"/>
<path d="M249.788 24.3003C248.812 24.3003 247.955 24.098 247.218 23.6934C246.48 23.2769 245.903 22.7116 245.486 21.9975C245.069 21.2716 244.861 20.4445 244.861 19.5162C244.861 18.588 245.058 17.7668 245.45 17.0528C245.855 16.3387 246.402 15.7794 247.093 15.3748C247.795 14.9583 248.58 14.75 249.449 14.75C250.33 14.75 251.109 14.9523 251.787 15.3569C252.478 15.7497 253.019 16.309 253.412 17.0349C253.805 17.749 254.001 18.5761 254.001 19.5162C254.001 19.5757 253.995 19.6412 253.983 19.7126C253.983 19.7721 253.983 19.8376 253.983 19.909H245.825V18.9629H253.305L252.805 19.3377C252.805 18.6594 252.656 18.0584 252.359 17.5348C252.073 16.9992 251.68 16.5827 251.18 16.2852C250.681 15.9877 250.103 15.8389 249.449 15.8389C248.806 15.8389 248.229 15.9877 247.717 16.2852C247.206 16.5827 246.807 16.9992 246.521 17.5348C246.236 18.0703 246.093 18.6832 246.093 19.3734V19.5698C246.093 20.2838 246.248 20.9146 246.557 21.462C246.878 21.9975 247.319 22.42 247.878 22.7294C248.449 23.027 249.098 23.1757 249.824 23.1757C250.395 23.1757 250.925 23.0746 251.413 22.8722C251.912 22.6699 252.341 22.3605 252.698 21.944L253.412 22.7651C252.995 23.265 252.472 23.6458 251.841 23.9076C251.222 24.1694 250.538 24.3003 249.788 24.3003Z" fill="#0082CE"/>
<path d="M158.762 45.6324V43.5616L158.708 43.2225V39.7594C158.708 38.962 158.482 38.3491 158.03 37.9207C157.59 37.4923 156.929 37.2781 156.049 37.2781C155.442 37.2781 154.864 37.3792 154.317 37.5815C153.77 37.7838 153.305 38.0516 152.925 38.3848L152.353 37.4387C152.829 37.0341 153.401 36.7247 154.067 36.5105C154.734 36.2843 155.436 36.1713 156.174 36.1713C157.387 36.1713 158.322 36.4748 158.976 37.0817C159.643 37.6767 159.976 38.5871 159.976 39.8129V45.6324H158.762ZM155.531 45.7216C154.829 45.7216 154.216 45.6086 153.692 45.3825C153.181 45.1444 152.788 44.8231 152.514 44.4185C152.24 44.002 152.104 43.5259 152.104 42.9904C152.104 42.5025 152.217 42.0621 152.443 41.6694C152.681 41.2648 153.062 40.9435 153.585 40.7055C154.121 40.4556 154.835 40.3306 155.727 40.3306H158.958V41.2767H155.763C154.859 41.2767 154.228 41.4374 153.871 41.7587C153.526 42.08 153.353 42.4787 153.353 42.9547C153.353 43.4902 153.561 43.9187 153.978 44.24C154.394 44.5613 154.978 44.722 155.727 44.722C156.441 44.722 157.054 44.5613 157.566 44.24C158.09 43.9068 158.47 43.4307 158.708 42.8119L158.994 43.6866C158.756 44.3054 158.339 44.7993 157.744 45.1682C157.161 45.5372 156.423 45.7216 155.531 45.7216Z" fill="#0082CE"/>
<path d="M163.35 45.6324V36.2605H169.99V37.3673H164.296L164.617 37.046V45.6324H163.35Z" fill="#0082CE"/>
<path d="M175.403 45.7216C174.427 45.7216 173.57 45.5193 172.832 45.1147C172.094 44.6982 171.517 44.1329 171.101 43.4188C170.684 42.6929 170.476 41.8658 170.476 40.9375C170.476 40.0093 170.672 39.1881 171.065 38.4741C171.47 37.76 172.017 37.2007 172.707 36.7961C173.409 36.3796 174.195 36.1713 175.064 36.1713C175.944 36.1713 176.724 36.3736 177.402 36.7782C178.092 37.171 178.634 37.7303 179.027 38.4562C179.419 39.1703 179.616 39.9974 179.616 40.9375C179.616 40.997 179.61 41.0625 179.598 41.1339C179.598 41.1934 179.598 41.2589 179.598 41.3303H171.44V40.3841H178.919L178.42 40.759C178.42 40.0807 178.271 39.4797 177.973 38.9561C177.688 38.4205 177.295 38.004 176.795 37.7065C176.295 37.409 175.718 37.2602 175.064 37.2602C174.421 37.2602 173.844 37.409 173.332 37.7065C172.82 38.004 172.422 38.4205 172.136 38.9561C171.85 39.4916 171.708 40.1045 171.708 40.7947V40.9911C171.708 41.7051 171.862 42.3359 172.172 42.8833C172.493 43.4188 172.933 43.8413 173.493 44.1507C174.064 44.4482 174.713 44.597 175.439 44.597C176.01 44.597 176.539 44.4958 177.027 44.2935C177.527 44.0912 177.956 43.7818 178.313 43.3653L179.027 44.1864C178.61 44.6863 178.086 45.0671 177.456 45.3289C176.837 45.5907 176.153 45.7216 175.403 45.7216Z" fill="#0082CE"/>
<path d="M182.421 45.6324V36.2605H183.689V40.402H189.597V36.2605H190.865V45.6324H189.597V41.4909H183.689V45.6324H182.421Z" fill="#0082CE"/>
<path d="M196.252 45.6324V37.0281L196.574 37.3673H192.7V36.2605H201.072V37.3673H197.198L197.52 37.0281V45.6324H196.252Z" fill="#0082CE"/>
<path d="M206.396 45.7216C205.468 45.7216 204.635 45.5193 203.897 45.1147C203.171 44.6982 202.6 44.1329 202.183 43.4188C201.767 42.6929 201.558 41.8658 201.558 40.9375C201.558 39.9974 201.767 39.1703 202.183 38.4562C202.6 37.7422 203.171 37.1829 203.897 36.7782C204.635 36.3736 205.468 36.1713 206.396 36.1713C207.193 36.1713 207.913 36.326 208.556 36.6354C209.199 36.9448 209.704 37.409 210.073 38.0278L209.127 38.6704C208.806 38.1944 208.407 37.8433 207.931 37.6172C207.455 37.3911 206.938 37.2781 206.378 37.2781C205.712 37.2781 205.111 37.4328 204.575 37.7422C204.04 38.0397 203.617 38.4622 203.308 39.0096C202.998 39.557 202.844 40.1997 202.844 40.9375C202.844 41.6754 202.998 42.318 203.308 42.8654C203.617 43.4129 204.04 43.8413 204.575 44.1507C205.111 44.4482 205.712 44.597 206.378 44.597C206.938 44.597 207.455 44.4839 207.931 44.2578C208.407 44.0317 208.806 43.6866 209.127 43.2225L210.073 43.8651C209.704 44.472 209.199 44.9362 208.556 45.2575C207.913 45.5669 207.193 45.7216 206.396 45.7216Z" fill="#0082CE"/>
<path d="M214.138 45.6324V37.0281L214.46 37.3673H210.586V36.2605H218.958V37.3673H215.084L215.406 37.0281V45.6324H214.138Z" fill="#0082CE"/>
<path d="M220.791 45.6324V36.2605H224.932C225.991 36.2605 226.824 36.4629 227.431 36.8675C228.05 37.2721 228.359 37.8671 228.359 38.6526C228.359 39.4142 228.068 40.0033 227.485 40.4198C226.902 40.8245 226.134 41.0268 225.182 41.0268L225.432 40.6519C226.551 40.6519 227.372 40.8602 227.895 41.2767C228.419 41.6932 228.681 42.2942 228.681 43.0797C228.681 43.8889 228.383 44.5196 227.788 44.9719C227.205 45.4122 226.295 45.6324 225.057 45.6324H220.791ZM222.022 44.6327H225.003C225.801 44.6327 226.402 44.5077 226.806 44.2578C227.223 43.996 227.431 43.5795 227.431 43.0083C227.431 42.437 227.247 42.0205 226.878 41.7587C226.509 41.4969 225.926 41.366 225.128 41.366H222.022V44.6327ZM222.022 40.4198H224.843C225.569 40.4198 226.122 40.283 226.503 40.0093C226.896 39.7356 227.092 39.3369 227.092 38.8133C227.092 38.2896 226.896 37.8969 226.503 37.6351C226.122 37.3733 225.569 37.2424 224.843 37.2424H222.022V40.4198Z" fill="#0082CE"/>
<path d="M235.507 45.7216C234.603 45.7216 233.787 45.5193 233.061 45.1147C232.347 44.6982 231.782 44.1329 231.366 43.4188C230.949 42.6929 230.741 41.8658 230.741 40.9375C230.741 39.9974 230.949 39.1703 231.366 38.4562C231.782 37.7422 232.347 37.1829 233.061 36.7782C233.775 36.3736 234.591 36.1713 235.507 36.1713C236.435 36.1713 237.256 36.3736 237.97 36.7782C238.696 37.1829 239.262 37.7422 239.666 38.4562C240.083 39.1703 240.291 39.9974 240.291 40.9375C240.291 41.8658 240.083 42.6929 239.666 43.4188C239.262 44.1329 238.696 44.6982 237.97 45.1147C237.244 45.5193 236.423 45.7216 235.507 45.7216ZM235.507 44.597C236.185 44.597 236.786 44.4482 237.31 44.1507C237.834 43.8413 238.244 43.4129 238.542 42.8654C238.851 42.3061 239.006 41.6635 239.006 40.9375C239.006 40.1997 238.851 39.557 238.542 39.0096C238.244 38.4622 237.834 38.0397 237.31 37.7422C236.786 37.4328 236.191 37.2781 235.525 37.2781C234.858 37.2781 234.263 37.4328 233.74 37.7422C233.216 38.0397 232.8 38.4622 232.49 39.0096C232.181 39.557 232.026 40.1997 232.026 40.9375C232.026 41.6635 232.181 42.3061 232.49 42.8654C232.8 43.4129 233.216 43.8413 233.74 44.1507C234.263 44.4482 234.852 44.597 235.507 44.597Z" fill="#0082CE"/>
<path d="M157.78 24.3003C156.971 24.3003 156.239 24.1159 155.584 23.7469C154.93 23.3661 154.406 22.8246 154.014 22.1225C153.633 21.4085 153.442 20.5397 153.442 19.5162C153.442 18.4928 153.633 17.63 154.014 16.9278C154.394 16.2138 154.912 15.6723 155.567 15.3034C156.221 14.9345 156.959 14.75 157.78 14.75C158.673 14.75 159.47 14.9523 160.172 15.3569C160.886 15.7497 161.446 16.309 161.85 17.0349C162.255 17.749 162.457 18.5761 162.457 19.5162C162.457 20.4683 162.255 21.3013 161.85 22.0154C161.446 22.7294 160.886 23.2888 160.172 23.6934C159.47 24.098 158.673 24.3003 157.78 24.3003ZM152.943 27.6742V14.8393H154.156V17.6597L154.031 19.5341L154.21 21.4263V27.6742H152.943ZM157.691 23.1757C158.357 23.1757 158.952 23.027 159.476 22.7294C160 22.42 160.416 21.9916 160.726 21.4442C161.035 20.8848 161.19 20.2422 161.19 19.5162C161.19 18.7903 161.035 18.1536 160.726 17.6062C160.416 17.0587 160 16.6303 159.476 16.3209C158.952 16.0115 158.357 15.8568 157.691 15.8568C157.024 15.8568 156.423 16.0115 155.888 16.3209C155.364 16.6303 154.948 17.0587 154.638 17.6062C154.341 18.1536 154.192 18.7903 154.192 19.5162C154.192 20.2422 154.341 20.8848 154.638 21.4442C154.948 21.9916 155.364 22.42 155.888 22.7294C156.423 23.027 157.024 23.1757 157.691 23.1757Z" stroke="#0082CE" stroke-width="0.6" mask="url(#path-5-outside-1_56_4443)"/>
<path d="M169.197 24.3003C168.221 24.3003 167.364 24.098 166.626 23.6934C165.888 23.2769 165.311 22.7116 164.895 21.9975C164.478 21.2716 164.27 20.4445 164.27 19.5162C164.27 18.588 164.466 17.7668 164.859 17.0528C165.264 16.3387 165.811 15.7794 166.501 15.3748C167.203 14.9583 167.989 14.75 168.858 14.75C169.738 14.75 170.518 14.9523 171.196 15.3569C171.886 15.7497 172.428 16.309 172.821 17.0349C173.213 17.749 173.41 18.5761 173.41 19.5162C173.41 19.5757 173.404 19.6412 173.392 19.7126C173.392 19.7721 173.392 19.8376 173.392 19.909H165.234V18.9629H172.713L172.214 19.3377C172.214 18.6594 172.065 18.0584 171.767 17.5348C171.482 16.9992 171.089 16.5827 170.589 16.2852C170.089 15.9877 169.512 15.8389 168.858 15.8389C168.215 15.8389 167.638 15.9877 167.126 16.2852C166.614 16.5827 166.216 16.9992 165.93 17.5348C165.644 18.0703 165.502 18.6832 165.502 19.3734V19.5698C165.502 20.2838 165.656 20.9146 165.966 21.462C166.287 21.9975 166.727 22.42 167.287 22.7294C167.858 23.027 168.507 23.1757 169.232 23.1757C169.804 23.1757 170.333 23.0746 170.821 22.8722C171.321 22.6699 171.749 22.3605 172.106 21.944L172.821 22.7651C172.404 23.265 171.88 23.6458 171.25 23.9076C170.631 24.1694 169.947 24.3003 169.197 24.3003Z" stroke="#0082CE" stroke-width="0.6" mask="url(#path-5-outside-1_56_4443)"/>
<path d="M183.088 24.2111L179.232 19.5698L180.285 18.945L184.587 24.2111H183.088ZM176.215 24.2111V14.8393H177.483V24.2111H176.215ZM177.09 20.0339V18.945H180.107V20.0339H177.09ZM180.392 19.659L179.214 19.4805L182.945 14.8393H184.32L180.392 19.659Z" stroke="#0082CE" stroke-width="0.6" mask="url(#path-5-outside-1_56_4443)"/>
<path d="M184.874 24.1932L184.963 23.1043C185.046 23.1162 185.124 23.1341 185.195 23.1579C185.279 23.1698 185.35 23.1757 185.409 23.1757C185.79 23.1757 186.094 23.0329 186.32 22.7473C186.558 22.4617 186.736 22.0808 186.855 21.6048C186.974 21.1288 187.058 20.5933 187.105 19.9982C187.153 19.3913 187.195 18.7843 187.23 18.1774L187.391 14.8393H194.264V24.2111H192.996V15.5711L193.317 15.946H188.212L188.516 15.5533L188.373 18.2667C188.337 19.0759 188.272 19.8495 188.176 20.5873C188.093 21.3251 187.956 21.9737 187.766 22.5331C187.587 23.0924 187.337 23.5327 187.016 23.854C186.695 24.1635 186.284 24.3182 185.784 24.3182C185.642 24.3182 185.493 24.3063 185.338 24.2825C185.195 24.2587 185.041 24.2289 184.874 24.1932Z" stroke="#0082CE" stroke-width="0.6" mask="url(#path-5-outside-1_56_4443)"/>
<path d="M203.686 24.2111V22.1403L203.632 21.8012V18.3381C203.632 17.5407 203.406 16.9278 202.954 16.4994C202.514 16.071 201.853 15.8568 200.973 15.8568C200.366 15.8568 199.789 15.9579 199.241 16.1602C198.694 16.3625 198.23 16.6303 197.849 16.9635L197.277 16.0174C197.754 15.6128 198.325 15.3034 198.991 15.0892C199.658 14.8631 200.36 14.75 201.098 14.75C202.311 14.75 203.246 15.0535 203.9 15.6604C204.567 16.2554 204.9 17.1658 204.9 18.3916V24.2111H203.686ZM200.455 24.3003C199.753 24.3003 199.14 24.1873 198.616 23.9612C198.105 23.7231 197.712 23.4018 197.438 22.9972C197.164 22.5807 197.028 22.1046 197.028 21.5691C197.028 21.0812 197.141 20.6409 197.367 20.2481C197.605 19.8435 197.986 19.5222 198.509 19.2842C199.045 19.0343 199.759 18.9093 200.651 18.9093H203.882V19.8554H200.687C199.783 19.8554 199.152 20.0161 198.795 20.3374C198.45 20.6587 198.277 21.0574 198.277 21.5334C198.277 22.0689 198.485 22.4974 198.902 22.8187C199.318 23.14 199.902 23.3007 200.651 23.3007C201.365 23.3007 201.978 23.14 202.49 22.8187C203.014 22.4855 203.394 22.0094 203.632 21.3906L203.918 22.2653C203.68 22.8841 203.264 23.378 202.669 23.7469C202.085 24.1159 201.348 24.3003 200.455 24.3003Z" stroke="#0082CE" stroke-width="0.6" mask="url(#path-5-outside-1_56_4443)"/>
<path d="M208.274 24.2111V14.8393H209.559L213.808 22.0332H213.272L217.592 14.8393H218.77V24.2111H217.61V16.2852L217.842 16.3923L213.808 23.0686H213.236L209.166 16.3209L209.434 16.2673V24.2111H208.274Z" stroke="#0082CE" stroke-width="0.6" mask="url(#path-5-outside-1_56_4443)"/>
<path d="M222.377 24.2111V14.8393H223.644V18.9807H229.553V14.8393H230.82V24.2111H229.553V20.0696H223.644V24.2111H222.377Z" stroke="#0082CE" stroke-width="0.6" mask="url(#path-5-outside-1_56_4443)"/>
<path d="M238.279 24.3003C237.374 24.3003 236.559 24.098 235.833 23.6934C235.119 23.2769 234.554 22.7116 234.137 21.9975C233.721 21.2716 233.513 20.4445 233.513 19.5162C233.513 18.5761 233.721 17.749 234.137 17.0349C234.554 16.3209 235.119 15.7616 235.833 15.3569C236.547 14.9523 237.362 14.75 238.279 14.75C239.207 14.75 240.028 14.9523 240.742 15.3569C241.468 15.7616 242.033 16.3209 242.438 17.0349C242.855 17.749 243.063 18.5761 243.063 19.5162C243.063 20.4445 242.855 21.2716 242.438 21.9975C242.033 22.7116 241.468 23.2769 240.742 23.6934C240.016 24.098 239.195 24.3003 238.279 24.3003ZM238.279 23.1757C238.957 23.1757 239.558 23.027 240.082 22.7294C240.605 22.42 241.016 21.9916 241.313 21.4442C241.623 20.8848 241.778 20.2422 241.778 19.5162C241.778 18.7784 241.623 18.1358 241.313 17.5883C241.016 17.0409 240.605 16.6184 240.082 16.3209C239.558 16.0115 238.963 15.8568 238.297 15.8568C237.63 15.8568 237.035 16.0115 236.511 16.3209C235.988 16.6184 235.571 17.0409 235.262 17.5883C234.953 18.1358 234.798 18.7784 234.798 19.5162C234.798 20.2422 234.953 20.8848 235.262 21.4442C235.571 21.9916 235.988 22.42 236.511 22.7294C237.035 23.027 237.624 23.1757 238.279 23.1757Z" stroke="#0082CE" stroke-width="0.6" mask="url(#path-5-outside-1_56_4443)"/>
<path d="M249.788 24.3003C248.812 24.3003 247.955 24.098 247.218 23.6934C246.48 23.2769 245.903 22.7116 245.486 21.9975C245.069 21.2716 244.861 20.4445 244.861 19.5162C244.861 18.588 245.058 17.7668 245.45 17.0528C245.855 16.3387 246.402 15.7794 247.093 15.3748C247.795 14.9583 248.58 14.75 249.449 14.75C250.33 14.75 251.109 14.9523 251.787 15.3569C252.478 15.7497 253.019 16.309 253.412 17.0349C253.805 17.749 254.001 18.5761 254.001 19.5162C254.001 19.5757 253.995 19.6412 253.983 19.7126C253.983 19.7721 253.983 19.8376 253.983 19.909H245.825V18.9629H253.305L252.805 19.3377C252.805 18.6594 252.656 18.0584 252.359 17.5348C252.073 16.9992 251.68 16.5827 251.18 16.2852C250.681 15.9877 250.103 15.8389 249.449 15.8389C248.806 15.8389 248.229 15.9877 247.717 16.2852C247.206 16.5827 246.807 16.9992 246.521 17.5348C246.236 18.0703 246.093 18.6832 246.093 19.3734V19.5698C246.093 20.2838 246.248 20.9146 246.557 21.462C246.878 21.9975 247.319 22.42 247.878 22.7294C248.449 23.027 249.098 23.1757 249.824 23.1757C250.395 23.1757 250.925 23.0746 251.413 22.8722C251.912 22.6699 252.341 22.3605 252.698 21.944L253.412 22.7651C252.995 23.265 252.472 23.6458 251.841 23.9076C251.222 24.1694 250.538 24.3003 249.788 24.3003Z" stroke="#0082CE" stroke-width="0.6" mask="url(#path-5-outside-1_56_4443)"/>
<path d="M158.762 45.6324V43.5616L158.708 43.2225V39.7594C158.708 38.962 158.482 38.3491 158.03 37.9207C157.59 37.4923 156.929 37.2781 156.049 37.2781C155.442 37.2781 154.864 37.3792 154.317 37.5815C153.77 37.7838 153.305 38.0516 152.925 38.3848L152.353 37.4387C152.829 37.0341 153.401 36.7247 154.067 36.5105C154.734 36.2843 155.436 36.1713 156.174 36.1713C157.387 36.1713 158.322 36.4748 158.976 37.0817C159.643 37.6767 159.976 38.5871 159.976 39.8129V45.6324H158.762ZM155.531 45.7216C154.829 45.7216 154.216 45.6086 153.692 45.3825C153.181 45.1444 152.788 44.8231 152.514 44.4185C152.24 44.002 152.104 43.5259 152.104 42.9904C152.104 42.5025 152.217 42.0621 152.443 41.6694C152.681 41.2648 153.062 40.9435 153.585 40.7055C154.121 40.4556 154.835 40.3306 155.727 40.3306H158.958V41.2767H155.763C154.859 41.2767 154.228 41.4374 153.871 41.7587C153.526 42.08 153.353 42.4787 153.353 42.9547C153.353 43.4902 153.561 43.9187 153.978 44.24C154.394 44.5613 154.978 44.722 155.727 44.722C156.441 44.722 157.054 44.5613 157.566 44.24C158.09 43.9068 158.47 43.4307 158.708 42.8119L158.994 43.6866C158.756 44.3054 158.339 44.7993 157.744 45.1682C157.161 45.5372 156.423 45.7216 155.531 45.7216Z" stroke="#0082CE" stroke-width="0.6" mask="url(#path-5-outside-1_56_4443)"/>
<path d="M163.35 45.6324V36.2605H169.99V37.3673H164.296L164.617 37.046V45.6324H163.35Z" stroke="#0082CE" stroke-width="0.6" mask="url(#path-5-outside-1_56_4443)"/>
<path d="M175.403 45.7216C174.427 45.7216 173.57 45.5193 172.832 45.1147C172.094 44.6982 171.517 44.1329 171.101 43.4188C170.684 42.6929 170.476 41.8658 170.476 40.9375C170.476 40.0093 170.672 39.1881 171.065 38.4741C171.47 37.76 172.017 37.2007 172.707 36.7961C173.409 36.3796 174.195 36.1713 175.064 36.1713C175.944 36.1713 176.724 36.3736 177.402 36.7782C178.092 37.171 178.634 37.7303 179.027 38.4562C179.419 39.1703 179.616 39.9974 179.616 40.9375C179.616 40.997 179.61 41.0625 179.598 41.1339C179.598 41.1934 179.598 41.2589 179.598 41.3303H171.44V40.3841H178.919L178.42 40.759C178.42 40.0807 178.271 39.4797 177.973 38.9561C177.688 38.4205 177.295 38.004 176.795 37.7065C176.295 37.409 175.718 37.2602 175.064 37.2602C174.421 37.2602 173.844 37.409 173.332 37.7065C172.82 38.004 172.422 38.4205 172.136 38.9561C171.85 39.4916 171.708 40.1045 171.708 40.7947V40.9911C171.708 41.7051 171.862 42.3359 172.172 42.8833C172.493 43.4188 172.933 43.8413 173.493 44.1507C174.064 44.4482 174.713 44.597 175.439 44.597C176.01 44.597 176.539 44.4958 177.027 44.2935C177.527 44.0912 177.956 43.7818 178.313 43.3653L179.027 44.1864C178.61 44.6863 178.086 45.0671 177.456 45.3289C176.837 45.5907 176.153 45.7216 175.403 45.7216Z" stroke="#0082CE" stroke-width="0.6" mask="url(#path-5-outside-1_56_4443)"/>
<path d="M182.421 45.6324V36.2605H183.689V40.402H189.597V36.2605H190.865V45.6324H189.597V41.4909H183.689V45.6324H182.421Z" stroke="#0082CE" stroke-width="0.6" mask="url(#path-5-outside-1_56_4443)"/>
<path d="M196.252 45.6324V37.0281L196.574 37.3673H192.7V36.2605H201.072V37.3673H197.198L197.52 37.0281V45.6324H196.252Z" stroke="#0082CE" stroke-width="0.6" mask="url(#path-5-outside-1_56_4443)"/>
<path d="M206.396 45.7216C205.468 45.7216 204.635 45.5193 203.897 45.1147C203.171 44.6982 202.6 44.1329 202.183 43.4188C201.767 42.6929 201.558 41.8658 201.558 40.9375C201.558 39.9974 201.767 39.1703 202.183 38.4562C202.6 37.7422 203.171 37.1829 203.897 36.7782C204.635 36.3736 205.468 36.1713 206.396 36.1713C207.193 36.1713 207.913 36.326 208.556 36.6354C209.199 36.9448 209.704 37.409 210.073 38.0278L209.127 38.6704C208.806 38.1944 208.407 37.8433 207.931 37.6172C207.455 37.3911 206.938 37.2781 206.378 37.2781C205.712 37.2781 205.111 37.4328 204.575 37.7422C204.04 38.0397 203.617 38.4622 203.308 39.0096C202.998 39.557 202.844 40.1997 202.844 40.9375C202.844 41.6754 202.998 42.318 203.308 42.8654C203.617 43.4129 204.04 43.8413 204.575 44.1507C205.111 44.4482 205.712 44.597 206.378 44.597C206.938 44.597 207.455 44.4839 207.931 44.2578C208.407 44.0317 208.806 43.6866 209.127 43.2225L210.073 43.8651C209.704 44.472 209.199 44.9362 208.556 45.2575C207.913 45.5669 207.193 45.7216 206.396 45.7216Z" stroke="#0082CE" stroke-width="0.6" mask="url(#path-5-outside-1_56_4443)"/>
<path d="M214.138 45.6324V37.0281L214.46 37.3673H210.586V36.2605H218.958V37.3673H215.084L215.406 37.0281V45.6324H214.138Z" stroke="#0082CE" stroke-width="0.6" mask="url(#path-5-outside-1_56_4443)"/>
<path d="M220.791 45.6324V36.2605H224.932C225.991 36.2605 226.824 36.4629 227.431 36.8675C228.05 37.2721 228.359 37.8671 228.359 38.6526C228.359 39.4142 228.068 40.0033 227.485 40.4198C226.902 40.8245 226.134 41.0268 225.182 41.0268L225.432 40.6519C226.551 40.6519 227.372 40.8602 227.895 41.2767C228.419 41.6932 228.681 42.2942 228.681 43.0797C228.681 43.8889 228.383 44.5196 227.788 44.9719C227.205 45.4122 226.295 45.6324 225.057 45.6324H220.791ZM222.022 44.6327H225.003C225.801 44.6327 226.402 44.5077 226.806 44.2578C227.223 43.996 227.431 43.5795 227.431 43.0083C227.431 42.437 227.247 42.0205 226.878 41.7587C226.509 41.4969 225.926 41.366 225.128 41.366H222.022V44.6327ZM222.022 40.4198H224.843C225.569 40.4198 226.122 40.283 226.503 40.0093C226.896 39.7356 227.092 39.3369 227.092 38.8133C227.092 38.2896 226.896 37.8969 226.503 37.6351C226.122 37.3733 225.569 37.2424 224.843 37.2424H222.022V40.4198Z" stroke="#0082CE" stroke-width="0.6" mask="url(#path-5-outside-1_56_4443)"/>
<path d="M235.507 45.7216C234.603 45.7216 233.787 45.5193 233.061 45.1147C232.347 44.6982 231.782 44.1329 231.366 43.4188C230.949 42.6929 230.741 41.8658 230.741 40.9375C230.741 39.9974 230.949 39.1703 231.366 38.4562C231.782 37.7422 232.347 37.1829 233.061 36.7782C233.775 36.3736 234.591 36.1713 235.507 36.1713C236.435 36.1713 237.256 36.3736 237.97 36.7782C238.696 37.1829 239.262 37.7422 239.666 38.4562C240.083 39.1703 240.291 39.9974 240.291 40.9375C240.291 41.8658 240.083 42.6929 239.666 43.4188C239.262 44.1329 238.696 44.6982 237.97 45.1147C237.244 45.5193 236.423 45.7216 235.507 45.7216ZM235.507 44.597C236.185 44.597 236.786 44.4482 237.31 44.1507C237.834 43.8413 238.244 43.4129 238.542 42.8654C238.851 42.3061 239.006 41.6635 239.006 40.9375C239.006 40.1997 238.851 39.557 238.542 39.0096C238.244 38.4622 237.834 38.0397 237.31 37.7422C236.786 37.4328 236.191 37.2781 235.525 37.2781C234.858 37.2781 234.263 37.4328 233.74 37.7422C233.216 38.0397 232.8 38.4622 232.49 39.0096C232.181 39.557 232.026 40.1997 232.026 40.9375C232.026 41.6635 232.181 42.3061 232.49 42.8654C232.8 43.4129 233.216 43.8413 233.74 44.1507C234.263 44.4482 234.852 44.597 235.507 44.597Z" stroke="#0082CE" stroke-width="0.6" mask="url(#path-5-outside-1_56_4443)"/>
</svg>
