<svg width="44" height="44" viewBox="0 0 44 44" fill="none" xmlns="http://www.w3.org/2000/svg">
<g id="Solid/Interface/Cross">
<path id="Union" d="M29.4554 16.4908C29.9924 15.9539 29.9924 15.0833 29.4554 14.5463C28.9185 14.0093 28.0479 14.0093 27.5109 14.5463L22.0014 20.0558L16.4918 14.5463C15.9548 14.0093 15.0842 14.0093 14.5473 14.5463C14.0103 15.0833 14.0103 15.9539 14.5473 16.4908L20.0568 22.0004L14.5473 27.5099C14.0103 28.0469 14.0103 28.9175 14.5473 29.4545C15.0842 29.9914 15.9548 29.9914 16.4918 29.4545L22.0014 23.9449L27.5109 29.4545C28.0479 29.9914 28.9185 29.9914 29.4554 29.4545C29.9924 28.9175 29.9924 28.0469 29.4554 27.5099L23.9459 22.0004L29.4554 16.4908Z" fill="black"/>
</g>
</svg>
