<svg width="255" height="54" viewBox="0 0 255 54" fill="none" xmlns="http://www.w3.org/2000/svg">
<path d="M141.97 41.6814C141.181 41.6814 139.997 42.352 139.603 42.4861C138.682 42.6202 137.498 42.2179 136.84 36.9873C136.445 33.9026 136.84 30.6838 136.971 27.465C136.971 26.6603 128.815 27.8673 128.815 30.4155C128.684 34.3049 128.157 38.3285 129.078 42.0837C129.078 42.2179 129.078 42.2179 129.21 42.352C125.263 43.4249 121.317 41.279 119.87 36.9873C119.475 35.7802 119.343 34.4391 119.343 33.0979C119.343 32.6955 119.475 30.1473 119.738 29.3426C125.263 28.2697 130.525 26.392 135.393 23.7097C135.919 23.4414 137.235 22.7709 137.103 21.9661C135.656 10.5662 124.474 12.712 116.712 16.3332C114.739 17.272 114.213 17.8085 114.344 19.1497C114.476 20.3567 115.791 20.625 116.844 20.3567C118.159 19.9544 118.817 18.4791 120.396 17.8085C125.526 15.3944 127.894 19.4179 128.815 23.9779C125.658 25.3191 116.844 26.9285 113.818 27.465C112.503 27.7332 112.239 28.672 111.976 29.4767C111.582 31.3544 111.319 33.232 111.319 35.1096C111.187 37.3896 110.924 41.8155 108.951 42.0837C106.977 42.4861 107.372 33.6344 107.372 31.7567C107.504 27.465 107.898 23.4414 106.977 19.1497C105.53 12.4438 98.0318 13.3826 92.6381 15.7967C89.7439 12.4438 84.0872 12.9803 78.9566 14.4556C77.6411 14.8579 74.3522 15.6626 74.0891 17.4062C73.0367 27.7332 72.2474 38.8649 73.9576 49.192C67.643 46.7779 62.2494 39.9379 60.8023 33.0979C66.3275 32.2932 71.195 30.1473 70.5372 23.3073C69.3532 11.505 57.1188 10.4321 46.0683 15.3944C44.8844 15.9309 44.4897 16.7356 44.0951 18.4791C42.5164 24.3803 41.464 35.512 43.0426 44.7661C43.1742 45.4367 44.8844 46.3755 47.5154 46.3755C50.1465 46.3755 51.9882 45.7049 51.8567 44.7661C49.0941 33.7685 50.6727 21.2956 52.1198 16.6015C63.5649 15.5285 62.7756 27.7332 62.644 29.4767C62.3809 31.2202 60.1445 31.4885 59.4868 29.6108C58.829 27.8673 52.1198 29.2085 52.2513 32.8297C52.646 45.839 65.012 55.2272 77.2464 53.3496C78.1673 53.2155 83.4294 51.8743 83.1663 50.2649C80.2721 39.8038 80.5352 28.5379 81.5876 17.8085C89.8755 14.0532 86.0605 38.7308 85.9289 45.0343C85.9289 45.4367 87.1129 46.1073 90.1386 46.1073C92.9012 46.1073 94.0852 45.839 94.0852 44.632C94.2167 39.2673 94.3483 32.8296 94.3483 26.9285C94.3483 25.185 94.4798 20.4909 93.4274 18.4791C100.005 15.2603 99.3473 27.7332 99.2157 30.1473C99.2157 34.4391 98.0318 41.4132 101.452 44.9002C104.083 47.5826 110.135 46.1073 113.423 43.0226C114.081 43.8273 115.002 44.632 116.055 45.1684C120.001 47.4484 125.526 46.3755 130.262 44.4979C132.236 46.1073 135.524 45.9732 138.155 45.3026C139.471 45.0343 141.839 44.2296 142.628 42.7543C143.023 42.2179 142.76 41.6814 141.97 41.6814Z" fill="#2B2938"/>
<path d="M39.3581 39.8038C39.2266 38.5967 37.5164 38.5967 36.5955 38.7309C34.7538 38.9991 34.096 41.145 31.728 42.2179C30.281 42.8885 28.4392 43.0226 27.2552 42.6203C23.7033 41.4132 22.914 38.4626 22.3878 35.2438C21.73 30.5497 21.9931 24.3803 23.5718 19.8203C23.9664 18.6133 17.3888 17.0039 15.8101 20.8933C13.0475 28.0015 11.9951 39.2673 18.1781 44.632C23.1771 48.9238 30.9387 46.3756 36.464 42.8885C37.5164 42.2179 39.4897 40.7426 39.3581 39.8038Z" fill="#2B2938"/>
<path d="M7.5222 12.7098C10.6795 11.771 11.0741 11.2345 11.0741 10.2957C11.0741 8.01571 11.3372 5.73571 12.5212 3.99219C14.0998 3.85807 16.3362 4.39454 18.178 4.79689C20.2828 5.19924 21.7299 4.66278 23.0454 3.99219C23.177 3.99219 26.4658 1.84631 25.1503 1.57808C15.6785 -1.37251 3.3125 0.90749 3.3125 12.5757C3.3125 13.5145 4.49648 13.6486 7.5222 12.7098Z" fill="#2B2938"/>
<path d="M11.2054 17.0018C18.8355 15.2583 28.0442 14.0512 31.2015 22.0982C31.8592 23.7076 32.1224 25.4512 32.1224 27.1947C32.1224 28.67 31.7277 29.877 29.4913 29.4747C28.5704 29.3406 26.2025 28.1335 24.8869 28.9382C23.5714 29.7429 23.8345 32.9617 25.15 32.8276C29.6228 32.5594 39.6209 31.2182 40.2786 25.1829C40.6733 21.2935 40.0155 17.8065 36.332 14.8559C29.7544 9.49121 11.8632 13.3806 1.33897 16.7335C0.15499 17.1359 -0.371222 18.4771 0.286543 19.1477C1.07586 19.8182 3.04915 19.0135 2.9176 19.1477C1.99673 25.7194 1.99673 39.6676 2.6545 46.5076C2.6545 47.0441 3.57537 47.3123 6.20643 47.3123C8.83748 47.3123 10.8108 46.6417 10.6792 45.5688C10.4161 36.9853 9.6268 25.8535 11.2054 17.0018Z" fill="#2B2938"/>
<mask id="path-5-outside-1_60_67" maskUnits="userSpaceOnUse" x="151.102" y="13.75" width="104" height="33" fill="black">
<rect fill="white" x="151.102" y="13.75" width="104" height="33"/>
<path d="M157.778 24.3003C156.969 24.3003 156.237 24.1159 155.583 23.7469C154.928 23.3661 154.404 22.8246 154.012 22.1225C153.631 21.4085 153.44 20.5397 153.44 19.5162C153.44 18.4928 153.631 17.63 154.012 16.9278C154.392 16.2138 154.91 15.6723 155.565 15.3034C156.219 14.9345 156.957 14.75 157.778 14.75C158.671 14.75 159.468 14.9523 160.17 15.3569C160.884 15.7497 161.444 16.309 161.848 17.0349C162.253 17.749 162.455 18.5761 162.455 19.5162C162.455 20.4683 162.253 21.3013 161.848 22.0154C161.444 22.7294 160.884 23.2888 160.17 23.6934C159.468 24.098 158.671 24.3003 157.778 24.3003ZM152.941 27.6742V14.8393H154.154V17.6597L154.029 19.5341L154.208 21.4263V27.6742H152.941ZM157.689 23.1757C158.355 23.1757 158.95 23.027 159.474 22.7294C159.998 22.42 160.414 21.9916 160.724 21.4442C161.033 20.8848 161.188 20.2422 161.188 19.5162C161.188 18.7903 161.033 18.1536 160.724 17.6062C160.414 17.0587 159.998 16.6303 159.474 16.3209C158.95 16.0115 158.355 15.8568 157.689 15.8568C157.023 15.8568 156.422 16.0115 155.886 16.3209C155.362 16.6303 154.946 17.0587 154.636 17.6062C154.339 18.1536 154.19 18.7903 154.19 19.5162C154.19 20.2422 154.339 20.8848 154.636 21.4442C154.946 21.9916 155.362 22.42 155.886 22.7294C156.422 23.027 157.023 23.1757 157.689 23.1757Z"/>
<path d="M169.195 24.3003C168.219 24.3003 167.362 24.098 166.624 23.6934C165.886 23.2769 165.309 22.7116 164.893 21.9975C164.476 21.2716 164.268 20.4445 164.268 19.5162C164.268 18.588 164.464 17.7668 164.857 17.0528C165.262 16.3387 165.809 15.7794 166.499 15.3748C167.201 14.9583 167.987 14.75 168.856 14.75C169.736 14.75 170.516 14.9523 171.194 15.3569C171.884 15.7497 172.426 16.309 172.819 17.0349C173.211 17.749 173.408 18.5761 173.408 19.5162C173.408 19.5757 173.402 19.6412 173.39 19.7126C173.39 19.7721 173.39 19.8376 173.39 19.909H165.232V18.9629H172.711L172.212 19.3377C172.212 18.6594 172.063 18.0584 171.765 17.5348C171.48 16.9992 171.087 16.5827 170.587 16.2852C170.087 15.9877 169.51 15.8389 168.856 15.8389C168.213 15.8389 167.636 15.9877 167.124 16.2852C166.612 16.5827 166.214 16.9992 165.928 17.5348C165.642 18.0703 165.5 18.6832 165.5 19.3734V19.5698C165.5 20.2838 165.654 20.9146 165.964 21.462C166.285 21.9975 166.725 22.42 167.285 22.7294C167.856 23.027 168.505 23.1757 169.231 23.1757C169.802 23.1757 170.331 23.0746 170.819 22.8722C171.319 22.6699 171.748 22.3605 172.105 21.944L172.819 22.7651C172.402 23.265 171.878 23.6458 171.248 23.9076C170.629 24.1694 169.945 24.3003 169.195 24.3003Z"/>
<path d="M183.086 24.2111L179.23 19.5698L180.283 18.945L184.585 24.2111H183.086ZM176.213 24.2111V14.8393H177.481V24.2111H176.213ZM177.088 20.0339V18.945H180.105V20.0339H177.088ZM180.39 19.659L179.212 19.4805L182.943 14.8393H184.318L180.39 19.659Z"/>
<path d="M184.872 24.1932L184.961 23.1043C185.045 23.1162 185.122 23.1341 185.193 23.1579C185.277 23.1698 185.348 23.1757 185.407 23.1757C185.788 23.1757 186.092 23.0329 186.318 22.7473C186.556 22.4617 186.734 22.0808 186.853 21.6048C186.972 21.1288 187.056 20.5933 187.103 19.9982C187.151 19.3913 187.193 18.7843 187.228 18.1774L187.389 14.8393H194.262V24.2111H192.994V15.5711L193.316 15.946H188.21L188.514 15.5533L188.371 18.2667C188.335 19.0759 188.27 19.8495 188.174 20.5873C188.091 21.3251 187.954 21.9737 187.764 22.5331C187.585 23.0924 187.335 23.5327 187.014 23.854C186.693 24.1635 186.282 24.3182 185.782 24.3182C185.64 24.3182 185.491 24.3063 185.336 24.2825C185.193 24.2587 185.039 24.2289 184.872 24.1932Z"/>
<path d="M203.684 24.2111V22.1403L203.631 21.8012V18.3381C203.631 17.5407 203.404 16.9278 202.952 16.4994C202.512 16.071 201.851 15.8568 200.971 15.8568C200.364 15.8568 199.787 15.9579 199.239 16.1602C198.692 16.3625 198.228 16.6303 197.847 16.9635L197.276 16.0174C197.752 15.6128 198.323 15.3034 198.989 15.0892C199.656 14.8631 200.358 14.75 201.096 14.75C202.31 14.75 203.244 15.0535 203.898 15.6604C204.565 16.2554 204.898 17.1658 204.898 18.3916V24.2111H203.684ZM200.453 24.3003C199.751 24.3003 199.138 24.1873 198.614 23.9612C198.103 23.7231 197.71 23.4018 197.436 22.9972C197.162 22.5807 197.026 22.1046 197.026 21.5691C197.026 21.0812 197.139 20.6409 197.365 20.2481C197.603 19.8435 197.984 19.5222 198.507 19.2842C199.043 19.0343 199.757 18.9093 200.649 18.9093H203.88V19.8554H200.685C199.781 19.8554 199.15 20.0161 198.793 20.3374C198.448 20.6587 198.275 21.0574 198.275 21.5334C198.275 22.0689 198.483 22.4974 198.9 22.8187C199.316 23.14 199.9 23.3007 200.649 23.3007C201.363 23.3007 201.976 23.14 202.488 22.8187C203.012 22.4855 203.392 22.0094 203.631 21.3906L203.916 22.2653C203.678 22.8841 203.262 23.378 202.667 23.7469C202.083 24.1159 201.346 24.3003 200.453 24.3003Z"/>
<path d="M208.272 24.2111V14.8393H209.557L213.806 22.0332H213.27L217.59 14.8393H218.768V24.2111H217.608V16.2852L217.84 16.3923L213.806 23.0686H213.235L209.164 16.3209L209.432 16.2673V24.2111H208.272Z"/>
<path d="M222.375 24.2111V14.8393H223.642V18.9807H229.551V14.8393H230.819V24.2111H229.551V20.0696H223.642V24.2111H222.375Z"/>
<path d="M238.277 24.3003C237.372 24.3003 236.557 24.098 235.831 23.6934C235.117 23.2769 234.552 22.7116 234.135 21.9975C233.719 21.2716 233.511 20.4445 233.511 19.5162C233.511 18.5761 233.719 17.749 234.135 17.0349C234.552 16.3209 235.117 15.7616 235.831 15.3569C236.545 14.9523 237.36 14.75 238.277 14.75C239.205 14.75 240.026 14.9523 240.74 15.3569C241.466 15.7616 242.031 16.3209 242.436 17.0349C242.853 17.749 243.061 18.5761 243.061 19.5162C243.061 20.4445 242.853 21.2716 242.436 21.9975C242.031 22.7116 241.466 23.2769 240.74 23.6934C240.014 24.098 239.193 24.3003 238.277 24.3003ZM238.277 23.1757C238.955 23.1757 239.556 23.027 240.08 22.7294C240.603 22.42 241.014 21.9916 241.311 21.4442C241.621 20.8848 241.776 20.2422 241.776 19.5162C241.776 18.7784 241.621 18.1358 241.311 17.5883C241.014 17.0409 240.603 16.6184 240.08 16.3209C239.556 16.0115 238.961 15.8568 238.295 15.8568C237.628 15.8568 237.033 16.0115 236.51 16.3209C235.986 16.6184 235.569 17.0409 235.26 17.5883C234.951 18.1358 234.796 18.7784 234.796 19.5162C234.796 20.2422 234.951 20.8848 235.26 21.4442C235.569 21.9916 235.986 22.42 236.51 22.7294C237.033 23.027 237.622 23.1757 238.277 23.1757Z"/>
<path d="M249.786 24.3003C248.81 24.3003 247.953 24.098 247.216 23.6934C246.478 23.2769 245.901 22.7116 245.484 21.9975C245.068 21.2716 244.859 20.4445 244.859 19.5162C244.859 18.588 245.056 17.7668 245.448 17.0528C245.853 16.3387 246.4 15.7794 247.091 15.3748C247.793 14.9583 248.578 14.75 249.447 14.75C250.328 14.75 251.107 14.9523 251.785 15.3569C252.476 15.7497 253.017 16.309 253.41 17.0349C253.803 17.749 253.999 18.5761 253.999 19.5162C253.999 19.5757 253.993 19.6412 253.981 19.7126C253.981 19.7721 253.981 19.8376 253.981 19.909H245.823V18.9629H253.303L252.803 19.3377C252.803 18.6594 252.654 18.0584 252.357 17.5348C252.071 16.9992 251.678 16.5827 251.179 16.2852C250.679 15.9877 250.102 15.8389 249.447 15.8389C248.804 15.8389 248.227 15.9877 247.715 16.2852C247.204 16.5827 246.805 16.9992 246.519 17.5348C246.234 18.0703 246.091 18.6832 246.091 19.3734V19.5698C246.091 20.2838 246.246 20.9146 246.555 21.462C246.876 21.9975 247.317 22.42 247.876 22.7294C248.447 23.027 249.096 23.1757 249.822 23.1757C250.393 23.1757 250.923 23.0746 251.411 22.8722C251.91 22.6699 252.339 22.3605 252.696 21.944L253.41 22.7651C252.993 23.265 252.47 23.6458 251.839 23.9076C251.22 24.1694 250.536 24.3003 249.786 24.3003Z"/>
<path d="M158.76 45.6324V43.5616L158.706 43.2225V39.7594C158.706 38.962 158.48 38.3491 158.028 37.9207C157.588 37.4923 156.927 37.2781 156.047 37.2781C155.44 37.2781 154.863 37.3792 154.315 37.5815C153.768 37.7838 153.304 38.0516 152.923 38.3848L152.351 37.4387C152.828 37.0341 153.399 36.7247 154.065 36.5105C154.732 36.2843 155.434 36.1713 156.172 36.1713C157.385 36.1713 158.32 36.4748 158.974 37.0817C159.641 37.6767 159.974 38.5871 159.974 39.8129V45.6324H158.76ZM155.529 45.7216C154.827 45.7216 154.214 45.6086 153.69 45.3825C153.179 45.1444 152.786 44.8231 152.512 44.4185C152.238 44.002 152.102 43.5259 152.102 42.9904C152.102 42.5025 152.215 42.0621 152.441 41.6694C152.679 41.2648 153.06 40.9435 153.583 40.7055C154.119 40.4556 154.833 40.3306 155.725 40.3306H158.956V41.2767H155.761C154.857 41.2767 154.226 41.4374 153.869 41.7587C153.524 42.08 153.351 42.4787 153.351 42.9547C153.351 43.4902 153.559 43.9187 153.976 44.24C154.392 44.5613 154.976 44.722 155.725 44.722C156.439 44.722 157.052 44.5613 157.564 44.24C158.088 43.9068 158.468 43.4307 158.706 42.8119L158.992 43.6866C158.754 44.3054 158.338 44.7993 157.743 45.1682C157.159 45.5372 156.422 45.7216 155.529 45.7216Z"/>
<path d="M163.348 45.6324V36.2605H169.988V37.3673H164.294L164.615 37.046V45.6324H163.348Z"/>
<path d="M175.401 45.7216C174.425 45.7216 173.568 45.5193 172.83 45.1147C172.092 44.6982 171.515 44.1329 171.099 43.4188C170.682 42.6929 170.474 41.8658 170.474 40.9375C170.474 40.0093 170.67 39.1881 171.063 38.4741C171.468 37.76 172.015 37.2007 172.705 36.7961C173.407 36.3796 174.193 36.1713 175.062 36.1713C175.942 36.1713 176.722 36.3736 177.4 36.7782C178.09 37.171 178.632 37.7303 179.025 38.4562C179.417 39.1703 179.614 39.9974 179.614 40.9375C179.614 40.997 179.608 41.0625 179.596 41.1339C179.596 41.1934 179.596 41.2589 179.596 41.3303H171.438V40.3841H178.918L178.418 40.759C178.418 40.0807 178.269 39.4797 177.971 38.9561C177.686 38.4205 177.293 38.004 176.793 37.7065C176.293 37.409 175.716 37.2602 175.062 37.2602C174.419 37.2602 173.842 37.409 173.33 37.7065C172.818 38.004 172.42 38.4205 172.134 38.9561C171.848 39.4916 171.706 40.1045 171.706 40.7947V40.9911C171.706 41.7051 171.86 42.3359 172.17 42.8833C172.491 43.4188 172.931 43.8413 173.491 44.1507C174.062 44.4482 174.711 44.597 175.437 44.597C176.008 44.597 176.537 44.4958 177.025 44.2935C177.525 44.0912 177.954 43.7818 178.311 43.3653L179.025 44.1864C178.608 44.6863 178.084 45.0671 177.454 45.3289C176.835 45.5907 176.151 45.7216 175.401 45.7216Z"/>
<path d="M182.419 45.6324V36.2605H183.687V40.402H189.595V36.2605H190.863V45.6324H189.595V41.4909H183.687V45.6324H182.419Z"/>
<path d="M196.25 45.6324V37.0281L196.572 37.3673H192.698V36.2605H201.07V37.3673H197.196L197.518 37.0281V45.6324H196.25Z"/>
<path d="M206.394 45.7216C205.466 45.7216 204.633 45.5193 203.895 45.1147C203.169 44.6982 202.598 44.1329 202.181 43.4188C201.765 42.6929 201.556 41.8658 201.556 40.9375C201.556 39.9974 201.765 39.1703 202.181 38.4562C202.598 37.7422 203.169 37.1829 203.895 36.7782C204.633 36.3736 205.466 36.1713 206.394 36.1713C207.191 36.1713 207.911 36.326 208.554 36.6354C209.197 36.9448 209.702 37.409 210.071 38.0278L209.125 38.6704C208.804 38.1944 208.405 37.8433 207.929 37.6172C207.453 37.3911 206.936 37.2781 206.376 37.2781C205.71 37.2781 205.109 37.4328 204.573 37.7422C204.038 38.0397 203.615 38.4622 203.306 39.0096C202.996 39.557 202.842 40.1997 202.842 40.9375C202.842 41.6754 202.996 42.318 203.306 42.8654C203.615 43.4129 204.038 43.8413 204.573 44.1507C205.109 44.4482 205.71 44.597 206.376 44.597C206.936 44.597 207.453 44.4839 207.929 44.2578C208.405 44.0317 208.804 43.6866 209.125 43.2225L210.071 43.8651C209.702 44.472 209.197 44.9362 208.554 45.2575C207.911 45.5669 207.191 45.7216 206.394 45.7216Z"/>
<path d="M214.136 45.6324V37.0281L214.458 37.3673H210.584V36.2605H218.956V37.3673H215.082L215.404 37.0281V45.6324H214.136Z"/>
<path d="M220.789 45.6324V36.2605H224.93C225.989 36.2605 226.822 36.4629 227.429 36.8675C228.048 37.2721 228.357 37.8671 228.357 38.6526C228.357 39.4142 228.066 40.0033 227.483 40.4198C226.9 40.8245 226.132 41.0268 225.18 41.0268L225.43 40.6519C226.549 40.6519 227.37 40.8602 227.893 41.2767C228.417 41.6932 228.679 42.2942 228.679 43.0797C228.679 43.8889 228.381 44.5196 227.786 44.9719C227.203 45.4122 226.293 45.6324 225.055 45.6324H220.789ZM222.02 44.6327H225.001C225.799 44.6327 226.4 44.5077 226.804 44.2578C227.221 43.996 227.429 43.5795 227.429 43.0083C227.429 42.437 227.245 42.0205 226.876 41.7587C226.507 41.4969 225.924 41.366 225.126 41.366H222.02V44.6327ZM222.02 40.4198H224.841C225.567 40.4198 226.12 40.283 226.501 40.0093C226.894 39.7356 227.09 39.3369 227.09 38.8133C227.09 38.2896 226.894 37.8969 226.501 37.6351C226.12 37.3733 225.567 37.2424 224.841 37.2424H222.02V40.4198Z"/>
<path d="M235.505 45.7216C234.601 45.7216 233.785 45.5193 233.059 45.1147C232.345 44.6982 231.78 44.1329 231.364 43.4188C230.947 42.6929 230.739 41.8658 230.739 40.9375C230.739 39.9974 230.947 39.1703 231.364 38.4562C231.78 37.7422 232.345 37.1829 233.059 36.7782C233.773 36.3736 234.589 36.1713 235.505 36.1713C236.433 36.1713 237.254 36.3736 237.968 36.7782C238.694 37.1829 239.26 37.7422 239.664 38.4562C240.081 39.1703 240.289 39.9974 240.289 40.9375C240.289 41.8658 240.081 42.6929 239.664 43.4188C239.26 44.1329 238.694 44.6982 237.968 45.1147C237.243 45.5193 236.421 45.7216 235.505 45.7216ZM235.505 44.597C236.183 44.597 236.784 44.4482 237.308 44.1507C237.832 43.8413 238.242 43.4129 238.54 42.8654C238.849 42.3061 239.004 41.6635 239.004 40.9375C239.004 40.1997 238.849 39.557 238.54 39.0096C238.242 38.4622 237.832 38.0397 237.308 37.7422C236.784 37.4328 236.189 37.2781 235.523 37.2781C234.856 37.2781 234.261 37.4328 233.738 37.7422C233.214 38.0397 232.798 38.4622 232.488 39.0096C232.179 39.557 232.024 40.1997 232.024 40.9375C232.024 41.6635 232.179 42.3061 232.488 42.8654C232.798 43.4129 233.214 43.8413 233.738 44.1507C234.261 44.4482 234.85 44.597 235.505 44.597Z"/>
</mask>
<path d="M157.778 24.3003C156.969 24.3003 156.237 24.1159 155.583 23.7469C154.928 23.3661 154.404 22.8246 154.012 22.1225C153.631 21.4085 153.44 20.5397 153.44 19.5162C153.44 18.4928 153.631 17.63 154.012 16.9278C154.392 16.2138 154.91 15.6723 155.565 15.3034C156.219 14.9345 156.957 14.75 157.778 14.75C158.671 14.75 159.468 14.9523 160.17 15.3569C160.884 15.7497 161.444 16.309 161.848 17.0349C162.253 17.749 162.455 18.5761 162.455 19.5162C162.455 20.4683 162.253 21.3013 161.848 22.0154C161.444 22.7294 160.884 23.2888 160.17 23.6934C159.468 24.098 158.671 24.3003 157.778 24.3003ZM152.941 27.6742V14.8393H154.154V17.6597L154.029 19.5341L154.208 21.4263V27.6742H152.941ZM157.689 23.1757C158.355 23.1757 158.95 23.027 159.474 22.7294C159.998 22.42 160.414 21.9916 160.724 21.4442C161.033 20.8848 161.188 20.2422 161.188 19.5162C161.188 18.7903 161.033 18.1536 160.724 17.6062C160.414 17.0587 159.998 16.6303 159.474 16.3209C158.95 16.0115 158.355 15.8568 157.689 15.8568C157.023 15.8568 156.422 16.0115 155.886 16.3209C155.362 16.6303 154.946 17.0587 154.636 17.6062C154.339 18.1536 154.19 18.7903 154.19 19.5162C154.19 20.2422 154.339 20.8848 154.636 21.4442C154.946 21.9916 155.362 22.42 155.886 22.7294C156.422 23.027 157.023 23.1757 157.689 23.1757Z" fill="#2B2938"/>
<path d="M169.195 24.3003C168.219 24.3003 167.362 24.098 166.624 23.6934C165.886 23.2769 165.309 22.7116 164.893 21.9975C164.476 21.2716 164.268 20.4445 164.268 19.5162C164.268 18.588 164.464 17.7668 164.857 17.0528C165.262 16.3387 165.809 15.7794 166.499 15.3748C167.201 14.9583 167.987 14.75 168.856 14.75C169.736 14.75 170.516 14.9523 171.194 15.3569C171.884 15.7497 172.426 16.309 172.819 17.0349C173.211 17.749 173.408 18.5761 173.408 19.5162C173.408 19.5757 173.402 19.6412 173.39 19.7126C173.39 19.7721 173.39 19.8376 173.39 19.909H165.232V18.9629H172.711L172.212 19.3377C172.212 18.6594 172.063 18.0584 171.765 17.5348C171.48 16.9992 171.087 16.5827 170.587 16.2852C170.087 15.9877 169.51 15.8389 168.856 15.8389C168.213 15.8389 167.636 15.9877 167.124 16.2852C166.612 16.5827 166.214 16.9992 165.928 17.5348C165.642 18.0703 165.5 18.6832 165.5 19.3734V19.5698C165.5 20.2838 165.654 20.9146 165.964 21.462C166.285 21.9975 166.725 22.42 167.285 22.7294C167.856 23.027 168.505 23.1757 169.231 23.1757C169.802 23.1757 170.331 23.0746 170.819 22.8722C171.319 22.6699 171.748 22.3605 172.105 21.944L172.819 22.7651C172.402 23.265 171.878 23.6458 171.248 23.9076C170.629 24.1694 169.945 24.3003 169.195 24.3003Z" fill="#2B2938"/>
<path d="M183.086 24.2111L179.23 19.5698L180.283 18.945L184.585 24.2111H183.086ZM176.213 24.2111V14.8393H177.481V24.2111H176.213ZM177.088 20.0339V18.945H180.105V20.0339H177.088ZM180.39 19.659L179.212 19.4805L182.943 14.8393H184.318L180.39 19.659Z" fill="#2B2938"/>
<path d="M184.872 24.1932L184.961 23.1043C185.045 23.1162 185.122 23.1341 185.193 23.1579C185.277 23.1698 185.348 23.1757 185.407 23.1757C185.788 23.1757 186.092 23.0329 186.318 22.7473C186.556 22.4617 186.734 22.0808 186.853 21.6048C186.972 21.1288 187.056 20.5933 187.103 19.9982C187.151 19.3913 187.193 18.7843 187.228 18.1774L187.389 14.8393H194.262V24.2111H192.994V15.5711L193.316 15.946H188.21L188.514 15.5533L188.371 18.2667C188.335 19.0759 188.27 19.8495 188.174 20.5873C188.091 21.3251 187.954 21.9737 187.764 22.5331C187.585 23.0924 187.335 23.5327 187.014 23.854C186.693 24.1635 186.282 24.3182 185.782 24.3182C185.64 24.3182 185.491 24.3063 185.336 24.2825C185.193 24.2587 185.039 24.2289 184.872 24.1932Z" fill="#2B2938"/>
<path d="M203.684 24.2111V22.1403L203.631 21.8012V18.3381C203.631 17.5407 203.404 16.9278 202.952 16.4994C202.512 16.071 201.851 15.8568 200.971 15.8568C200.364 15.8568 199.787 15.9579 199.239 16.1602C198.692 16.3625 198.228 16.6303 197.847 16.9635L197.276 16.0174C197.752 15.6128 198.323 15.3034 198.989 15.0892C199.656 14.8631 200.358 14.75 201.096 14.75C202.31 14.75 203.244 15.0535 203.898 15.6604C204.565 16.2554 204.898 17.1658 204.898 18.3916V24.2111H203.684ZM200.453 24.3003C199.751 24.3003 199.138 24.1873 198.614 23.9612C198.103 23.7231 197.71 23.4018 197.436 22.9972C197.162 22.5807 197.026 22.1046 197.026 21.5691C197.026 21.0812 197.139 20.6409 197.365 20.2481C197.603 19.8435 197.984 19.5222 198.507 19.2842C199.043 19.0343 199.757 18.9093 200.649 18.9093H203.88V19.8554H200.685C199.781 19.8554 199.15 20.0161 198.793 20.3374C198.448 20.6587 198.275 21.0574 198.275 21.5334C198.275 22.0689 198.483 22.4974 198.9 22.8187C199.316 23.14 199.9 23.3007 200.649 23.3007C201.363 23.3007 201.976 23.14 202.488 22.8187C203.012 22.4855 203.392 22.0094 203.631 21.3906L203.916 22.2653C203.678 22.8841 203.262 23.378 202.667 23.7469C202.083 24.1159 201.346 24.3003 200.453 24.3003Z" fill="#2B2938"/>
<path d="M208.272 24.2111V14.8393H209.557L213.806 22.0332H213.27L217.59 14.8393H218.768V24.2111H217.608V16.2852L217.84 16.3923L213.806 23.0686H213.235L209.164 16.3209L209.432 16.2673V24.2111H208.272Z" fill="#2B2938"/>
<path d="M222.375 24.2111V14.8393H223.642V18.9807H229.551V14.8393H230.819V24.2111H229.551V20.0696H223.642V24.2111H222.375Z" fill="#2B2938"/>
<path d="M238.277 24.3003C237.372 24.3003 236.557 24.098 235.831 23.6934C235.117 23.2769 234.552 22.7116 234.135 21.9975C233.719 21.2716 233.511 20.4445 233.511 19.5162C233.511 18.5761 233.719 17.749 234.135 17.0349C234.552 16.3209 235.117 15.7616 235.831 15.3569C236.545 14.9523 237.36 14.75 238.277 14.75C239.205 14.75 240.026 14.9523 240.74 15.3569C241.466 15.7616 242.031 16.3209 242.436 17.0349C242.853 17.749 243.061 18.5761 243.061 19.5162C243.061 20.4445 242.853 21.2716 242.436 21.9975C242.031 22.7116 241.466 23.2769 240.74 23.6934C240.014 24.098 239.193 24.3003 238.277 24.3003ZM238.277 23.1757C238.955 23.1757 239.556 23.027 240.08 22.7294C240.603 22.42 241.014 21.9916 241.311 21.4442C241.621 20.8848 241.776 20.2422 241.776 19.5162C241.776 18.7784 241.621 18.1358 241.311 17.5883C241.014 17.0409 240.603 16.6184 240.08 16.3209C239.556 16.0115 238.961 15.8568 238.295 15.8568C237.628 15.8568 237.033 16.0115 236.51 16.3209C235.986 16.6184 235.569 17.0409 235.26 17.5883C234.951 18.1358 234.796 18.7784 234.796 19.5162C234.796 20.2422 234.951 20.8848 235.26 21.4442C235.569 21.9916 235.986 22.42 236.51 22.7294C237.033 23.027 237.622 23.1757 238.277 23.1757Z" fill="#2B2938"/>
<path d="M249.786 24.3003C248.81 24.3003 247.953 24.098 247.216 23.6934C246.478 23.2769 245.901 22.7116 245.484 21.9975C245.068 21.2716 244.859 20.4445 244.859 19.5162C244.859 18.588 245.056 17.7668 245.448 17.0528C245.853 16.3387 246.4 15.7794 247.091 15.3748C247.793 14.9583 248.578 14.75 249.447 14.75C250.328 14.75 251.107 14.9523 251.785 15.3569C252.476 15.7497 253.017 16.309 253.41 17.0349C253.803 17.749 253.999 18.5761 253.999 19.5162C253.999 19.5757 253.993 19.6412 253.981 19.7126C253.981 19.7721 253.981 19.8376 253.981 19.909H245.823V18.9629H253.303L252.803 19.3377C252.803 18.6594 252.654 18.0584 252.357 17.5348C252.071 16.9992 251.678 16.5827 251.179 16.2852C250.679 15.9877 250.102 15.8389 249.447 15.8389C248.804 15.8389 248.227 15.9877 247.715 16.2852C247.204 16.5827 246.805 16.9992 246.519 17.5348C246.234 18.0703 246.091 18.6832 246.091 19.3734V19.5698C246.091 20.2838 246.246 20.9146 246.555 21.462C246.876 21.9975 247.317 22.42 247.876 22.7294C248.447 23.027 249.096 23.1757 249.822 23.1757C250.393 23.1757 250.923 23.0746 251.411 22.8722C251.91 22.6699 252.339 22.3605 252.696 21.944L253.41 22.7651C252.993 23.265 252.47 23.6458 251.839 23.9076C251.22 24.1694 250.536 24.3003 249.786 24.3003Z" fill="#2B2938"/>
<path d="M158.76 45.6324V43.5616L158.706 43.2225V39.7594C158.706 38.962 158.48 38.3491 158.028 37.9207C157.588 37.4923 156.927 37.2781 156.047 37.2781C155.44 37.2781 154.863 37.3792 154.315 37.5815C153.768 37.7838 153.304 38.0516 152.923 38.3848L152.351 37.4387C152.828 37.0341 153.399 36.7247 154.065 36.5105C154.732 36.2843 155.434 36.1713 156.172 36.1713C157.385 36.1713 158.32 36.4748 158.974 37.0817C159.641 37.6767 159.974 38.5871 159.974 39.8129V45.6324H158.76ZM155.529 45.7216C154.827 45.7216 154.214 45.6086 153.69 45.3825C153.179 45.1444 152.786 44.8231 152.512 44.4185C152.238 44.002 152.102 43.5259 152.102 42.9904C152.102 42.5025 152.215 42.0621 152.441 41.6694C152.679 41.2648 153.06 40.9435 153.583 40.7055C154.119 40.4556 154.833 40.3306 155.725 40.3306H158.956V41.2767H155.761C154.857 41.2767 154.226 41.4374 153.869 41.7587C153.524 42.08 153.351 42.4787 153.351 42.9547C153.351 43.4902 153.559 43.9187 153.976 44.24C154.392 44.5613 154.976 44.722 155.725 44.722C156.439 44.722 157.052 44.5613 157.564 44.24C158.088 43.9068 158.468 43.4307 158.706 42.8119L158.992 43.6866C158.754 44.3054 158.338 44.7993 157.743 45.1682C157.159 45.5372 156.422 45.7216 155.529 45.7216Z" fill="#2B2938"/>
<path d="M163.348 45.6324V36.2605H169.988V37.3673H164.294L164.615 37.046V45.6324H163.348Z" fill="#2B2938"/>
<path d="M175.401 45.7216C174.425 45.7216 173.568 45.5193 172.83 45.1147C172.092 44.6982 171.515 44.1329 171.099 43.4188C170.682 42.6929 170.474 41.8658 170.474 40.9375C170.474 40.0093 170.67 39.1881 171.063 38.4741C171.468 37.76 172.015 37.2007 172.705 36.7961C173.407 36.3796 174.193 36.1713 175.062 36.1713C175.942 36.1713 176.722 36.3736 177.4 36.7782C178.09 37.171 178.632 37.7303 179.025 38.4562C179.417 39.1703 179.614 39.9974 179.614 40.9375C179.614 40.997 179.608 41.0625 179.596 41.1339C179.596 41.1934 179.596 41.2589 179.596 41.3303H171.438V40.3841H178.918L178.418 40.759C178.418 40.0807 178.269 39.4797 177.971 38.9561C177.686 38.4205 177.293 38.004 176.793 37.7065C176.293 37.409 175.716 37.2602 175.062 37.2602C174.419 37.2602 173.842 37.409 173.33 37.7065C172.818 38.004 172.42 38.4205 172.134 38.9561C171.848 39.4916 171.706 40.1045 171.706 40.7947V40.9911C171.706 41.7051 171.86 42.3359 172.17 42.8833C172.491 43.4188 172.931 43.8413 173.491 44.1507C174.062 44.4482 174.711 44.597 175.437 44.597C176.008 44.597 176.537 44.4958 177.025 44.2935C177.525 44.0912 177.954 43.7818 178.311 43.3653L179.025 44.1864C178.608 44.6863 178.084 45.0671 177.454 45.3289C176.835 45.5907 176.151 45.7216 175.401 45.7216Z" fill="#2B2938"/>
<path d="M182.419 45.6324V36.2605H183.687V40.402H189.595V36.2605H190.863V45.6324H189.595V41.4909H183.687V45.6324H182.419Z" fill="#2B2938"/>
<path d="M196.25 45.6324V37.0281L196.572 37.3673H192.698V36.2605H201.07V37.3673H197.196L197.518 37.0281V45.6324H196.25Z" fill="#2B2938"/>
<path d="M206.394 45.7216C205.466 45.7216 204.633 45.5193 203.895 45.1147C203.169 44.6982 202.598 44.1329 202.181 43.4188C201.765 42.6929 201.556 41.8658 201.556 40.9375C201.556 39.9974 201.765 39.1703 202.181 38.4562C202.598 37.7422 203.169 37.1829 203.895 36.7782C204.633 36.3736 205.466 36.1713 206.394 36.1713C207.191 36.1713 207.911 36.326 208.554 36.6354C209.197 36.9448 209.702 37.409 210.071 38.0278L209.125 38.6704C208.804 38.1944 208.405 37.8433 207.929 37.6172C207.453 37.3911 206.936 37.2781 206.376 37.2781C205.71 37.2781 205.109 37.4328 204.573 37.7422C204.038 38.0397 203.615 38.4622 203.306 39.0096C202.996 39.557 202.842 40.1997 202.842 40.9375C202.842 41.6754 202.996 42.318 203.306 42.8654C203.615 43.4129 204.038 43.8413 204.573 44.1507C205.109 44.4482 205.71 44.597 206.376 44.597C206.936 44.597 207.453 44.4839 207.929 44.2578C208.405 44.0317 208.804 43.6866 209.125 43.2225L210.071 43.8651C209.702 44.472 209.197 44.9362 208.554 45.2575C207.911 45.5669 207.191 45.7216 206.394 45.7216Z" fill="#2B2938"/>
<path d="M214.136 45.6324V37.0281L214.458 37.3673H210.584V36.2605H218.956V37.3673H215.082L215.404 37.0281V45.6324H214.136Z" fill="#2B2938"/>
<path d="M220.789 45.6324V36.2605H224.93C225.989 36.2605 226.822 36.4629 227.429 36.8675C228.048 37.2721 228.357 37.8671 228.357 38.6526C228.357 39.4142 228.066 40.0033 227.483 40.4198C226.9 40.8245 226.132 41.0268 225.18 41.0268L225.43 40.6519C226.549 40.6519 227.37 40.8602 227.893 41.2767C228.417 41.6932 228.679 42.2942 228.679 43.0797C228.679 43.8889 228.381 44.5196 227.786 44.9719C227.203 45.4122 226.293 45.6324 225.055 45.6324H220.789ZM222.02 44.6327H225.001C225.799 44.6327 226.4 44.5077 226.804 44.2578C227.221 43.996 227.429 43.5795 227.429 43.0083C227.429 42.437 227.245 42.0205 226.876 41.7587C226.507 41.4969 225.924 41.366 225.126 41.366H222.02V44.6327ZM222.02 40.4198H224.841C225.567 40.4198 226.12 40.283 226.501 40.0093C226.894 39.7356 227.09 39.3369 227.09 38.8133C227.09 38.2896 226.894 37.8969 226.501 37.6351C226.12 37.3733 225.567 37.2424 224.841 37.2424H222.02V40.4198Z" fill="#2B2938"/>
<path d="M235.505 45.7216C234.601 45.7216 233.785 45.5193 233.059 45.1147C232.345 44.6982 231.78 44.1329 231.364 43.4188C230.947 42.6929 230.739 41.8658 230.739 40.9375C230.739 39.9974 230.947 39.1703 231.364 38.4562C231.78 37.7422 232.345 37.1829 233.059 36.7782C233.773 36.3736 234.589 36.1713 235.505 36.1713C236.433 36.1713 237.254 36.3736 237.968 36.7782C238.694 37.1829 239.26 37.7422 239.664 38.4562C240.081 39.1703 240.289 39.9974 240.289 40.9375C240.289 41.8658 240.081 42.6929 239.664 43.4188C239.26 44.1329 238.694 44.6982 237.968 45.1147C237.243 45.5193 236.421 45.7216 235.505 45.7216ZM235.505 44.597C236.183 44.597 236.784 44.4482 237.308 44.1507C237.832 43.8413 238.242 43.4129 238.54 42.8654C238.849 42.3061 239.004 41.6635 239.004 40.9375C239.004 40.1997 238.849 39.557 238.54 39.0096C238.242 38.4622 237.832 38.0397 237.308 37.7422C236.784 37.4328 236.189 37.2781 235.523 37.2781C234.856 37.2781 234.261 37.4328 233.738 37.7422C233.214 38.0397 232.798 38.4622 232.488 39.0096C232.179 39.557 232.024 40.1997 232.024 40.9375C232.024 41.6635 232.179 42.3061 232.488 42.8654C232.798 43.4129 233.214 43.8413 233.738 44.1507C234.261 44.4482 234.85 44.597 235.505 44.597Z" fill="#2B2938"/>
<path d="M157.778 24.3003C156.969 24.3003 156.237 24.1159 155.583 23.7469C154.928 23.3661 154.404 22.8246 154.012 22.1225C153.631 21.4085 153.44 20.5397 153.44 19.5162C153.44 18.4928 153.631 17.63 154.012 16.9278C154.392 16.2138 154.91 15.6723 155.565 15.3034C156.219 14.9345 156.957 14.75 157.778 14.75C158.671 14.75 159.468 14.9523 160.17 15.3569C160.884 15.7497 161.444 16.309 161.848 17.0349C162.253 17.749 162.455 18.5761 162.455 19.5162C162.455 20.4683 162.253 21.3013 161.848 22.0154C161.444 22.7294 160.884 23.2888 160.17 23.6934C159.468 24.098 158.671 24.3003 157.778 24.3003ZM152.941 27.6742V14.8393H154.154V17.6597L154.029 19.5341L154.208 21.4263V27.6742H152.941ZM157.689 23.1757C158.355 23.1757 158.95 23.027 159.474 22.7294C159.998 22.42 160.414 21.9916 160.724 21.4442C161.033 20.8848 161.188 20.2422 161.188 19.5162C161.188 18.7903 161.033 18.1536 160.724 17.6062C160.414 17.0587 159.998 16.6303 159.474 16.3209C158.95 16.0115 158.355 15.8568 157.689 15.8568C157.023 15.8568 156.422 16.0115 155.886 16.3209C155.362 16.6303 154.946 17.0587 154.636 17.6062C154.339 18.1536 154.19 18.7903 154.19 19.5162C154.19 20.2422 154.339 20.8848 154.636 21.4442C154.946 21.9916 155.362 22.42 155.886 22.7294C156.422 23.027 157.023 23.1757 157.689 23.1757Z" stroke="#2B2938" stroke-width="0.6" mask="url(#path-5-outside-1_60_67)"/>
<path d="M169.195 24.3003C168.219 24.3003 167.362 24.098 166.624 23.6934C165.886 23.2769 165.309 22.7116 164.893 21.9975C164.476 21.2716 164.268 20.4445 164.268 19.5162C164.268 18.588 164.464 17.7668 164.857 17.0528C165.262 16.3387 165.809 15.7794 166.499 15.3748C167.201 14.9583 167.987 14.75 168.856 14.75C169.736 14.75 170.516 14.9523 171.194 15.3569C171.884 15.7497 172.426 16.309 172.819 17.0349C173.211 17.749 173.408 18.5761 173.408 19.5162C173.408 19.5757 173.402 19.6412 173.39 19.7126C173.39 19.7721 173.39 19.8376 173.39 19.909H165.232V18.9629H172.711L172.212 19.3377C172.212 18.6594 172.063 18.0584 171.765 17.5348C171.48 16.9992 171.087 16.5827 170.587 16.2852C170.087 15.9877 169.51 15.8389 168.856 15.8389C168.213 15.8389 167.636 15.9877 167.124 16.2852C166.612 16.5827 166.214 16.9992 165.928 17.5348C165.642 18.0703 165.5 18.6832 165.5 19.3734V19.5698C165.5 20.2838 165.654 20.9146 165.964 21.462C166.285 21.9975 166.725 22.42 167.285 22.7294C167.856 23.027 168.505 23.1757 169.231 23.1757C169.802 23.1757 170.331 23.0746 170.819 22.8722C171.319 22.6699 171.748 22.3605 172.105 21.944L172.819 22.7651C172.402 23.265 171.878 23.6458 171.248 23.9076C170.629 24.1694 169.945 24.3003 169.195 24.3003Z" stroke="#2B2938" stroke-width="0.6" mask="url(#path-5-outside-1_60_67)"/>
<path d="M183.086 24.2111L179.23 19.5698L180.283 18.945L184.585 24.2111H183.086ZM176.213 24.2111V14.8393H177.481V24.2111H176.213ZM177.088 20.0339V18.945H180.105V20.0339H177.088ZM180.39 19.659L179.212 19.4805L182.943 14.8393H184.318L180.39 19.659Z" stroke="#2B2938" stroke-width="0.6" mask="url(#path-5-outside-1_60_67)"/>
<path d="M184.872 24.1932L184.961 23.1043C185.045 23.1162 185.122 23.1341 185.193 23.1579C185.277 23.1698 185.348 23.1757 185.407 23.1757C185.788 23.1757 186.092 23.0329 186.318 22.7473C186.556 22.4617 186.734 22.0808 186.853 21.6048C186.972 21.1288 187.056 20.5933 187.103 19.9982C187.151 19.3913 187.193 18.7843 187.228 18.1774L187.389 14.8393H194.262V24.2111H192.994V15.5711L193.316 15.946H188.21L188.514 15.5533L188.371 18.2667C188.335 19.0759 188.27 19.8495 188.174 20.5873C188.091 21.3251 187.954 21.9737 187.764 22.5331C187.585 23.0924 187.335 23.5327 187.014 23.854C186.693 24.1635 186.282 24.3182 185.782 24.3182C185.64 24.3182 185.491 24.3063 185.336 24.2825C185.193 24.2587 185.039 24.2289 184.872 24.1932Z" stroke="#2B2938" stroke-width="0.6" mask="url(#path-5-outside-1_60_67)"/>
<path d="M203.684 24.2111V22.1403L203.631 21.8012V18.3381C203.631 17.5407 203.404 16.9278 202.952 16.4994C202.512 16.071 201.851 15.8568 200.971 15.8568C200.364 15.8568 199.787 15.9579 199.239 16.1602C198.692 16.3625 198.228 16.6303 197.847 16.9635L197.276 16.0174C197.752 15.6128 198.323 15.3034 198.989 15.0892C199.656 14.8631 200.358 14.75 201.096 14.75C202.31 14.75 203.244 15.0535 203.898 15.6604C204.565 16.2554 204.898 17.1658 204.898 18.3916V24.2111H203.684ZM200.453 24.3003C199.751 24.3003 199.138 24.1873 198.614 23.9612C198.103 23.7231 197.71 23.4018 197.436 22.9972C197.162 22.5807 197.026 22.1046 197.026 21.5691C197.026 21.0812 197.139 20.6409 197.365 20.2481C197.603 19.8435 197.984 19.5222 198.507 19.2842C199.043 19.0343 199.757 18.9093 200.649 18.9093H203.88V19.8554H200.685C199.781 19.8554 199.15 20.0161 198.793 20.3374C198.448 20.6587 198.275 21.0574 198.275 21.5334C198.275 22.0689 198.483 22.4974 198.9 22.8187C199.316 23.14 199.9 23.3007 200.649 23.3007C201.363 23.3007 201.976 23.14 202.488 22.8187C203.012 22.4855 203.392 22.0094 203.631 21.3906L203.916 22.2653C203.678 22.8841 203.262 23.378 202.667 23.7469C202.083 24.1159 201.346 24.3003 200.453 24.3003Z" stroke="#2B2938" stroke-width="0.6" mask="url(#path-5-outside-1_60_67)"/>
<path d="M208.272 24.2111V14.8393H209.557L213.806 22.0332H213.27L217.59 14.8393H218.768V24.2111H217.608V16.2852L217.84 16.3923L213.806 23.0686H213.235L209.164 16.3209L209.432 16.2673V24.2111H208.272Z" stroke="#2B2938" stroke-width="0.6" mask="url(#path-5-outside-1_60_67)"/>
<path d="M222.375 24.2111V14.8393H223.642V18.9807H229.551V14.8393H230.819V24.2111H229.551V20.0696H223.642V24.2111H222.375Z" stroke="#2B2938" stroke-width="0.6" mask="url(#path-5-outside-1_60_67)"/>
<path d="M238.277 24.3003C237.372 24.3003 236.557 24.098 235.831 23.6934C235.117 23.2769 234.552 22.7116 234.135 21.9975C233.719 21.2716 233.511 20.4445 233.511 19.5162C233.511 18.5761 233.719 17.749 234.135 17.0349C234.552 16.3209 235.117 15.7616 235.831 15.3569C236.545 14.9523 237.36 14.75 238.277 14.75C239.205 14.75 240.026 14.9523 240.74 15.3569C241.466 15.7616 242.031 16.3209 242.436 17.0349C242.853 17.749 243.061 18.5761 243.061 19.5162C243.061 20.4445 242.853 21.2716 242.436 21.9975C242.031 22.7116 241.466 23.2769 240.74 23.6934C240.014 24.098 239.193 24.3003 238.277 24.3003ZM238.277 23.1757C238.955 23.1757 239.556 23.027 240.08 22.7294C240.603 22.42 241.014 21.9916 241.311 21.4442C241.621 20.8848 241.776 20.2422 241.776 19.5162C241.776 18.7784 241.621 18.1358 241.311 17.5883C241.014 17.0409 240.603 16.6184 240.08 16.3209C239.556 16.0115 238.961 15.8568 238.295 15.8568C237.628 15.8568 237.033 16.0115 236.51 16.3209C235.986 16.6184 235.569 17.0409 235.26 17.5883C234.951 18.1358 234.796 18.7784 234.796 19.5162C234.796 20.2422 234.951 20.8848 235.26 21.4442C235.569 21.9916 235.986 22.42 236.51 22.7294C237.033 23.027 237.622 23.1757 238.277 23.1757Z" stroke="#2B2938" stroke-width="0.6" mask="url(#path-5-outside-1_60_67)"/>
<path d="M249.786 24.3003C248.81 24.3003 247.953 24.098 247.216 23.6934C246.478 23.2769 245.901 22.7116 245.484 21.9975C245.068 21.2716 244.859 20.4445 244.859 19.5162C244.859 18.588 245.056 17.7668 245.448 17.0528C245.853 16.3387 246.4 15.7794 247.091 15.3748C247.793 14.9583 248.578 14.75 249.447 14.75C250.328 14.75 251.107 14.9523 251.785 15.3569C252.476 15.7497 253.017 16.309 253.41 17.0349C253.803 17.749 253.999 18.5761 253.999 19.5162C253.999 19.5757 253.993 19.6412 253.981 19.7126C253.981 19.7721 253.981 19.8376 253.981 19.909H245.823V18.9629H253.303L252.803 19.3377C252.803 18.6594 252.654 18.0584 252.357 17.5348C252.071 16.9992 251.678 16.5827 251.179 16.2852C250.679 15.9877 250.102 15.8389 249.447 15.8389C248.804 15.8389 248.227 15.9877 247.715 16.2852C247.204 16.5827 246.805 16.9992 246.519 17.5348C246.234 18.0703 246.091 18.6832 246.091 19.3734V19.5698C246.091 20.2838 246.246 20.9146 246.555 21.462C246.876 21.9975 247.317 22.42 247.876 22.7294C248.447 23.027 249.096 23.1757 249.822 23.1757C250.393 23.1757 250.923 23.0746 251.411 22.8722C251.91 22.6699 252.339 22.3605 252.696 21.944L253.41 22.7651C252.993 23.265 252.47 23.6458 251.839 23.9076C251.22 24.1694 250.536 24.3003 249.786 24.3003Z" stroke="#2B2938" stroke-width="0.6" mask="url(#path-5-outside-1_60_67)"/>
<path d="M158.76 45.6324V43.5616L158.706 43.2225V39.7594C158.706 38.962 158.48 38.3491 158.028 37.9207C157.588 37.4923 156.927 37.2781 156.047 37.2781C155.44 37.2781 154.863 37.3792 154.315 37.5815C153.768 37.7838 153.304 38.0516 152.923 38.3848L152.351 37.4387C152.828 37.0341 153.399 36.7247 154.065 36.5105C154.732 36.2843 155.434 36.1713 156.172 36.1713C157.385 36.1713 158.32 36.4748 158.974 37.0817C159.641 37.6767 159.974 38.5871 159.974 39.8129V45.6324H158.76ZM155.529 45.7216C154.827 45.7216 154.214 45.6086 153.69 45.3825C153.179 45.1444 152.786 44.8231 152.512 44.4185C152.238 44.002 152.102 43.5259 152.102 42.9904C152.102 42.5025 152.215 42.0621 152.441 41.6694C152.679 41.2648 153.06 40.9435 153.583 40.7055C154.119 40.4556 154.833 40.3306 155.725 40.3306H158.956V41.2767H155.761C154.857 41.2767 154.226 41.4374 153.869 41.7587C153.524 42.08 153.351 42.4787 153.351 42.9547C153.351 43.4902 153.559 43.9187 153.976 44.24C154.392 44.5613 154.976 44.722 155.725 44.722C156.439 44.722 157.052 44.5613 157.564 44.24C158.088 43.9068 158.468 43.4307 158.706 42.8119L158.992 43.6866C158.754 44.3054 158.338 44.7993 157.743 45.1682C157.159 45.5372 156.422 45.7216 155.529 45.7216Z" stroke="#2B2938" stroke-width="0.6" mask="url(#path-5-outside-1_60_67)"/>
<path d="M163.348 45.6324V36.2605H169.988V37.3673H164.294L164.615 37.046V45.6324H163.348Z" stroke="#2B2938" stroke-width="0.6" mask="url(#path-5-outside-1_60_67)"/>
<path d="M175.401 45.7216C174.425 45.7216 173.568 45.5193 172.83 45.1147C172.092 44.6982 171.515 44.1329 171.099 43.4188C170.682 42.6929 170.474 41.8658 170.474 40.9375C170.474 40.0093 170.67 39.1881 171.063 38.4741C171.468 37.76 172.015 37.2007 172.705 36.7961C173.407 36.3796 174.193 36.1713 175.062 36.1713C175.942 36.1713 176.722 36.3736 177.4 36.7782C178.09 37.171 178.632 37.7303 179.025 38.4562C179.417 39.1703 179.614 39.9974 179.614 40.9375C179.614 40.997 179.608 41.0625 179.596 41.1339C179.596 41.1934 179.596 41.2589 179.596 41.3303H171.438V40.3841H178.918L178.418 40.759C178.418 40.0807 178.269 39.4797 177.971 38.9561C177.686 38.4205 177.293 38.004 176.793 37.7065C176.293 37.409 175.716 37.2602 175.062 37.2602C174.419 37.2602 173.842 37.409 173.33 37.7065C172.818 38.004 172.42 38.4205 172.134 38.9561C171.848 39.4916 171.706 40.1045 171.706 40.7947V40.9911C171.706 41.7051 171.86 42.3359 172.17 42.8833C172.491 43.4188 172.931 43.8413 173.491 44.1507C174.062 44.4482 174.711 44.597 175.437 44.597C176.008 44.597 176.537 44.4958 177.025 44.2935C177.525 44.0912 177.954 43.7818 178.311 43.3653L179.025 44.1864C178.608 44.6863 178.084 45.0671 177.454 45.3289C176.835 45.5907 176.151 45.7216 175.401 45.7216Z" stroke="#2B2938" stroke-width="0.6" mask="url(#path-5-outside-1_60_67)"/>
<path d="M182.419 45.6324V36.2605H183.687V40.402H189.595V36.2605H190.863V45.6324H189.595V41.4909H183.687V45.6324H182.419Z" stroke="#2B2938" stroke-width="0.6" mask="url(#path-5-outside-1_60_67)"/>
<path d="M196.25 45.6324V37.0281L196.572 37.3673H192.698V36.2605H201.07V37.3673H197.196L197.518 37.0281V45.6324H196.25Z" stroke="#2B2938" stroke-width="0.6" mask="url(#path-5-outside-1_60_67)"/>
<path d="M206.394 45.7216C205.466 45.7216 204.633 45.5193 203.895 45.1147C203.169 44.6982 202.598 44.1329 202.181 43.4188C201.765 42.6929 201.556 41.8658 201.556 40.9375C201.556 39.9974 201.765 39.1703 202.181 38.4562C202.598 37.7422 203.169 37.1829 203.895 36.7782C204.633 36.3736 205.466 36.1713 206.394 36.1713C207.191 36.1713 207.911 36.326 208.554 36.6354C209.197 36.9448 209.702 37.409 210.071 38.0278L209.125 38.6704C208.804 38.1944 208.405 37.8433 207.929 37.6172C207.453 37.3911 206.936 37.2781 206.376 37.2781C205.71 37.2781 205.109 37.4328 204.573 37.7422C204.038 38.0397 203.615 38.4622 203.306 39.0096C202.996 39.557 202.842 40.1997 202.842 40.9375C202.842 41.6754 202.996 42.318 203.306 42.8654C203.615 43.4129 204.038 43.8413 204.573 44.1507C205.109 44.4482 205.71 44.597 206.376 44.597C206.936 44.597 207.453 44.4839 207.929 44.2578C208.405 44.0317 208.804 43.6866 209.125 43.2225L210.071 43.8651C209.702 44.472 209.197 44.9362 208.554 45.2575C207.911 45.5669 207.191 45.7216 206.394 45.7216Z" stroke="#2B2938" stroke-width="0.6" mask="url(#path-5-outside-1_60_67)"/>
<path d="M214.136 45.6324V37.0281L214.458 37.3673H210.584V36.2605H218.956V37.3673H215.082L215.404 37.0281V45.6324H214.136Z" stroke="#2B2938" stroke-width="0.6" mask="url(#path-5-outside-1_60_67)"/>
<path d="M220.789 45.6324V36.2605H224.93C225.989 36.2605 226.822 36.4629 227.429 36.8675C228.048 37.2721 228.357 37.8671 228.357 38.6526C228.357 39.4142 228.066 40.0033 227.483 40.4198C226.9 40.8245 226.132 41.0268 225.18 41.0268L225.43 40.6519C226.549 40.6519 227.37 40.8602 227.893 41.2767C228.417 41.6932 228.679 42.2942 228.679 43.0797C228.679 43.8889 228.381 44.5196 227.786 44.9719C227.203 45.4122 226.293 45.6324 225.055 45.6324H220.789ZM222.02 44.6327H225.001C225.799 44.6327 226.4 44.5077 226.804 44.2578C227.221 43.996 227.429 43.5795 227.429 43.0083C227.429 42.437 227.245 42.0205 226.876 41.7587C226.507 41.4969 225.924 41.366 225.126 41.366H222.02V44.6327ZM222.02 40.4198H224.841C225.567 40.4198 226.12 40.283 226.501 40.0093C226.894 39.7356 227.09 39.3369 227.09 38.8133C227.09 38.2896 226.894 37.8969 226.501 37.6351C226.12 37.3733 225.567 37.2424 224.841 37.2424H222.02V40.4198Z" stroke="#2B2938" stroke-width="0.6" mask="url(#path-5-outside-1_60_67)"/>
<path d="M235.505 45.7216C234.601 45.7216 233.785 45.5193 233.059 45.1147C232.345 44.6982 231.78 44.1329 231.364 43.4188C230.947 42.6929 230.739 41.8658 230.739 40.9375C230.739 39.9974 230.947 39.1703 231.364 38.4562C231.78 37.7422 232.345 37.1829 233.059 36.7782C233.773 36.3736 234.589 36.1713 235.505 36.1713C236.433 36.1713 237.254 36.3736 237.968 36.7782C238.694 37.1829 239.26 37.7422 239.664 38.4562C240.081 39.1703 240.289 39.9974 240.289 40.9375C240.289 41.8658 240.081 42.6929 239.664 43.4188C239.26 44.1329 238.694 44.6982 237.968 45.1147C237.243 45.5193 236.421 45.7216 235.505 45.7216ZM235.505 44.597C236.183 44.597 236.784 44.4482 237.308 44.1507C237.832 43.8413 238.242 43.4129 238.54 42.8654C238.849 42.3061 239.004 41.6635 239.004 40.9375C239.004 40.1997 238.849 39.557 238.54 39.0096C238.242 38.4622 237.832 38.0397 237.308 37.7422C236.784 37.4328 236.189 37.2781 235.523 37.2781C234.856 37.2781 234.261 37.4328 233.738 37.7422C233.214 38.0397 232.798 38.4622 232.488 39.0096C232.179 39.557 232.024 40.1997 232.024 40.9375C232.024 41.6635 232.179 42.3061 232.488 42.8654C232.798 43.4129 233.214 43.8413 233.738 44.1507C234.261 44.4482 234.85 44.597 235.505 44.597Z" stroke="#2B2938" stroke-width="0.6" mask="url(#path-5-outside-1_60_67)"/>
</svg>
