<svg width="254" height="55" viewBox="0 0 254 55" fill="none" xmlns="http://www.w3.org/2000/svg">
<path d="M141.97 42.2634C141.181 42.2634 139.997 42.934 139.603 43.0681C138.682 43.2022 137.498 42.7999 136.84 37.5693C136.445 34.4846 136.84 31.2658 136.971 28.047C136.971 27.2423 128.815 28.4493 128.815 30.9976C128.684 34.887 128.157 38.9105 129.078 42.6658C129.078 42.7999 129.078 42.7999 129.21 42.934C125.263 44.007 121.317 41.8611 119.87 37.5693C119.475 36.3623 119.343 35.0211 119.343 33.6799C119.343 33.2776 119.475 30.7293 119.738 29.9246C125.263 28.8517 130.525 26.974 135.393 24.2917C135.919 24.0235 137.235 23.3529 137.103 22.5482C135.656 11.1482 124.474 13.2941 116.712 16.9152C114.739 17.8541 114.213 18.3905 114.344 19.7317C114.476 20.9388 115.791 21.207 116.844 20.9388C118.159 20.5364 118.817 19.0611 120.396 18.3905C125.526 15.9764 127.894 19.9999 128.815 24.5599C125.658 25.9011 116.844 27.5105 113.818 28.047C112.503 28.3152 112.239 29.254 111.976 30.0587C111.582 31.9364 111.319 33.814 111.319 35.6917C111.187 37.9717 110.924 42.3975 108.951 42.6658C106.977 43.0681 107.372 34.2164 107.372 32.3387C107.504 28.047 107.898 24.0235 106.977 19.7317C105.53 13.0258 98.0318 13.9647 92.6381 16.3788C89.7439 13.0258 84.0872 13.5623 78.9566 15.0376C77.6411 15.44 74.3522 16.2447 74.0891 17.9882C73.0367 28.3152 72.2474 39.447 73.9576 49.774C67.643 47.3599 62.2494 40.5199 60.8023 33.6799C66.3275 32.8752 71.195 30.7293 70.5372 23.8894C69.3532 12.087 57.1188 11.0141 46.0683 15.9764C44.8844 16.5129 44.4897 17.3176 44.0951 19.0611C42.5164 24.9623 41.464 36.094 43.0426 45.3481C43.1742 46.0187 44.8844 46.9575 47.5154 46.9575C50.1465 46.9575 51.9882 46.2869 51.8567 45.3481C49.0941 34.3505 50.6727 21.8776 52.1198 17.1835C63.5649 16.1105 62.7756 28.3152 62.644 30.0587C62.3809 31.8023 60.1445 32.0705 59.4868 30.1929C58.829 28.4493 52.1198 29.7905 52.2513 33.4117C52.646 46.4211 65.012 55.8093 77.2464 53.9316C78.1673 53.7975 83.4294 52.4563 83.1663 50.8469C80.2721 40.3858 80.5352 29.1199 81.5876 18.3905C89.8755 14.6353 86.0605 39.3128 85.9289 45.6164C85.9289 46.0187 87.1129 46.6893 90.1386 46.6893C92.9012 46.6893 94.0852 46.4211 94.0852 45.214C94.2167 39.8493 94.3483 33.4117 94.3483 27.5105C94.3483 25.767 94.4798 21.0729 93.4274 19.0611C100.005 15.8423 99.3473 28.3152 99.2157 30.7293C99.2157 35.0211 98.0318 41.9952 101.452 45.4822C104.083 48.1646 110.135 46.6893 113.423 43.6046C114.081 44.4093 115.002 45.214 116.055 45.7505C120.001 48.0305 125.526 46.9575 130.262 45.0799C132.236 46.6893 135.524 46.5552 138.155 45.8846C139.471 45.6164 141.839 44.8117 142.628 43.3364C143.023 42.7999 142.76 42.2634 141.97 42.2634Z" fill="white"/>
<path d="M39.3581 40.3858C39.2266 39.1788 37.5164 39.1788 36.5955 39.3129C34.7538 39.5811 34.096 41.727 31.728 42.7999C30.281 43.4705 28.4392 43.6046 27.2552 43.2023C23.7033 41.9952 22.914 39.0447 22.3878 35.8258C21.73 31.1317 21.9931 24.9623 23.5718 20.4024C23.9664 19.1953 17.3888 17.5859 15.8101 21.4753C13.0475 28.5835 11.9951 39.8494 18.1781 45.2141C23.1771 49.5058 30.9387 46.9576 36.464 43.4705C37.5164 42.7999 39.4897 41.3247 39.3581 40.3858Z" fill="white"/>
<path d="M7.5222 13.2918C10.6795 12.353 11.0741 11.8166 11.0741 10.8777C11.0741 8.59774 11.3372 6.31774 12.5212 4.57422C14.0998 4.4401 16.3362 4.97657 18.178 5.37892C20.2828 5.78128 21.7299 5.24481 23.0454 4.57422C23.177 4.57422 26.4658 2.42834 25.1503 2.16011C15.6785 -0.790474 3.3125 1.48952 3.3125 13.1577C3.3125 14.0966 4.49648 14.2307 7.5222 13.2918Z" fill="white"/>
<path d="M11.2054 17.5838C18.8355 15.8403 28.0442 14.6332 31.2015 22.6803C31.8592 24.2897 32.1224 26.0332 32.1224 27.7767C32.1224 29.252 31.7277 30.4591 29.4913 30.0567C28.5704 29.9226 26.2025 28.7155 24.8869 29.5202C23.5714 30.325 23.8345 33.5438 25.15 33.4097C29.6228 33.1414 39.6209 31.8002 40.2786 25.765C40.6733 21.8756 40.0155 18.3885 36.332 15.4379C29.7544 10.0732 11.8632 13.9626 1.33897 17.3156C0.15499 17.7179 -0.371222 19.0591 0.286543 19.7297C1.07586 20.4003 3.04915 19.5956 2.9176 19.7297C1.99673 26.3014 1.99673 40.2496 2.6545 47.0896C2.6545 47.6261 3.57537 47.8943 6.20643 47.8943C8.83748 47.8943 10.8108 47.2237 10.6792 46.1508C10.4161 37.5673 9.6268 26.4356 11.2054 17.5838Z" fill="white"/>
<path d="M157.778 24.8824C156.969 24.8824 156.237 24.6979 155.583 24.329C154.928 23.9482 154.404 23.4067 154.012 22.7045C153.631 21.9905 153.44 21.1217 153.44 20.0983C153.44 19.0748 153.631 18.212 154.012 17.5099C154.392 16.7958 154.91 16.2543 155.565 15.8854C156.219 15.5165 156.957 15.332 157.778 15.332C158.671 15.332 159.468 15.5343 160.17 15.939C160.884 16.3317 161.444 16.891 161.848 17.617C162.253 18.331 162.455 19.1581 162.455 20.0983C162.455 21.0503 162.253 21.8834 161.848 22.5974C161.444 23.3115 160.884 23.8708 160.17 24.2754C159.468 24.68 158.671 24.8824 157.778 24.8824ZM152.941 28.2562V15.4213H154.154V18.2418L154.029 20.1161L154.208 22.0083V28.2562H152.941ZM157.689 23.7577C158.355 23.7577 158.95 23.609 159.474 23.3115C159.998 23.002 160.414 22.5736 160.724 22.0262C161.033 21.4669 161.188 20.8242 161.188 20.0983C161.188 19.3723 161.033 18.7356 160.724 18.1882C160.414 17.6408 159.998 17.2123 159.474 16.9029C158.95 16.5935 158.355 16.4388 157.689 16.4388C157.023 16.4388 156.422 16.5935 155.886 16.9029C155.362 17.2123 154.946 17.6408 154.636 18.1882C154.339 18.7356 154.19 19.3723 154.19 20.0983C154.19 20.8242 154.339 21.4669 154.636 22.0262C154.946 22.5736 155.362 23.002 155.886 23.3115C156.422 23.609 157.023 23.7577 157.689 23.7577Z" fill="white"/>
<path d="M169.195 24.8824C168.219 24.8824 167.362 24.68 166.624 24.2754C165.886 23.8589 165.309 23.2936 164.893 22.5796C164.476 21.8536 164.268 21.0265 164.268 20.0983C164.268 19.17 164.464 18.3489 164.857 17.6348C165.262 16.9208 165.809 16.3614 166.499 15.9568C167.201 15.5403 167.987 15.332 168.856 15.332C169.736 15.332 170.516 15.5343 171.194 15.939C171.884 16.3317 172.426 16.891 172.819 17.617C173.211 18.331 173.408 19.1581 173.408 20.0983C173.408 20.1578 173.402 20.2232 173.39 20.2946C173.39 20.3541 173.39 20.4196 173.39 20.491H165.232V19.5449H172.711L172.212 19.9198C172.212 19.2414 172.063 18.6404 171.765 18.1168C171.48 17.5813 171.087 17.1647 170.587 16.8672C170.087 16.5697 169.51 16.4209 168.856 16.4209C168.213 16.4209 167.636 16.5697 167.124 16.8672C166.612 17.1647 166.214 17.5813 165.928 18.1168C165.642 18.6523 165.5 19.2652 165.5 19.9555V20.1518C165.5 20.8659 165.654 21.4966 165.964 22.044C166.285 22.5796 166.725 23.002 167.285 23.3115C167.856 23.609 168.505 23.7577 169.231 23.7577C169.802 23.7577 170.331 23.6566 170.819 23.4543C171.319 23.252 171.748 22.9425 172.105 22.526L172.819 23.3472C172.402 23.847 171.878 24.2278 171.248 24.4896C170.629 24.7514 169.945 24.8824 169.195 24.8824Z" fill="white"/>
<path d="M183.086 24.7931L179.23 20.1518L180.283 19.527L184.585 24.7931H183.086ZM176.213 24.7931V15.4213H177.481V24.7931H176.213ZM177.088 20.616V19.527H180.105V20.616H177.088ZM180.39 20.2411L179.212 20.0626L182.943 15.4213H184.318L180.39 20.2411Z" fill="white"/>
<path d="M184.872 24.7753L184.961 23.6863C185.045 23.6982 185.122 23.7161 185.193 23.7399C185.277 23.7518 185.348 23.7577 185.407 23.7577C185.788 23.7577 186.092 23.6149 186.318 23.3293C186.556 23.0437 186.734 22.6629 186.853 22.1868C186.972 21.7108 187.056 21.1753 187.103 20.5802C187.151 19.9733 187.193 19.3664 187.228 18.7594L187.389 15.4213H194.262V24.7931H192.994V16.1532L193.316 16.5281H188.21L188.514 16.1353L188.371 18.8487C188.335 19.6579 188.27 20.4315 188.174 21.1693C188.091 21.9072 187.954 22.5558 187.764 23.1151C187.585 23.6744 187.335 24.1148 187.014 24.4361C186.693 24.7455 186.282 24.9002 185.782 24.9002C185.64 24.9002 185.491 24.8883 185.336 24.8645C185.193 24.8407 185.039 24.811 184.872 24.7753Z" fill="white"/>
<path d="M203.684 24.7931V22.7224L203.631 22.3832V18.9201C203.631 18.1227 203.404 17.5099 202.952 17.0814C202.512 16.653 201.851 16.4388 200.971 16.4388C200.364 16.4388 199.787 16.54 199.239 16.7423C198.692 16.9446 198.228 17.2123 197.847 17.5456L197.276 16.5995C197.752 16.1948 198.323 15.8854 198.989 15.6712C199.656 15.4451 200.358 15.332 201.096 15.332C202.31 15.332 203.244 15.6355 203.898 16.2424C204.565 16.8375 204.898 17.7479 204.898 18.9737V24.7931H203.684ZM200.453 24.8824C199.751 24.8824 199.138 24.7693 198.614 24.5432C198.103 24.3052 197.71 23.9839 197.436 23.5792C197.162 23.1627 197.026 22.6867 197.026 22.1511C197.026 21.6632 197.139 21.2229 197.365 20.8302C197.603 20.4255 197.984 20.1042 198.507 19.8662C199.043 19.6163 199.757 19.4913 200.649 19.4913H203.88V20.4374H200.685C199.781 20.4374 199.15 20.5981 198.793 20.9194C198.448 21.2407 198.275 21.6394 198.275 22.1154C198.275 22.651 198.483 23.0794 198.9 23.4007C199.316 23.722 199.9 23.8827 200.649 23.8827C201.363 23.8827 201.976 23.722 202.488 23.4007C203.012 23.0675 203.392 22.5915 203.631 21.9726L203.916 22.8473C203.678 23.4662 203.262 23.9601 202.667 24.329C202.083 24.6979 201.346 24.8824 200.453 24.8824Z" fill="white"/>
<path d="M208.272 24.7931V15.4213H209.557L213.806 22.6153H213.27L217.59 15.4213H218.768V24.7931H217.608V16.8672L217.84 16.9743L213.806 23.6506H213.235L209.164 16.9029L209.432 16.8494V24.7931H208.272Z" fill="white"/>
<path d="M222.375 24.7931V15.4213H223.642V19.5627H229.551V15.4213H230.819V24.7931H229.551V20.6517H223.642V24.7931H222.375Z" fill="white"/>
<path d="M238.277 24.8824C237.372 24.8824 236.557 24.68 235.831 24.2754C235.117 23.8589 234.552 23.2936 234.135 22.5796C233.719 21.8536 233.511 21.0265 233.511 20.0983C233.511 19.1581 233.719 18.331 234.135 17.617C234.552 16.9029 235.117 16.3436 235.831 15.939C236.545 15.5343 237.36 15.332 238.277 15.332C239.205 15.332 240.026 15.5343 240.74 15.939C241.466 16.3436 242.031 16.9029 242.436 17.617C242.853 18.331 243.061 19.1581 243.061 20.0983C243.061 21.0265 242.853 21.8536 242.436 22.5796C242.031 23.2936 241.466 23.8589 240.74 24.2754C240.014 24.68 239.193 24.8824 238.277 24.8824ZM238.277 23.7577C238.955 23.7577 239.556 23.609 240.08 23.3115C240.603 23.002 241.014 22.5736 241.311 22.0262C241.621 21.4669 241.776 20.8242 241.776 20.0983C241.776 19.3604 241.621 18.7178 241.311 18.1704C241.014 17.6229 240.603 17.2004 240.08 16.9029C239.556 16.5935 238.961 16.4388 238.295 16.4388C237.628 16.4388 237.033 16.5935 236.51 16.9029C235.986 17.2004 235.569 17.6229 235.26 18.1704C234.951 18.7178 234.796 19.3604 234.796 20.0983C234.796 20.8242 234.951 21.4669 235.26 22.0262C235.569 22.5736 235.986 23.002 236.51 23.3115C237.033 23.609 237.622 23.7577 238.277 23.7577Z" fill="white"/>
<path d="M249.786 24.8824C248.81 24.8824 247.953 24.68 247.216 24.2754C246.478 23.8589 245.901 23.2936 245.484 22.5796C245.068 21.8536 244.859 21.0265 244.859 20.0983C244.859 19.17 245.056 18.3489 245.448 17.6348C245.853 16.9208 246.4 16.3614 247.091 15.9568C247.793 15.5403 248.578 15.332 249.447 15.332C250.328 15.332 251.107 15.5343 251.785 15.939C252.476 16.3317 253.017 16.891 253.41 17.617C253.803 18.331 253.999 19.1581 253.999 20.0983C253.999 20.1578 253.993 20.2232 253.981 20.2946C253.981 20.3541 253.981 20.4196 253.981 20.491H245.823V19.5449H253.303L252.803 19.9198C252.803 19.2414 252.654 18.6404 252.357 18.1168C252.071 17.5813 251.678 17.1647 251.179 16.8672C250.679 16.5697 250.102 16.4209 249.447 16.4209C248.804 16.4209 248.227 16.5697 247.715 16.8672C247.204 17.1647 246.805 17.5813 246.519 18.1168C246.234 18.6523 246.091 19.2652 246.091 19.9555V20.1518C246.091 20.8659 246.246 21.4966 246.555 22.044C246.876 22.5796 247.317 23.002 247.876 23.3115C248.447 23.609 249.096 23.7577 249.822 23.7577C250.393 23.7577 250.923 23.6566 251.411 23.4543C251.91 23.252 252.339 22.9425 252.696 22.526L253.41 23.3472C252.993 23.847 252.47 24.2278 251.839 24.4896C251.22 24.7514 250.536 24.8824 249.786 24.8824Z" fill="white"/>
<path d="M158.76 46.2144V44.1437L158.706 43.8045V40.3414C158.706 39.544 158.48 38.9312 158.028 38.5027C157.588 38.0743 156.927 37.8601 156.047 37.8601C155.44 37.8601 154.863 37.9612 154.315 38.1636C153.768 38.3659 153.304 38.6336 152.923 38.9669L152.351 38.0208C152.828 37.6161 153.399 37.3067 154.065 37.0925C154.732 36.8664 155.434 36.7533 156.172 36.7533C157.385 36.7533 158.32 37.0568 158.974 37.6637C159.641 38.2588 159.974 39.1692 159.974 40.3949V46.2144H158.76ZM155.529 46.3037C154.827 46.3037 154.214 46.1906 153.69 45.9645C153.179 45.7265 152.786 45.4051 152.512 45.0005C152.238 44.584 152.102 44.108 152.102 43.5724C152.102 43.0845 152.215 42.6442 152.441 42.2515C152.679 41.8468 153.06 41.5255 153.583 41.2875C154.119 41.0376 154.833 40.9126 155.725 40.9126H158.956V41.8587H155.761C154.857 41.8587 154.226 42.0194 153.869 42.3407C153.524 42.662 153.351 43.0607 153.351 43.5367C153.351 44.0723 153.559 44.5007 153.976 44.822C154.392 45.1433 154.976 45.304 155.725 45.304C156.439 45.304 157.052 45.1433 157.564 44.822C158.088 44.4888 158.468 44.0128 158.706 43.3939L158.992 44.2686C158.754 44.8875 158.338 45.3813 157.743 45.7503C157.159 46.1192 156.422 46.3037 155.529 46.3037Z" fill="white"/>
<path d="M163.348 46.2144V36.8426H169.988V37.9493H164.294L164.615 37.628V46.2144H163.348Z" fill="white"/>
<path d="M175.401 46.3037C174.425 46.3037 173.568 46.1013 172.83 45.6967C172.092 45.2802 171.515 44.7149 171.099 44.0009C170.682 43.2749 170.474 42.4478 170.474 41.5196C170.474 40.5913 170.67 39.7702 171.063 39.0561C171.468 38.3421 172.015 37.7827 172.705 37.3781C173.407 36.9616 174.193 36.7533 175.062 36.7533C175.942 36.7533 176.722 36.9556 177.4 37.3603C178.09 37.753 178.632 38.3123 179.025 39.0383C179.417 39.7523 179.614 40.5794 179.614 41.5196C179.614 41.5791 179.608 41.6445 179.596 41.7159C179.596 41.7754 179.596 41.8409 179.596 41.9123H171.438V40.9662H178.918L178.418 41.3411C178.418 40.6627 178.269 40.0617 177.971 39.5381C177.686 39.0026 177.293 38.586 176.793 38.2885C176.293 37.991 175.716 37.8422 175.062 37.8422C174.419 37.8422 173.842 37.991 173.33 38.2885C172.818 38.586 172.42 39.0026 172.134 39.5381C171.848 40.0736 171.706 40.6865 171.706 41.3768V41.5731C171.706 42.2872 171.86 42.9179 172.17 43.4653C172.491 44.0009 172.931 44.4233 173.491 44.7328C174.062 45.0303 174.711 45.179 175.437 45.179C176.008 45.179 176.537 45.0779 177.025 44.8756C177.525 44.6733 177.954 44.3638 178.311 43.9473L179.025 44.7685C178.608 45.2683 178.084 45.6491 177.454 45.9109C176.835 46.1727 176.151 46.3037 175.401 46.3037Z" fill="white"/>
<path d="M182.419 46.2144V36.8426H183.687V40.984H189.595V36.8426H190.863V46.2144H189.595V42.0729H183.687V46.2144H182.419Z" fill="white"/>
<path d="M196.25 46.2144V37.6102L196.572 37.9493H192.698V36.8426H201.07V37.9493H197.196L197.518 37.6102V46.2144H196.25Z" fill="white"/>
<path d="M206.394 46.3037C205.466 46.3037 204.633 46.1013 203.895 45.6967C203.169 45.2802 202.598 44.7149 202.181 44.0009C201.765 43.2749 201.556 42.4478 201.556 41.5196C201.556 40.5794 201.765 39.7523 202.181 39.0383C202.598 38.3242 203.169 37.7649 203.895 37.3603C204.633 36.9556 205.466 36.7533 206.394 36.7533C207.191 36.7533 207.911 36.908 208.554 37.2175C209.197 37.5269 209.702 37.991 210.071 38.6098L209.125 39.2525C208.804 38.7764 208.405 38.4254 207.929 38.1993C207.453 37.9731 206.936 37.8601 206.376 37.8601C205.71 37.8601 205.109 38.0148 204.573 38.3242C204.038 38.6217 203.615 39.0442 203.306 39.5916C202.996 40.1391 202.842 40.7817 202.842 41.5196C202.842 42.2574 202.996 42.9 203.306 43.4475C203.615 43.9949 204.038 44.4233 204.573 44.7328C205.109 45.0303 205.71 45.179 206.376 45.179C206.936 45.179 207.453 45.066 207.929 44.8399C208.405 44.6137 208.804 44.2686 209.125 43.8045L210.071 44.4471C209.702 45.0541 209.197 45.5182 208.554 45.8395C207.911 46.1489 207.191 46.3037 206.394 46.3037Z" fill="white"/>
<path d="M214.136 46.2144V37.6102L214.458 37.9493H210.584V36.8426H218.956V37.9493H215.082L215.404 37.6102V46.2144H214.136Z" fill="white"/>
<path d="M220.789 46.2144V36.8426H224.93C225.989 36.8426 226.822 37.0449 227.429 37.4495C228.048 37.8541 228.357 38.4492 228.357 39.2346C228.357 39.9963 228.066 40.5854 227.483 41.0019C226.9 41.4065 226.132 41.6088 225.18 41.6088L225.43 41.2339C226.549 41.2339 227.37 41.4422 227.893 41.8587C228.417 42.2753 228.679 42.8762 228.679 43.6617C228.679 44.4709 228.381 45.1017 227.786 45.5539C227.203 45.9942 226.293 46.2144 225.055 46.2144H220.789ZM222.02 45.2147H225.001C225.799 45.2147 226.4 45.0898 226.804 44.8399C227.221 44.578 227.429 44.1615 227.429 43.5903C227.429 43.0191 227.245 42.6025 226.876 42.3407C226.507 42.0789 225.924 41.948 225.126 41.948H222.02V45.2147ZM222.02 41.0019H224.841C225.567 41.0019 226.12 40.865 226.501 40.5913C226.894 40.3176 227.09 39.9189 227.09 39.3953C227.09 38.8717 226.894 38.4789 226.501 38.2171C226.12 37.9553 225.567 37.8244 224.841 37.8244H222.02V41.0019Z" fill="white"/>
<path d="M235.505 46.3037C234.601 46.3037 233.785 46.1013 233.059 45.6967C232.345 45.2802 231.78 44.7149 231.364 44.0009C230.947 43.2749 230.739 42.4478 230.739 41.5196C230.739 40.5794 230.947 39.7523 231.364 39.0383C231.78 38.3242 232.345 37.7649 233.059 37.3603C233.773 36.9556 234.589 36.7533 235.505 36.7533C236.433 36.7533 237.254 36.9556 237.968 37.3603C238.694 37.7649 239.26 38.3242 239.664 39.0383C240.081 39.7523 240.289 40.5794 240.289 41.5196C240.289 42.4478 240.081 43.2749 239.664 44.0009C239.26 44.7149 238.694 45.2802 237.968 45.6967C237.243 46.1013 236.421 46.3037 235.505 46.3037ZM235.505 45.179C236.183 45.179 236.784 45.0303 237.308 44.7328C237.832 44.4233 238.242 43.9949 238.54 43.4475C238.849 42.8881 239.004 42.2455 239.004 41.5196C239.004 40.7817 238.849 40.1391 238.54 39.5916C238.242 39.0442 237.832 38.6217 237.308 38.3242C236.784 38.0148 236.189 37.8601 235.523 37.8601C234.856 37.8601 234.261 38.0148 233.738 38.3242C233.214 38.6217 232.798 39.0442 232.488 39.5916C232.179 40.1391 232.024 40.7817 232.024 41.5196C232.024 42.2455 232.179 42.8881 232.488 43.4475C232.798 43.9949 233.214 44.4233 233.738 44.7328C234.261 45.0303 234.85 45.179 235.505 45.179Z" fill="white"/>
</svg>
