<svg xmlns="http://www.w3.org/2000/svg" xmlns:xlink="http://www.w3.org/1999/xlink" version="1.1" width="256" height="256" viewBox="0 0 256 256" xml:space="preserve">

<defs>
</defs>
<g style="stroke: none; stroke-width: 0; stroke-dasharray: none; stroke-linecap: butt; stroke-linejoin: miter; stroke-miterlimit: 10; fill: none; fill-rule: nonzero; opacity: 1;" transform="translate(1.4065934065934016 1.4065934065934016) scale(2.81 2.81)" >
	<path d="M 45 90 c 24.813 0 45 -20.187 45 -45 C 90 20.187 69.813 0 45 0 C 20.187 0 0 20.187 0 45 C 0 69.813 20.187 90 45 90 z M 45 4 c 22.607 0 41 18.393 41 41 S 67.607 86 45 86 S 4 67.607 4 45 S 22.393 4 45 4 z" style="stroke: none; stroke-width: 1; stroke-dasharray: none; stroke-linecap: butt; stroke-linejoin: miter; stroke-miterlimit: 10; fill: rgb(248,243,243); fill-rule: nonzero; opacity: 1;" transform=" matrix(1 0 0 1 0 0) " stroke-linecap="round" />
	<path d="M 69.271 65.409 c 0.217 0 0.437 -0.035 0.651 -0.109 c 0.807 -0.277 1.349 -1.037 1.349 -1.891 c 0 -15.427 -11.287 -28.105 -25.547 -29.197 v -7.621 c 0 -0.769 -0.441 -1.47 -1.134 -1.803 c -0.692 -0.334 -1.516 -0.24 -2.116 0.242 L 19.479 43.439 c -0.474 0.379 -0.75 0.954 -0.75 1.561 s 0.276 1.182 0.75 1.562 l 22.993 18.409 c 0.6 0.48 1.421 0.576 2.116 0.241 c 0.693 -0.333 1.134 -1.034 1.134 -1.803 v -7.961 c 10.713 0.31 17.162 3.037 21.971 9.192 C 68.081 65.135 68.667 65.409 69.271 65.409 z M 43.723 51.418 c -0.53 0 -1.038 0.21 -1.413 0.585 c -0.376 0.375 -0.587 0.884 -0.587 1.415 v 5.828 L 23.93 45 l 17.793 -14.246 v 5.381 c 0 1.104 0.896 2 2 2 c 11.96 0 20.587 9.422 22.917 19.737 c -6.863 -5.567 -15.295 -6.442 -22.914 -6.455 C 43.725 51.418 43.724 51.418 43.723 51.418 z" style="stroke: none; stroke-width: 1; stroke-dasharray: none; stroke-linecap: butt; stroke-linejoin: miter; stroke-miterlimit: 10; fill: rgb(248,243,243); fill-rule: nonzero; opacity: 1;" transform=" matrix(1 0 0 1 0 0) " stroke-linecap="round" />
</g>
</svg>